<svg width="24" height="24" stroke="#f5f5f5" viewBox="0 0 24 24" fill="none" xmlns="http://www.w3.org/2000/svg">
<path d="M12 5.90625C12.2589 5.90625 12.4688 5.69638 12.4688 5.4375C12.4688 5.17862 12.2589 4.96875 12 4.96875C11.7411 4.96875 11.5312 5.17862 11.5312 5.4375C11.5312 5.69638 11.7411 5.90625 12 5.90625Z" fill="white"/>
<path d="M9.51562 14.3438C9.51562 12.7929 8.25394 11.5312 6.70312 11.5312C5.15231 11.5312 3.89062 12.7929 3.89062 14.3438V14.8125C3.89062 15.0713 4.10053 15.2812 4.35938 15.2812H9.04688C9.30572 15.2812 9.51562 15.0713 9.51562 14.8125V14.3438ZM4.82812 14.3438C4.82812 13.3099 5.66925 12.4688 6.70312 12.4688C7.737 12.4688 8.57812 13.3099 8.57812 14.3438H4.82812Z" fill="white"/>
<path d="M8.57812 9.65625C8.57812 8.62238 7.737 7.78125 6.70312 7.78125C5.66925 7.78125 4.82812 8.62238 4.82812 9.65625C4.82812 10.6901 5.66925 11.5312 6.70312 11.5312C7.737 11.5312 8.57812 10.6901 8.57812 9.65625ZM6.70312 10.5938C6.18619 10.5938 5.76562 10.1732 5.76562 9.65625C5.76562 9.13931 6.18619 8.71875 6.70312 8.71875C7.22006 8.71875 7.64062 9.13931 7.64062 9.65625C7.64062 10.1732 7.22006 10.5938 6.70312 10.5938Z" fill="white"/>
<path d="M17.2969 11.5312C15.7461 11.5312 14.4844 12.7929 14.4844 14.3438V14.8125C14.4844 15.0713 14.6943 15.2812 14.9531 15.2812H19.6406C19.8995 15.2812 20.1094 15.0713 20.1094 14.8125V14.3438C20.1094 12.7929 18.8477 11.5312 17.2969 11.5312ZM15.4219 14.3438C15.4219 13.3099 16.263 12.4688 17.2969 12.4688C18.3307 12.4688 19.1719 13.3099 19.1719 14.3438H15.4219Z" fill="white"/>
<path d="M19.1719 9.65625C19.1719 8.62238 18.3307 7.78125 17.2969 7.78125C16.263 7.78125 15.4219 8.62238 15.4219 9.65625C15.4219 10.6901 16.263 11.5312 17.2969 11.5312C18.3307 11.5312 19.1719 10.6901 19.1719 9.65625ZM17.2969 10.5938C16.7799 10.5938 16.3594 10.1732 16.3594 9.65625C16.3594 9.13931 16.7799 8.71875 17.2969 8.71875C17.8138 8.71875 18.2344 9.13931 18.2344 9.65625C18.2344 10.1732 17.8138 10.5938 17.2969 10.5938Z" fill="white"/>
<path d="M12 20.9062C12.2589 20.9062 12.4688 20.6964 12.4688 20.4375C12.4688 20.1786 12.2589 19.9688 12 19.9688C11.7411 19.9688 11.5312 20.1786 11.5312 20.4375C11.5312 20.6964 11.7411 20.9062 12 20.9062Z" fill="white"/>
<path d="M23.5312 17.1562H22.5938V6.375C22.5938 5.59959 21.9629 4.96875 21.1875 4.96875H14.2966C14.0788 3.90023 13.1318 3.09375 12 3.09375C10.8682 3.09375 9.92119 3.90023 9.70341 4.96875H2.8125C2.03709 4.96875 1.40625 5.59959 1.40625 6.375V17.1562H0.46875C0.209906 17.1562 0 17.3662 0 17.625C0 19.4343 1.47197 20.9062 3.28125 20.9062H9.89062C10.1495 20.9062 10.3594 20.6963 10.3594 20.4375C10.3594 20.1787 10.1495 19.9688 9.89062 19.9688H3.28125C2.14941 19.9688 1.20234 19.1622 0.984609 18.0938H8.57812V18.5625C8.57812 18.8213 8.78803 19.0312 9.04688 19.0312H14.9531C15.212 19.0312 15.4219 18.8213 15.4219 18.5625V18.0933H23.0154C22.7977 19.1622 21.8506 19.9688 20.7188 19.9688H14.1094C13.8505 19.9688 13.6406 20.1787 13.6406 20.4375C13.6406 20.6963 13.8505 20.9062 14.1094 20.9062H20.7188C22.528 20.9062 24 19.4343 24 17.625C24 17.3662 23.7901 17.1562 23.5312 17.1562ZM12 4.03125C12.7754 4.03125 13.4062 4.66209 13.4062 5.4375C13.4062 6.21291 12.7754 6.84375 12 6.84375C11.2246 6.84375 10.5938 6.21291 10.5938 5.4375C10.5938 4.66209 11.2246 4.03125 12 4.03125ZM9.04688 17.1562H2.34375V6.375C2.34375 6.11653 2.55403 5.90625 2.8125 5.90625H9.70341C9.8903 6.82327 10.6142 7.5472 11.5312 7.73409V18.0938H9.51562V17.625C9.51562 17.3662 9.30572 17.1562 9.04688 17.1562ZM14.9531 17.1562C14.6943 17.1562 14.4844 17.3662 14.4844 17.625V18.0938H12.4688V7.73409C13.3858 7.5472 14.1097 6.82327 14.2966 5.90625H21.1875C21.446 5.90625 21.6562 6.11653 21.6562 6.375V17.1562H14.9531Z" fill="white"/>
</svg>
