<svg width="663" height="359" viewBox="0 0 663 359" fill="none" xmlns="http://www.w3.org/2000/svg">
<g opacity="0.19">
<mask id="mask0" mask-type="alpha" maskUnits="userSpaceOnUse" x="0" y="0" width="663" height="359">
<rect x="0.5" y="0.5" width="661.963" height="358" fill="white" stroke="white"/>
</mask>
<g mask="url(#mask0)">
<rect x="-0.189462" y="0.658062" width="13.7864" height="13.7864" transform="matrix(0.517621 0.834389 -0.896546 0.481735 674.412 19.287)" stroke="white"/>
<rect x="-0.189462" y="0.658062" width="13.7864" height="13.7864" transform="matrix(0.517621 0.834389 -0.896546 0.481735 667.281 44.0572)" stroke="white"/>
<rect x="-0.189462" y="0.658062" width="13.7864" height="13.7864" transform="matrix(0.517621 0.834389 -0.896546 0.481735 660.15 68.826)" stroke="white"/>
<rect x="-0.189462" y="0.658062" width="13.7864" height="13.7864" transform="matrix(0.517621 0.834389 -0.896546 0.481735 653.124 93.6219)" stroke="white"/>
<rect x="-0.189462" y="0.658062" width="13.7864" height="13.7864" transform="matrix(0.517621 0.834389 -0.896546 0.481735 645.201 121.144)" stroke="white"/>
<rect x="-0.189462" y="0.658062" width="13.7864" height="13.7864" transform="matrix(0.517621 0.834389 -0.896546 0.481735 637.275 148.665)" stroke="white"/>
<rect x="-0.623478" y="0.359501" width="13.3198" height="14.2387" transform="matrix(-0.276671 0.960965 -0.970286 -0.241963 673.687 161.582)" stroke="white"/>
<rect x="-0.189462" y="0.658062" width="13.7864" height="13.7864" transform="matrix(0.517621 0.834389 -0.896546 0.481735 629.351 176.187)" stroke="white"/>
<rect x="-0.623478" y="0.359501" width="13.3198" height="14.2387" transform="matrix(-0.276671 0.960965 -0.970286 -0.241963 665.763 189.104)" stroke="white"/>
<rect x="-0.189462" y="0.658062" width="13.7864" height="13.7864" transform="matrix(0.517621 0.834389 -0.896546 0.481735 621.429 203.708)" stroke="white"/>
<rect x="-0.623478" y="0.359501" width="13.3198" height="14.2387" transform="matrix(-0.276671 0.960965 -0.970286 -0.241963 657.84 216.625)" stroke="white"/>
<rect x="-0.189462" y="0.658062" width="13.7864" height="13.7864" transform="matrix(0.517621 0.834389 -0.896546 0.481735 613.504 231.23)" stroke="white"/>
<rect x="-0.189462" y="0.658062" width="13.7864" height="13.7864" transform="matrix(0.517621 0.834389 -0.896546 0.481735 674.971 246.558)" stroke="white"/>
<rect x="-0.623478" y="0.359501" width="13.3198" height="14.2387" transform="matrix(-0.276671 0.960965 -0.970286 -0.241963 649.916 244.147)" stroke="white"/>
<rect x="-0.189462" y="0.658062" width="13.7864" height="13.7864" transform="matrix(0.517621 0.834389 -0.896546 0.481735 605.589 259.432)" stroke="white"/>
<rect x="-0.189462" y="0.658062" width="13.7864" height="13.7864" transform="matrix(0.517621 0.834389 -0.896546 0.481735 667.056 274.76)" stroke="white"/>
<rect x="-0.623478" y="0.359501" width="13.3198" height="14.2387" transform="matrix(-0.276671 0.960965 -0.970286 -0.241963 642.001 272.349)" stroke="white"/>
<rect x="-0.189462" y="0.658062" width="13.7864" height="13.7864" transform="matrix(0.517621 0.834389 -0.896546 0.481735 598.43 284.299)" stroke="white"/>
<rect x="-0.189462" y="0.658062" width="13.7864" height="13.7864" transform="matrix(0.517621 0.834389 -0.896546 0.481735 659.897 299.627)" stroke="white"/>
<rect x="-0.623478" y="0.359501" width="13.3198" height="14.2387" transform="matrix(-0.276671 0.960965 -0.970286 -0.241963 634.842 297.216)" stroke="white"/>
<rect x="-0.189462" y="0.658062" width="13.7864" height="13.7864" transform="matrix(0.517621 0.834389 -0.896546 0.481735 591.299 309.069)" stroke="white"/>
<rect x="-0.189462" y="0.658062" width="13.7864" height="13.7864" transform="matrix(0.517621 0.834389 -0.896546 0.481735 652.766 324.397)" stroke="white"/>
<rect x="-0.623478" y="0.359501" width="13.3198" height="14.2387" transform="matrix(-0.276671 0.960965 -0.970286 -0.241963 627.711 321.986)" stroke="white"/>
<rect x="-0.189462" y="0.658062" width="13.7864" height="13.7864" transform="matrix(0.517621 0.834389 -0.896546 0.481735 584.167 333.838)" stroke="white"/>
<rect x="-0.189462" y="0.658062" width="13.7864" height="13.7864" transform="matrix(0.517621 0.834389 -0.896546 0.481735 645.634 349.166)" stroke="white"/>
<rect x="-0.623478" y="0.359501" width="13.3198" height="14.2387" transform="matrix(-0.276671 0.960965 -0.970286 -0.241963 620.579 346.755)" stroke="white"/>
<rect x="-0.189462" y="0.658062" width="13.7864" height="13.7864" transform="matrix(0.517621 0.834389 -0.896546 0.481735 577.14 358.634)" stroke="white"/>
<rect x="-0.189462" y="0.658062" width="13.7864" height="13.7864" transform="matrix(0.517621 0.834389 -0.896546 0.481735 256.14 -5.37391)" stroke="white"/>
<rect x="-0.623478" y="0.359501" width="13.3198" height="14.2387" transform="matrix(-0.276671 0.960965 -0.970286 -0.241963 231.085 -7.78494)" stroke="white"/>
<rect x="-0.189462" y="0.658062" width="13.7864" height="13.7864" transform="matrix(0.517621 0.834389 -0.896546 0.481735 186.752 6.82043)" stroke="white"/>
<rect x="-0.189462" y="0.658062" width="13.7864" height="13.7864" transform="matrix(0.517621 0.834389 -0.896546 0.481735 248.218 22.1486)" stroke="white"/>
<rect x="-0.623478" y="0.359501" width="13.3198" height="14.2387" transform="matrix(-0.276671 0.960965 -0.970286 -0.241963 223.163 19.7375)" stroke="white"/>
<rect x="-0.189462" y="0.658062" width="13.7864" height="13.7864" transform="matrix(0.517621 0.834389 -0.896546 0.481735 178.827 34.3414)" stroke="white"/>
<rect x="-0.189462" y="0.658062" width="13.7864" height="13.7864" transform="matrix(0.517621 0.834389 -0.896546 0.481735 240.294 49.6695)" stroke="white"/>
<rect x="-0.623478" y="0.359501" width="13.3198" height="14.2387" transform="matrix(-0.276671 0.960965 -0.970286 -0.241963 215.239 47.2585)" stroke="white"/>
<rect x="-0.189462" y="0.658062" width="13.7864" height="13.7864" transform="matrix(0.517621 0.834389 -0.896546 0.481735 170.903 61.8639)" stroke="white"/>
<rect x="-0.189462" y="0.658062" width="13.7864" height="13.7864" transform="matrix(0.517621 0.834389 -0.896546 0.481735 232.37 77.192)" stroke="white"/>
<rect x="-0.623478" y="0.359501" width="13.3198" height="14.2387" transform="matrix(-0.276671 0.960965 -0.970286 -0.241963 207.314 74.781)" stroke="white"/>
<rect x="-0.189462" y="0.658062" width="13.7864" height="13.7864" transform="matrix(0.517621 0.834389 -0.896546 0.481735 162.981 89.3854)" stroke="white"/>
<rect x="-0.189462" y="0.658062" width="13.7864" height="13.7864" transform="matrix(0.517621 0.834389 -0.896546 0.481735 224.447 104.713)" stroke="white"/>
<rect x="-0.623478" y="0.359501" width="13.3198" height="14.2387" transform="matrix(-0.276671 0.960965 -0.970286 -0.241963 199.392 102.302)" stroke="white"/>
<rect x="-0.189462" y="0.658062" width="13.7864" height="13.7864" transform="matrix(0.517621 0.834389 -0.896546 0.481735 155.056 116.907)" stroke="white"/>
<rect x="-0.189462" y="0.658062" width="13.7864" height="13.7864" transform="matrix(0.517621 0.834389 -0.896546 0.481735 216.523 132.235)" stroke="white"/>
<rect x="-0.623478" y="0.359501" width="13.3198" height="14.2387" transform="matrix(-0.276671 0.960965 -0.970286 -0.241963 191.468 129.824)" stroke="white"/>
<rect x="-0.189462" y="0.658062" width="13.7864" height="13.7864" transform="matrix(0.517621 0.834389 -0.896546 0.481735 147.14 145.108)" stroke="white"/>
<rect x="-0.189462" y="0.658062" width="13.7864" height="13.7864" transform="matrix(0.517621 0.834389 -0.896546 0.481735 208.607 160.436)" stroke="white"/>
<rect x="-0.623478" y="0.359501" width="13.3198" height="14.2387" transform="matrix(-0.276671 0.960965 -0.970286 -0.241963 183.552 158.025)" stroke="white"/>
<rect x="-0.189462" y="0.658062" width="13.7864" height="13.7864" transform="matrix(0.517621 0.834389 -0.896546 0.481735 139.98 169.975)" stroke="white"/>
<rect x="-0.189462" y="0.658062" width="13.7864" height="13.7864" transform="matrix(0.517621 0.834389 -0.896546 0.481735 201.447 185.303)" stroke="white"/>
<rect x="-0.623478" y="0.359501" width="13.3198" height="14.2387" transform="matrix(-0.276671 0.960965 -0.970286 -0.241963 176.392 182.892)" stroke="white"/>
<rect x="-0.189462" y="0.658062" width="13.7864" height="13.7864" transform="matrix(0.517621 0.834389 -0.896546 0.481735 132.849 194.745)" stroke="white"/>
<rect x="-0.189462" y="0.658062" width="13.7864" height="13.7864" transform="matrix(0.517621 0.834389 -0.896546 0.481735 194.316 210.073)" stroke="white"/>
<rect x="-0.623478" y="0.359501" width="13.3198" height="14.2387" transform="matrix(-0.276671 0.960965 -0.970286 -0.241963 169.261 207.662)" stroke="white"/>
<rect x="-0.189462" y="0.658062" width="13.7864" height="13.7864" transform="matrix(0.517621 0.834389 -0.896546 0.481735 125.718 219.514)" stroke="white"/>
<rect x="-0.189462" y="0.658062" width="13.7864" height="13.7864" transform="matrix(0.517621 0.834389 -0.896546 0.481735 187.185 234.842)" stroke="white"/>
<rect x="-0.623478" y="0.359501" width="13.3198" height="14.2387" transform="matrix(-0.276671 0.960965 -0.970286 -0.241963 162.13 232.431)" stroke="white"/>
<rect x="-0.189462" y="0.658062" width="13.7864" height="13.7864" transform="matrix(0.517621 0.834389 -0.896546 0.481735 118.69 244.31)" stroke="white"/>
<rect x="-0.189462" y="0.658062" width="13.7864" height="13.7864" transform="matrix(0.517621 0.834389 -0.896546 0.481735 180.157 259.638)" stroke="white"/>
<rect x="-0.623478" y="0.359501" width="13.3198" height="14.2387" transform="matrix(-0.276671 0.960965 -0.970286 -0.241963 155.102 257.227)" stroke="white"/>
<rect x="-0.189462" y="0.658062" width="13.7864" height="13.7864" transform="matrix(0.517621 0.834389 -0.896546 0.481735 110.767 271.832)" stroke="white"/>
<rect x="-0.189462" y="0.658062" width="13.7864" height="13.7864" transform="matrix(0.517621 0.834389 -0.896546 0.481735 172.234 287.16)" stroke="white"/>
<rect x="-0.623478" y="0.359501" width="13.3198" height="14.2387" transform="matrix(-0.276671 0.960965 -0.970286 -0.241963 147.179 284.749)" stroke="white"/>
<rect x="-0.189462" y="0.658062" width="13.7864" height="13.7864" transform="matrix(0.517621 0.834389 -0.896546 0.481735 102.843 299.353)" stroke="white"/>
<rect x="-0.189462" y="0.658062" width="13.7864" height="13.7864" transform="matrix(0.517621 0.834389 -0.896546 0.481735 164.31 314.681)" stroke="white"/>
<rect x="-0.623478" y="0.359501" width="13.3198" height="14.2387" transform="matrix(-0.276671 0.960965 -0.970286 -0.241963 139.255 312.27)" stroke="white"/>
<rect x="-0.189462" y="0.658062" width="13.7864" height="13.7864" transform="matrix(0.517621 0.834389 -0.896546 0.481735 94.9207 326.875)" stroke="white"/>
<rect x="-0.189462" y="0.658062" width="13.7864" height="13.7864" transform="matrix(0.517621 0.834389 -0.896546 0.481735 156.387 342.203)" stroke="white"/>
<rect x="-0.623478" y="0.359501" width="13.3198" height="14.2387" transform="matrix(-0.276671 0.960965 -0.970286 -0.241963 131.332 339.792)" stroke="white"/>
<rect x="-0.189462" y="0.658062" width="13.7864" height="13.7864" transform="matrix(0.517621 0.834389 -0.896546 0.481735 86.9974 354.397)" stroke="white"/>
<rect x="-0.189462" y="0.658062" width="13.7864" height="13.7864" transform="matrix(0.517621 0.834389 -0.896546 0.481735 355.834 -7.06166)" stroke="white"/>
<rect x="-0.623478" y="0.359501" width="13.3198" height="14.2387" transform="matrix(-0.276671 0.960965 -0.970286 -0.241963 330.779 -9.47268)" stroke="white"/>
<rect x="-0.189462" y="0.658062" width="13.7864" height="13.7864" transform="matrix(0.517621 0.834389 -0.896546 0.481735 287.342 2.40636)" stroke="white"/>
<rect x="-0.189462" y="0.658062" width="13.7864" height="13.7864" transform="matrix(0.517621 0.834389 -0.896546 0.481735 348.808 17.7345)" stroke="white"/>
<rect x="-0.623478" y="0.359501" width="13.3198" height="14.2387" transform="matrix(-0.276671 0.960965 -0.970286 -0.241963 323.753 15.3235)" stroke="white"/>
<rect x="-0.189462" y="0.658062" width="13.7864" height="13.7864" transform="matrix(0.517621 0.834389 -0.896546 0.481735 279.417 29.9278)" stroke="white"/>
<rect x="-0.189462" y="0.658062" width="13.7864" height="13.7864" transform="matrix(0.517621 0.834389 -0.896546 0.481735 340.884 45.256)" stroke="white"/>
<rect x="-0.623478" y="0.359501" width="13.3198" height="14.2387" transform="matrix(-0.276671 0.960965 -0.970286 -0.241963 315.829 42.8449)" stroke="white"/>
<rect x="-0.189462" y="0.658062" width="13.7864" height="13.7864" transform="matrix(0.517621 0.834389 -0.896546 0.481735 271.492 57.4501)" stroke="white"/>
<rect x="-0.189462" y="0.658062" width="13.7864" height="13.7864" transform="matrix(0.517621 0.834389 -0.896546 0.481735 332.959 72.7782)" stroke="white"/>
<rect x="-0.623478" y="0.359501" width="13.3198" height="14.2387" transform="matrix(-0.276671 0.960965 -0.970286 -0.241963 307.904 70.3672)" stroke="white"/>
<rect x="-0.189462" y="0.658062" width="13.7864" height="13.7864" transform="matrix(0.517621 0.834389 -0.896546 0.481735 263.571 84.9713)" stroke="white"/>
<rect x="-0.189462" y="0.658062" width="13.7864" height="13.7864" transform="matrix(0.517621 0.834389 -0.896546 0.481735 325.037 100.299)" stroke="white"/>
<rect x="-0.623478" y="0.359501" width="13.3198" height="14.2387" transform="matrix(-0.276671 0.960965 -0.970286 -0.241963 299.982 97.8884)" stroke="white"/>
<rect x="-0.189462" y="0.658062" width="13.7864" height="13.7864" transform="matrix(0.517621 0.834389 -0.896546 0.481735 255.646 112.493)" stroke="white"/>
<rect x="-0.189462" y="0.658062" width="13.7864" height="13.7864" transform="matrix(0.517621 0.834389 -0.896546 0.481735 317.113 127.821)" stroke="white"/>
<rect x="-0.623478" y="0.359501" width="13.3198" height="14.2387" transform="matrix(-0.276671 0.960965 -0.970286 -0.241963 292.058 125.41)" stroke="white"/>
<rect x="-0.189462" y="0.658062" width="13.7864" height="13.7864" transform="matrix(0.517621 0.834389 -0.896546 0.481735 247.723 140.015)" stroke="white"/>
<rect x="-0.189462" y="0.658062" width="13.7864" height="13.7864" transform="matrix(0.517621 0.834389 -0.896546 0.481735 309.19 155.343)" stroke="white"/>
<rect x="-0.623478" y="0.359501" width="13.3198" height="14.2387" transform="matrix(-0.276671 0.960965 -0.970286 -0.241963 284.135 152.932)" stroke="white"/>
<rect x="-0.189462" y="0.658062" width="13.7864" height="13.7864" transform="matrix(0.517621 0.834389 -0.896546 0.481735 239.807 168.216)" stroke="white"/>
<rect x="-0.189462" y="0.658062" width="13.7864" height="13.7864" transform="matrix(0.517621 0.834389 -0.896546 0.481735 301.274 183.544)" stroke="white"/>
<rect x="-0.623478" y="0.359501" width="13.3198" height="14.2387" transform="matrix(-0.276671 0.960965 -0.970286 -0.241963 276.219 181.133)" stroke="white"/>
<rect x="-0.189462" y="0.658062" width="13.7864" height="13.7864" transform="matrix(0.517621 0.834389 -0.896546 0.481735 232.647 193.084)" stroke="white"/>
<rect x="-0.189462" y="0.658062" width="13.7864" height="13.7864" transform="matrix(0.517621 0.834389 -0.896546 0.481735 294.114 208.412)" stroke="white"/>
<rect x="-0.623478" y="0.359501" width="13.3198" height="14.2387" transform="matrix(-0.276671 0.960965 -0.970286 -0.241963 269.059 206.001)" stroke="white"/>
<rect x="-0.189462" y="0.658062" width="13.7864" height="13.7864" transform="matrix(0.517621 0.834389 -0.896546 0.481735 225.515 217.852)" stroke="white"/>
<rect x="-0.189462" y="0.658062" width="13.7864" height="13.7864" transform="matrix(0.517621 0.834389 -0.896546 0.481735 286.982 233.181)" stroke="white"/>
<rect x="-0.623478" y="0.359501" width="13.3198" height="14.2387" transform="matrix(-0.276671 0.960965 -0.970286 -0.241963 261.927 230.77)" stroke="white"/>
<rect x="-0.189462" y="0.658062" width="13.7864" height="13.7864" transform="matrix(0.517621 0.834389 -0.896546 0.481735 218.384 242.623)" stroke="white"/>
<rect x="-0.189462" y="0.658062" width="13.7864" height="13.7864" transform="matrix(0.517621 0.834389 -0.896546 0.481735 279.851 257.951)" stroke="white"/>
<rect x="-0.623478" y="0.359501" width="13.3198" height="14.2387" transform="matrix(-0.276671 0.960965 -0.970286 -0.241963 254.796 255.54)" stroke="white"/>
<rect x="-0.189462" y="0.658062" width="13.7864" height="13.7864" transform="matrix(0.517621 0.834389 -0.896546 0.481735 211.358 267.418)" stroke="white"/>
<rect x="-0.189462" y="0.658062" width="13.7864" height="13.7864" transform="matrix(0.517621 0.834389 -0.896546 0.481735 272.824 282.746)" stroke="white"/>
<rect x="-0.623478" y="0.359501" width="13.3198" height="14.2387" transform="matrix(-0.276671 0.960965 -0.970286 -0.241963 247.769 280.335)" stroke="white"/>
<rect x="-0.189462" y="0.658062" width="13.7864" height="13.7864" transform="matrix(0.517621 0.834389 -0.896546 0.481735 203.434 294.94)" stroke="white"/>
<rect x="-0.189462" y="0.658062" width="13.7864" height="13.7864" transform="matrix(0.517621 0.834389 -0.896546 0.481735 264.901 310.268)" stroke="white"/>
<rect x="-0.623478" y="0.359501" width="13.3198" height="14.2387" transform="matrix(-0.276671 0.960965 -0.970286 -0.241963 239.846 307.857)" stroke="white"/>
<rect x="-0.189462" y="0.658062" width="13.7864" height="13.7864" transform="matrix(0.517621 0.834389 -0.896546 0.481735 195.51 322.462)" stroke="white"/>
<rect x="-0.189462" y="0.658062" width="13.7864" height="13.7864" transform="matrix(0.517621 0.834389 -0.896546 0.481735 256.976 337.79)" stroke="white"/>
<rect x="-0.623478" y="0.359501" width="13.3198" height="14.2387" transform="matrix(-0.276671 0.960965 -0.970286 -0.241963 231.921 335.379)" stroke="white"/>
<rect x="-0.189462" y="0.658062" width="13.7864" height="13.7864" transform="matrix(0.517621 0.834389 -0.896546 0.481735 187.586 349.983)" stroke="white"/>
<rect x="-0.623478" y="0.359501" width="13.3198" height="14.2387" transform="matrix(-0.276671 0.960965 -0.970286 -0.241963 223.998 362.9)" stroke="white"/>
<rect x="-0.189462" y="0.658062" width="13.7864" height="13.7864" transform="matrix(0.517621 0.834389 -0.896546 0.481735 455.339 -8.7953)" stroke="white"/>
<rect x="-0.623478" y="0.359501" width="13.3198" height="14.2387" transform="matrix(-0.276671 0.960965 -0.970286 -0.241963 430.284 -11.2063)" stroke="white"/>
<rect x="-0.189462" y="0.658062" width="13.7864" height="13.7864" transform="matrix(0.517621 0.834389 -0.896546 0.481735 386.739 0.645376)" stroke="white"/>
<rect x="-0.189462" y="0.658062" width="13.7864" height="13.7864" transform="matrix(0.517621 0.834389 -0.896546 0.481735 448.206 15.9735)" stroke="white"/>
<rect x="-0.623478" y="0.359501" width="13.3198" height="14.2387" transform="matrix(-0.276671 0.960965 -0.970286 -0.241963 423.151 13.5625)" stroke="white"/>
<rect x="-0.189462" y="0.658062" width="13.7864" height="13.7864" transform="matrix(0.517621 0.834389 -0.896546 0.481735 379.713 25.4418)" stroke="white"/>
<rect x="-0.189462" y="0.658062" width="13.7864" height="13.7864" transform="matrix(0.517621 0.834389 -0.896546 0.481735 441.18 40.7699)" stroke="white"/>
<rect x="-0.623478" y="0.359501" width="13.3198" height="14.2387" transform="matrix(-0.276671 0.960965 -0.970286 -0.241963 416.125 38.3589)" stroke="white"/>
<rect x="-0.189462" y="0.658062" width="13.7864" height="13.7864" transform="matrix(0.517621 0.834389 -0.896546 0.481735 371.789 52.963)" stroke="white"/>
<rect x="-0.189462" y="0.658062" width="13.7864" height="13.7864" transform="matrix(0.517621 0.834389 -0.896546 0.481735 433.256 68.2911)" stroke="white"/>
<rect x="-0.623478" y="0.359501" width="13.3198" height="14.2387" transform="matrix(-0.276671 0.960965 -0.970286 -0.241963 408.201 65.8801)" stroke="white"/>
<rect x="-0.189462" y="0.658062" width="13.7864" height="13.7864" transform="matrix(0.517621 0.834389 -0.896546 0.481735 363.864 80.4847)" stroke="white"/>
<rect x="-0.189462" y="0.658062" width="13.7864" height="13.7864" transform="matrix(0.517621 0.834389 -0.896546 0.481735 425.331 95.8129)" stroke="white"/>
<rect x="-0.623478" y="0.359501" width="13.3198" height="14.2387" transform="matrix(-0.276671 0.960965 -0.970286 -0.241963 400.276 93.4018)" stroke="white"/>
<rect x="-0.189462" y="0.658062" width="13.7864" height="13.7864" transform="matrix(0.517621 0.834389 -0.896546 0.481735 355.942 108.007)" stroke="white"/>
<rect x="-0.189462" y="0.658062" width="13.7864" height="13.7864" transform="matrix(0.517621 0.834389 -0.896546 0.481735 417.409 123.335)" stroke="white"/>
<rect x="-0.623478" y="0.359501" width="13.3198" height="14.2387" transform="matrix(-0.276671 0.960965 -0.970286 -0.241963 392.354 120.924)" stroke="white"/>
<rect x="-0.189462" y="0.658062" width="13.7864" height="13.7864" transform="matrix(0.517621 0.834389 -0.896546 0.481735 348.019 135.528)" stroke="white"/>
<rect x="-0.189462" y="0.658062" width="13.7864" height="13.7864" transform="matrix(0.517621 0.834389 -0.896546 0.481735 409.486 150.856)" stroke="white"/>
<rect x="-0.623478" y="0.359501" width="13.3198" height="14.2387" transform="matrix(-0.276671 0.960965 -0.970286 -0.241963 384.431 148.445)" stroke="white"/>
<rect x="-0.189462" y="0.658062" width="13.7864" height="13.7864" transform="matrix(0.517621 0.834389 -0.896546 0.481735 340.095 163.05)" stroke="white"/>
<rect x="-0.189462" y="0.658062" width="13.7864" height="13.7864" transform="matrix(0.517621 0.834389 -0.896546 0.481735 401.561 178.378)" stroke="white"/>
<rect x="-0.623478" y="0.359501" width="13.3198" height="14.2387" transform="matrix(-0.276671 0.960965 -0.970286 -0.241963 376.506 175.967)" stroke="white"/>
<rect x="-0.189462" y="0.658062" width="13.7864" height="13.7864" transform="matrix(0.517621 0.834389 -0.896546 0.481735 332.177 191.251)" stroke="white"/>
<rect x="-0.189462" y="0.658062" width="13.7864" height="13.7864" transform="matrix(0.517621 0.834389 -0.896546 0.481735 393.644 206.579)" stroke="white"/>
<rect x="-0.623478" y="0.359501" width="13.3198" height="14.2387" transform="matrix(-0.276671 0.960965 -0.970286 -0.241963 368.589 204.168)" stroke="white"/>
<rect x="-0.189462" y="0.658062" width="13.7864" height="13.7864" transform="matrix(0.517621 0.834389 -0.896546 0.481735 325.018 216.118)" stroke="white"/>
<rect x="-0.189462" y="0.658062" width="13.7864" height="13.7864" transform="matrix(0.517621 0.834389 -0.896546 0.481735 386.485 231.446)" stroke="white"/>
<rect x="-0.623478" y="0.359501" width="13.3198" height="14.2387" transform="matrix(-0.276671 0.960965 -0.970286 -0.241963 361.43 229.035)" stroke="white"/>
<rect x="-0.189462" y="0.658062" width="13.7864" height="13.7864" transform="matrix(0.517621 0.834389 -0.896546 0.481735 317.887 240.888)" stroke="white"/>
<rect x="-0.189462" y="0.658062" width="13.7864" height="13.7864" transform="matrix(0.517621 0.834389 -0.896546 0.481735 379.354 256.216)" stroke="white"/>
<rect x="-0.623478" y="0.359501" width="13.3198" height="14.2387" transform="matrix(-0.276671 0.960965 -0.970286 -0.241963 354.299 253.805)" stroke="white"/>
<rect x="-0.189462" y="0.658062" width="13.7864" height="13.7864" transform="matrix(0.517621 0.834389 -0.896546 0.481735 310.756 265.658)" stroke="white"/>
<rect x="-0.189462" y="0.658062" width="13.7864" height="13.7864" transform="matrix(0.517621 0.834389 -0.896546 0.481735 372.223 280.986)" stroke="white"/>
<rect x="-0.623478" y="0.359501" width="13.3198" height="14.2387" transform="matrix(-0.276671 0.960965 -0.970286 -0.241963 347.168 278.575)" stroke="white"/>
<rect x="-0.189462" y="0.658062" width="13.7864" height="13.7864" transform="matrix(0.517621 0.834389 -0.896546 0.481735 303.729 290.453)" stroke="white"/>
<rect x="-0.189462" y="0.658062" width="13.7864" height="13.7864" transform="matrix(0.517621 0.834389 -0.896546 0.481735 365.196 305.781)" stroke="white"/>
<rect x="-0.623478" y="0.359501" width="13.3198" height="14.2387" transform="matrix(-0.276671 0.960965 -0.970286 -0.241963 340.141 303.37)" stroke="white"/>
<rect x="-0.189462" y="0.658062" width="13.7864" height="13.7864" transform="matrix(0.517621 0.834389 -0.896546 0.481735 295.806 317.975)" stroke="white"/>
<rect x="-0.189462" y="0.658062" width="13.7864" height="13.7864" transform="matrix(0.517621 0.834389 -0.896546 0.481735 357.273 333.303)" stroke="white"/>
<rect x="-0.623478" y="0.359501" width="13.3198" height="14.2387" transform="matrix(-0.276671 0.960965 -0.970286 -0.241963 332.218 330.892)" stroke="white"/>
<rect x="-0.189462" y="0.658062" width="13.7864" height="13.7864" transform="matrix(0.517621 0.834389 -0.896546 0.481735 287.881 345.496)" stroke="white"/>
<rect x="-0.623478" y="0.359501" width="13.3198" height="14.2387" transform="matrix(-0.276671 0.960965 -0.970286 -0.241963 324.292 358.414)" stroke="white"/>
<rect x="-0.189462" y="0.658062" width="13.7864" height="13.7864" transform="matrix(0.517621 0.834389 -0.896546 0.481735 554.841 -10.5304)" stroke="white"/>
<rect x="-0.189462" y="0.658062" width="13.7864" height="13.7864" transform="matrix(0.517621 0.834389 -0.896546 0.481735 486.243 -1.089)" stroke="white"/>
<rect x="-0.189462" y="0.658062" width="13.7864" height="13.7864" transform="matrix(0.517621 0.834389 -0.896546 0.481735 547.71 14.2391)" stroke="white"/>
<rect x="-0.623478" y="0.359501" width="13.3198" height="14.2387" transform="matrix(-0.276671 0.960965 -0.970286 -0.241963 522.655 11.8281)" stroke="white"/>
<rect x="-0.189462" y="0.658062" width="13.7864" height="13.7864" transform="matrix(0.517621 0.834389 -0.896546 0.481735 479.111 23.6805)" stroke="white"/>
<rect x="-0.189462" y="0.658062" width="13.7864" height="13.7864" transform="matrix(0.517621 0.834389 -0.896546 0.481735 540.578 39.0087)" stroke="white"/>
<rect x="-0.623478" y="0.359501" width="13.3198" height="14.2387" transform="matrix(-0.276671 0.960965 -0.970286 -0.241963 515.523 36.5976)" stroke="white"/>
<rect x="-0.189462" y="0.658062" width="13.7864" height="13.7864" transform="matrix(0.517621 0.834389 -0.896546 0.481735 472.084 48.4764)" stroke="white"/>
<rect x="-0.189462" y="0.658062" width="13.7864" height="13.7864" transform="matrix(0.517621 0.834389 -0.896546 0.481735 533.551 63.8046)" stroke="white"/>
<rect x="-0.623478" y="0.359501" width="13.3198" height="14.2387" transform="matrix(-0.276671 0.960965 -0.970286 -0.241963 508.496 61.3935)" stroke="white"/>
<rect x="-0.189462" y="0.658062" width="13.7864" height="13.7864" transform="matrix(0.517621 0.834389 -0.896546 0.481735 464.161 75.9979)" stroke="white"/>
<rect x="-0.189462" y="0.658062" width="13.7864" height="13.7864" transform="matrix(0.517621 0.834389 -0.896546 0.481735 525.628 91.326)" stroke="white"/>
<rect x="-0.623478" y="0.359501" width="13.3198" height="14.2387" transform="matrix(-0.276671 0.960965 -0.970286 -0.241963 500.573 88.915)" stroke="white"/>
<rect x="-0.189462" y="0.658062" width="13.7864" height="13.7864" transform="matrix(0.517621 0.834389 -0.896546 0.481735 456.238 103.52)" stroke="white"/>
<rect x="-0.189462" y="0.658062" width="13.7864" height="13.7864" transform="matrix(0.517621 0.834389 -0.896546 0.481735 517.704 118.848)" stroke="white"/>
<rect x="-0.623478" y="0.359501" width="13.3198" height="14.2387" transform="matrix(-0.276671 0.960965 -0.970286 -0.241963 492.649 116.437)" stroke="white"/>
<rect x="-0.189462" y="0.658062" width="13.7864" height="13.7864" transform="matrix(0.517621 0.834389 -0.896546 0.481735 448.313 131.041)" stroke="white"/>
<rect x="-0.189462" y="0.658062" width="13.7864" height="13.7864" transform="matrix(0.517621 0.834389 -0.896546 0.481735 509.78 146.369)" stroke="white"/>
<rect x="-0.623478" y="0.359501" width="13.3198" height="14.2387" transform="matrix(-0.276671 0.960965 -0.970286 -0.241963 484.725 143.958)" stroke="white"/>
<rect x="-0.189462" y="0.658062" width="13.7864" height="13.7864" transform="matrix(0.517621 0.834389 -0.896546 0.481735 440.391 158.563)" stroke="white"/>
<rect x="-0.189462" y="0.658062" width="13.7864" height="13.7864" transform="matrix(0.517621 0.834389 -0.896546 0.481735 501.858 173.891)" stroke="white"/>
<rect x="-0.623478" y="0.359501" width="13.3198" height="14.2387" transform="matrix(-0.276671 0.960965 -0.970286 -0.241963 476.803 171.48)" stroke="white"/>
<rect x="-0.189462" y="0.658062" width="13.7864" height="13.7864" transform="matrix(0.517621 0.834389 -0.896546 0.481735 432.467 186.085)" stroke="white"/>
<rect x="-0.189462" y="0.658062" width="13.7864" height="13.7864" transform="matrix(0.517621 0.834389 -0.896546 0.481735 493.934 201.413)" stroke="white"/>
<rect x="-0.623478" y="0.359501" width="13.3198" height="14.2387" transform="matrix(-0.276671 0.960965 -0.970286 -0.241963 468.879 199.002)" stroke="white"/>
<rect x="-0.189462" y="0.658062" width="13.7864" height="13.7864" transform="matrix(0.517621 0.834389 -0.896546 0.481735 424.55 214.286)" stroke="white"/>
<rect x="-0.189462" y="0.658062" width="13.7864" height="13.7864" transform="matrix(0.517621 0.834389 -0.896546 0.481735 486.016 229.614)" stroke="white"/>
<rect x="-0.623478" y="0.359501" width="13.3198" height="14.2387" transform="matrix(-0.276671 0.960965 -0.970286 -0.241963 460.961 227.203)" stroke="white"/>
<rect x="-0.189462" y="0.658062" width="13.7864" height="13.7864" transform="matrix(0.517621 0.834389 -0.896546 0.481735 417.39 239.153)" stroke="white"/>
<rect x="-0.189462" y="0.658062" width="13.7864" height="13.7864" transform="matrix(0.517621 0.834389 -0.896546 0.481735 478.856 254.482)" stroke="white"/>
<rect x="-0.623478" y="0.359501" width="13.3198" height="14.2387" transform="matrix(-0.276671 0.960965 -0.970286 -0.241963 453.801 252.071)" stroke="white"/>
<rect x="-0.189462" y="0.658062" width="13.7864" height="13.7864" transform="matrix(0.517621 0.834389 -0.896546 0.481735 410.258 263.923)" stroke="white"/>
<rect x="-0.189462" y="0.658062" width="13.7864" height="13.7864" transform="matrix(0.517621 0.834389 -0.896546 0.481735 471.725 279.251)" stroke="white"/>
<rect x="-0.623478" y="0.359501" width="13.3198" height="14.2387" transform="matrix(-0.276671 0.960965 -0.970286 -0.241963 446.67 276.84)" stroke="white"/>
<rect x="-0.189462" y="0.658062" width="13.7864" height="13.7864" transform="matrix(0.517621 0.834389 -0.896546 0.481735 403.127 288.692)" stroke="white"/>
<rect x="-0.189462" y="0.658062" width="13.7864" height="13.7864" transform="matrix(0.517621 0.834389 -0.896546 0.481735 464.594 304.021)" stroke="white"/>
<rect x="-0.623478" y="0.359501" width="13.3198" height="14.2387" transform="matrix(-0.276671 0.960965 -0.970286 -0.241963 439.539 301.61)" stroke="white"/>
<rect x="-0.189462" y="0.658062" width="13.7864" height="13.7864" transform="matrix(0.517621 0.834389 -0.896546 0.481735 396.1 313.488)" stroke="white"/>
<rect x="-0.189462" y="0.658062" width="13.7864" height="13.7864" transform="matrix(0.517621 0.834389 -0.896546 0.481735 457.567 328.817)" stroke="white"/>
<rect x="-0.623478" y="0.359501" width="13.3198" height="14.2387" transform="matrix(-0.276671 0.960965 -0.970286 -0.241963 432.512 326.405)" stroke="white"/>
<rect x="-0.189462" y="0.658062" width="13.7864" height="13.7864" transform="matrix(0.517621 0.834389 -0.896546 0.481735 388.177 341.01)" stroke="white"/>
<rect x="-0.189462" y="0.658062" width="13.7864" height="13.7864" transform="matrix(0.517621 0.834389 -0.896546 0.481735 449.644 356.338)" stroke="white"/>
<rect x="-0.623478" y="0.359501" width="13.3198" height="14.2387" transform="matrix(-0.276671 0.960965 -0.970286 -0.241963 424.589 353.927)" stroke="white"/>
<rect x="-0.189462" y="0.658062" width="13.7864" height="13.7864" transform="matrix(0.517621 0.834389 -0.896546 0.481735 654.371 -12.3627)" stroke="white"/>
<rect x="-0.189462" y="0.658062" width="13.7864" height="13.7864" transform="matrix(0.517621 0.834389 -0.896546 0.481735 585.746 -2.82337)" stroke="white"/>
<rect x="-0.189462" y="0.658062" width="13.7864" height="13.7864" transform="matrix(0.517621 0.834389 -0.896546 0.481735 647.212 12.5048)" stroke="white"/>
<rect x="-0.623478" y="0.359501" width="13.3198" height="14.2387" transform="matrix(-0.276671 0.960965 -0.970286 -0.241963 622.157 10.0937)" stroke="white"/>
<rect x="-0.189462" y="0.658062" width="13.7864" height="13.7864" transform="matrix(0.517621 0.834389 -0.896546 0.481735 578.614 21.9459)" stroke="white"/>
<rect x="-0.189462" y="0.658062" width="13.7864" height="13.7864" transform="matrix(0.517621 0.834389 -0.896546 0.481735 640.08 37.274)" stroke="white"/>
<rect x="-0.623478" y="0.359501" width="13.3198" height="14.2387" transform="matrix(-0.276671 0.960965 -0.970286 -0.241963 615.025 34.863)" stroke="white"/>
<rect x="-0.189462" y="0.658062" width="13.7864" height="13.7864" transform="matrix(0.517621 0.834389 -0.896546 0.481735 571.483 46.7157)" stroke="white"/>
<rect x="-0.189462" y="0.658062" width="13.7864" height="13.7864" transform="matrix(0.517621 0.834389 -0.896546 0.481735 632.95 62.0438)" stroke="white"/>
<rect x="-0.623478" y="0.359501" width="13.3198" height="14.2387" transform="matrix(-0.276671 0.960965 -0.970286 -0.241963 607.895 59.6328)" stroke="white"/>
<rect x="-0.189462" y="0.658062" width="13.7864" height="13.7864" transform="matrix(0.517621 0.834389 -0.896546 0.481735 564.456 71.5116)" stroke="white"/>
<rect x="-0.189462" y="0.658062" width="13.7864" height="13.7864" transform="matrix(0.517621 0.834389 -0.896546 0.481735 625.923 86.8397)" stroke="white"/>
<rect x="-0.623478" y="0.359501" width="13.3198" height="14.2387" transform="matrix(-0.276671 0.960965 -0.970286 -0.241963 600.868 84.4287)" stroke="white"/>
<rect x="-0.189462" y="0.658062" width="13.7864" height="13.7864" transform="matrix(0.517621 0.834389 -0.896546 0.481735 556.533 99.0331)" stroke="white"/>
<rect x="-0.189462" y="0.658062" width="13.7864" height="13.7864" transform="matrix(0.517621 0.834389 -0.896546 0.481735 617.999 114.361)" stroke="white"/>
<rect x="-0.623478" y="0.359501" width="13.3198" height="14.2387" transform="matrix(-0.276671 0.960965 -0.970286 -0.241963 592.944 111.95)" stroke="white"/>
<rect x="-0.189462" y="0.658062" width="13.7864" height="13.7864" transform="matrix(0.517621 0.834389 -0.896546 0.481735 548.608 126.555)" stroke="white"/>
<rect x="-0.189462" y="0.658062" width="13.7864" height="13.7864" transform="matrix(0.517621 0.834389 -0.896546 0.481735 610.075 141.883)" stroke="white"/>
<rect x="-0.623478" y="0.359501" width="13.3198" height="14.2387" transform="matrix(-0.276671 0.960965 -0.970286 -0.241963 585.02 139.472)" stroke="white"/>
<rect x="-0.189462" y="0.658062" width="13.7864" height="13.7864" transform="matrix(0.517621 0.834389 -0.896546 0.481735 540.685 154.076)" stroke="white"/>
<rect x="-0.189462" y="0.658062" width="13.7864" height="13.7864" transform="matrix(0.517621 0.834389 -0.896546 0.481735 602.152 169.404)" stroke="white"/>
<rect x="-0.623478" y="0.359501" width="13.3198" height="14.2387" transform="matrix(-0.276671 0.960965 -0.970286 -0.241963 577.097 166.993)" stroke="white"/>
<rect x="-0.189462" y="0.658062" width="13.7864" height="13.7864" transform="matrix(0.517621 0.834389 -0.896546 0.481735 532.762 181.598)" stroke="white"/>
<rect x="-0.189462" y="0.658062" width="13.7864" height="13.7864" transform="matrix(0.517621 0.834389 -0.896546 0.481735 594.229 196.926)" stroke="white"/>
<rect x="-0.623478" y="0.359501" width="13.3198" height="14.2387" transform="matrix(-0.276671 0.960965 -0.970286 -0.241963 569.174 194.515)" stroke="white"/>
<rect x="-0.189462" y="0.658062" width="13.7864" height="13.7864" transform="matrix(0.517621 0.834389 -0.896546 0.481735 524.838 209.12)" stroke="white"/>
<rect x="-0.189462" y="0.658062" width="13.7864" height="13.7864" transform="matrix(0.517621 0.834389 -0.896546 0.481735 586.304 224.448)" stroke="white"/>
<rect x="-0.623478" y="0.359501" width="13.3198" height="14.2387" transform="matrix(-0.276671 0.960965 -0.970286 -0.241963 561.249 222.037)" stroke="white"/>
<rect x="-0.189462" y="0.658062" width="13.7864" height="13.7864" transform="matrix(0.517621 0.834389 -0.896546 0.481735 516.92 237.321)" stroke="white"/>
<rect x="-0.189462" y="0.658062" width="13.7864" height="13.7864" transform="matrix(0.517621 0.834389 -0.896546 0.481735 578.387 252.649)" stroke="white"/>
<rect x="-0.623478" y="0.359501" width="13.3198" height="14.2387" transform="matrix(-0.276671 0.960965 -0.970286 -0.241963 553.332 250.238)" stroke="white"/>
<rect x="-0.189462" y="0.658062" width="13.7864" height="13.7864" transform="matrix(0.517621 0.834389 -0.896546 0.481735 509.761 262.188)" stroke="white"/>
<rect x="-0.189462" y="0.658062" width="13.7864" height="13.7864" transform="matrix(0.517621 0.834389 -0.896546 0.481735 571.227 277.516)" stroke="white"/>
<rect x="-0.623478" y="0.359501" width="13.3198" height="14.2387" transform="matrix(-0.276671 0.960965 -0.970286 -0.241963 546.172 275.105)" stroke="white"/>
<rect x="-0.189462" y="0.658062" width="13.7864" height="13.7864" transform="matrix(0.517621 0.834389 -0.896546 0.481735 502.63 286.958)" stroke="white"/>
<rect x="-0.189462" y="0.658062" width="13.7864" height="13.7864" transform="matrix(0.517621 0.834389 -0.896546 0.481735 564.096 302.286)" stroke="white"/>
<rect x="-0.623478" y="0.359501" width="13.3198" height="14.2387" transform="matrix(-0.276671 0.960965 -0.970286 -0.241963 539.041 299.875)" stroke="white"/>
<rect x="-0.189462" y="0.658062" width="13.7864" height="13.7864" transform="matrix(0.517621 0.834389 -0.896546 0.481735 495.498 311.727)" stroke="white"/>
<rect x="-0.189462" y="0.658062" width="13.7864" height="13.7864" transform="matrix(0.517621 0.834389 -0.896546 0.481735 556.965 327.056)" stroke="white"/>
<rect x="-0.623478" y="0.359501" width="13.3198" height="14.2387" transform="matrix(-0.276671 0.960965 -0.970286 -0.241963 531.91 324.645)" stroke="white"/>
<rect x="-0.189462" y="0.658062" width="13.7864" height="13.7864" transform="matrix(0.517621 0.834389 -0.896546 0.481735 488.472 336.523)" stroke="white"/>
<rect x="-0.189462" y="0.658062" width="13.7864" height="13.7864" transform="matrix(0.517621 0.834389 -0.896546 0.481735 549.939 351.851)" stroke="white"/>
<rect x="-0.623478" y="0.359501" width="13.3198" height="14.2387" transform="matrix(-0.276671 0.960965 -0.970286 -0.241963 524.884 349.44)" stroke="white"/>
<rect x="-0.189462" y="0.658062" width="13.7864" height="13.7864" transform="matrix(0.517621 0.834389 -0.896546 0.481735 -4.87891 -11.4684)" stroke="white"/>
<rect x="-0.189462" y="0.658062" width="13.7864" height="13.7864" transform="matrix(0.517621 0.834389 -0.896546 0.481735 56.5878 3.85973)" stroke="white"/>
<rect x="-0.623478" y="0.359501" width="13.3198" height="14.2387" transform="matrix(-0.276671 0.960965 -0.970286 -0.241963 31.5327 1.4487)" stroke="white"/>
<rect x="-0.189462" y="0.658062" width="13.7864" height="13.7864" transform="matrix(0.517621 0.834389 -0.896546 0.481735 48.6635 31.3812)" stroke="white"/>
<rect x="-0.623478" y="0.359501" width="13.3198" height="14.2387" transform="matrix(-0.276671 0.960965 -0.970286 -0.241963 23.6084 28.9702)" stroke="white"/>
<rect x="-0.189462" y="0.658062" width="13.7864" height="13.7864" transform="matrix(0.517621 0.834389 -0.896546 0.481735 40.7413 58.9027)" stroke="white"/>
<rect x="-0.623478" y="0.359501" width="13.3198" height="14.2387" transform="matrix(-0.276671 0.960965 -0.970286 -0.241963 15.6862 56.4917)" stroke="white"/>
<rect x="-0.189462" y="0.658062" width="13.7864" height="13.7864" transform="matrix(0.517621 0.834389 -0.896546 0.481735 32.818 86.4247)" stroke="white"/>
<rect x="-0.623478" y="0.359501" width="13.3198" height="14.2387" transform="matrix(-0.276671 0.960965 -0.970286 -0.241963 7.76299 84.0136)" stroke="white"/>
<rect x="-0.189462" y="0.658062" width="13.7864" height="13.7864" transform="matrix(0.517621 0.834389 -0.896546 0.481735 24.9003 114.625)" stroke="white"/>
<rect x="-0.623478" y="0.359501" width="13.3198" height="14.2387" transform="matrix(-0.276671 0.960965 -0.970286 -0.241963 -0.154739 112.214)" stroke="white"/>
<rect x="-0.189462" y="0.658062" width="13.7864" height="13.7864" transform="matrix(0.517621 0.834389 -0.896546 0.481735 17.7414 139.493)" stroke="white"/>
<rect x="-0.189462" y="0.658062" width="13.7864" height="13.7864" transform="matrix(0.517621 0.834389 -0.896546 0.481735 10.6104 164.263)" stroke="white"/>
<rect x="-0.189462" y="0.658062" width="13.7864" height="13.7864" transform="matrix(0.517621 0.834389 -0.896546 0.481735 3.47863 189.032)" stroke="white"/>
<rect x="-0.189462" y="0.658062" width="13.7864" height="13.7864" transform="matrix(0.517621 0.834389 -0.896546 0.481735 -3.54835 213.828)" stroke="white"/>
<rect x="-0.189462" y="0.658062" width="13.7864" height="13.7864" transform="matrix(0.517621 0.834389 -0.896546 0.481735 95.4164 -15.9555)" stroke="white"/>
<rect x="-0.189462" y="0.658062" width="13.7864" height="13.7864" transform="matrix(0.517621 0.834389 -0.896546 0.481735 156.883 -0.627329)" stroke="white"/>
<rect x="-0.623478" y="0.359501" width="13.3198" height="14.2387" transform="matrix(-0.276671 0.960965 -0.970286 -0.241963 131.828 -3.03836)" stroke="white"/>
<rect x="-0.189462" y="0.658062" width="13.7864" height="13.7864" transform="matrix(0.517621 0.834389 -0.896546 0.481735 87.491 11.5665)" stroke="white"/>
<rect x="-0.189462" y="0.658062" width="13.7864" height="13.7864" transform="matrix(0.517621 0.834389 -0.896546 0.481735 148.958 26.8946)" stroke="white"/>
<rect x="-0.623478" y="0.359501" width="13.3198" height="14.2387" transform="matrix(-0.276671 0.960965 -0.970286 -0.241963 123.903 24.4836)" stroke="white"/>
<rect x="-0.189462" y="0.658062" width="13.7864" height="13.7864" transform="matrix(0.517621 0.834389 -0.896546 0.481735 79.5688 39.088)" stroke="white"/>
<rect x="-0.189462" y="0.658062" width="13.7864" height="13.7864" transform="matrix(0.517621 0.834389 -0.896546 0.481735 141.035 54.4161)" stroke="white"/>
<rect x="-0.623478" y="0.359501" width="13.3198" height="14.2387" transform="matrix(-0.276671 0.960965 -0.970286 -0.241963 115.98 52.0051)" stroke="white"/>
<rect x="-0.189462" y="0.658062" width="13.7864" height="13.7864" transform="matrix(0.517621 0.834389 -0.896546 0.481735 71.6445 66.609)" stroke="white"/>
<rect x="-0.189462" y="0.658062" width="13.7864" height="13.7864" transform="matrix(0.517621 0.834389 -0.896546 0.481735 133.111 81.9371)" stroke="white"/>
<rect x="-0.623478" y="0.359501" width="13.3198" height="14.2387" transform="matrix(-0.276671 0.960965 -0.970286 -0.241963 108.056 79.5261)" stroke="white"/>
<rect x="-0.189462" y="0.658062" width="13.7864" height="13.7864" transform="matrix(0.517621 0.834389 -0.896546 0.481735 63.7212 94.1315)" stroke="white"/>
<rect x="-0.189462" y="0.658062" width="13.7864" height="13.7864" transform="matrix(0.517621 0.834389 -0.896546 0.481735 125.188 109.46)" stroke="white"/>
<rect x="-0.623478" y="0.359501" width="13.3198" height="14.2387" transform="matrix(-0.276671 0.960965 -0.970286 -0.241963 100.133 107.049)" stroke="white"/>
<rect x="-0.189462" y="0.658062" width="13.7864" height="13.7864" transform="matrix(0.517621 0.834389 -0.896546 0.481735 55.8063 122.333)" stroke="white"/>
<rect x="-0.189462" y="0.658062" width="13.7864" height="13.7864" transform="matrix(0.517621 0.834389 -0.896546 0.481735 117.273 137.661)" stroke="white"/>
<rect x="-0.623478" y="0.359501" width="13.3198" height="14.2387" transform="matrix(-0.276671 0.960965 -0.970286 -0.241963 92.2179 135.25)" stroke="white"/>
<rect x="-0.189462" y="0.658062" width="13.7864" height="13.7864" transform="matrix(0.517621 0.834389 -0.896546 0.481735 48.6467 147.2)" stroke="white"/>
<rect x="-0.189462" y="0.658062" width="13.7864" height="13.7864" transform="matrix(0.517621 0.834389 -0.896546 0.481735 110.113 162.528)" stroke="white"/>
<rect x="-0.623478" y="0.359501" width="13.3198" height="14.2387" transform="matrix(-0.276671 0.960965 -0.970286 -0.241963 85.0583 160.117)" stroke="white"/>
<rect x="-0.189462" y="0.658062" width="13.7864" height="13.7864" transform="matrix(0.517621 0.834389 -0.896546 0.481735 41.5158 171.969)" stroke="white"/>
<rect x="-0.189462" y="0.658062" width="13.7864" height="13.7864" transform="matrix(0.517621 0.834389 -0.896546 0.481735 102.982 187.297)" stroke="white"/>
<rect x="-0.623478" y="0.359501" width="13.3198" height="14.2387" transform="matrix(-0.276671 0.960965 -0.970286 -0.241963 77.9274 184.886)" stroke="white"/>
<rect x="-0.189462" y="0.658062" width="13.7864" height="13.7864" transform="matrix(0.517621 0.834389 -0.896546 0.481735 34.3839 196.739)" stroke="white"/>
<rect x="-0.189462" y="0.658062" width="13.7864" height="13.7864" transform="matrix(0.517621 0.834389 -0.896546 0.481735 95.8506 212.067)" stroke="white"/>
<rect x="-0.623478" y="0.359501" width="13.3198" height="14.2387" transform="matrix(-0.276671 0.960965 -0.970286 -0.241963 70.7955 209.656)" stroke="white"/>
<rect x="-0.189462" y="0.658062" width="13.7864" height="13.7864" transform="matrix(0.517621 0.834389 -0.896546 0.481735 27.357 221.535)" stroke="white"/>
<rect x="-0.189462" y="0.658062" width="13.7864" height="13.7864" transform="matrix(0.517621 0.834389 -0.896546 0.481735 88.8237 236.863)" stroke="white"/>
<rect x="-0.623478" y="0.359501" width="13.3198" height="14.2387" transform="matrix(-0.276671 0.960965 -0.970286 -0.241963 63.7686 234.452)" stroke="white"/>
<rect x="-0.189462" y="0.658062" width="13.7864" height="13.7864" transform="matrix(0.517621 0.834389 -0.896546 0.481735 19.4337 249.056)" stroke="white"/>
<rect x="-0.189462" y="0.658062" width="13.7864" height="13.7864" transform="matrix(0.517621 0.834389 -0.896546 0.481735 80.9004 264.384)" stroke="white"/>
<rect x="-0.623478" y="0.359501" width="13.3198" height="14.2387" transform="matrix(-0.276671 0.960965 -0.970286 -0.241963 55.8453 261.973)" stroke="white"/>
<rect x="-0.189462" y="0.658062" width="13.7864" height="13.7864" transform="matrix(0.517621 0.834389 -0.896546 0.481735 11.5094 276.578)" stroke="white"/>
<rect x="-0.189462" y="0.658062" width="13.7864" height="13.7864" transform="matrix(0.517621 0.834389 -0.896546 0.481735 72.9761 291.906)" stroke="white"/>
<rect x="-0.623478" y="0.359501" width="13.3198" height="14.2387" transform="matrix(-0.276671 0.960965 -0.970286 -0.241963 47.921 289.495)" stroke="white"/>
<rect x="-0.189462" y="0.658062" width="13.7864" height="13.7864" transform="matrix(0.517621 0.834389 -0.896546 0.481735 3.58611 304.1)" stroke="white"/>
<rect x="-0.189462" y="0.658062" width="13.7864" height="13.7864" transform="matrix(0.517621 0.834389 -0.896546 0.481735 65.0528 319.428)" stroke="white"/>
<rect x="-0.623478" y="0.359501" width="13.3198" height="14.2387" transform="matrix(-0.276671 0.960965 -0.970286 -0.241963 39.9977 317.017)" stroke="white"/>
<rect x="-0.189462" y="0.658062" width="13.7864" height="13.7864" transform="matrix(0.517621 0.834389 -0.896546 0.481735 -4.336 331.621)" stroke="white"/>
<rect x="-0.189462" y="0.658062" width="13.7864" height="13.7864" transform="matrix(0.517621 0.834389 -0.896546 0.481735 57.1307 346.949)" stroke="white"/>
<rect x="-0.623478" y="0.359501" width="13.3198" height="14.2387" transform="matrix(-0.276671 0.960965 -0.970286 -0.241963 32.0756 344.538)" stroke="white"/>
</g>
</g>
</svg>
