<svg width="170" height="170" viewBox="0 0 170 170" fill="none" xmlns="http://www.w3.org/2000/svg">
<path d="M170 85C170 131.945 131.945 170 85 170C38.0552 170 0 131.945 0 85C0 38.0552 38.0552 0 85 0C131.945 0 170 38.0552 170 85Z" fill="#2F2E41"/>
<mask id="mask0" mask-type="alpha" maskUnits="userSpaceOnUse" x="0" y="0" width="170" height="170">
<path d="M170 85C170 131.945 131.945 170 85 170C38.0552 170 0 131.945 0 85C0 38.0552 38.0552 0 85 0C131.945 0 170 38.0552 170 85Z" fill="#2F2E41"/>
</mask>
<g mask="url(#mask0)">
<path d="M91.5156 70.5879C91.5156 59.0268 82.1099 49.6211 70.5488 49.6211V91.5547C82.1099 91.5547 91.5156 82.149 91.5156 70.5879Z" fill="#FFAC00"/>
<path d="M70.5488 98.1758C85.7852 98.1758 98.1367 85.8243 98.1367 70.5879C98.1367 55.3515 85.7852 43 70.5488 43C55.3125 43 42.9609 55.3515 42.9609 70.5879C42.9609 85.8243 55.3125 98.1758 70.5488 98.1758Z" fill="#FFE955"/>
<path d="M98.1367 70.5879C98.1367 55.3759 85.7608 43 70.5488 43V98.1758C85.7608 98.1758 98.1367 85.7999 98.1367 70.5879Z" fill="#FFE955"/>
<path d="M70.5488 91.5547C82.1285 91.5547 91.5156 82.1675 91.5156 70.5879C91.5156 59.0082 82.1285 49.6211 70.5488 49.6211C58.9692 49.6211 49.582 59.0082 49.582 70.5879C49.582 82.1675 58.9692 91.5547 70.5488 91.5547Z" fill="#FFAC00"/>
<path d="M73.7698 68.3685C73.3855 68.2328 72.994 68.0915 72.6022 67.9461V60.8149C73.2765 61.0634 73.6274 61.4013 73.6775 61.4523C74.4804 62.3581 75.8645 62.4486 76.7786 61.6521C77.6976 60.8516 77.7938 59.4574 76.9931 58.5384C76.2597 57.6964 74.745 56.6414 72.6022 56.2704V55.1387C72.6022 53.9199 71.6139 52.9316 70.3952 52.9316C69.1765 52.9316 68.1882 53.9199 68.1882 55.1387V56.5123C68.0522 56.5483 67.9149 56.5865 67.7766 56.6282C65.1606 57.4161 63.2069 59.6494 62.6779 62.4563C62.1926 65.0321 63.0288 67.5243 64.8604 68.9609C65.7249 69.6391 66.7785 70.2606 68.1882 70.9068V80.2273C67.1906 80.0872 66.4435 79.7491 65.2515 78.9693C64.2314 78.3015 62.8635 78.5882 62.1963 79.608C61.5291 80.6281 61.8147 81.9958 62.835 82.6632C64.9291 84.0331 66.4062 84.5145 68.1882 84.6685V86.0371C68.1882 87.2558 69.1765 88.2441 70.3952 88.2441C71.6139 88.2441 72.6022 87.2558 72.6022 86.0371V84.4564C76.2694 83.5262 78.6199 80.3937 79.1392 77.305C79.8071 73.3315 77.6493 69.7399 73.7698 68.3685V68.3685ZM67.5843 65.4879C67.0624 65.0787 66.8392 64.2096 67.0156 63.274C67.1434 62.5958 67.5146 61.8141 68.188 61.2974V65.913C67.9708 65.7737 67.7682 65.632 67.5843 65.4879V65.4879ZM74.7861 76.5734C74.585 77.7696 73.8435 79.0271 72.602 79.738V72.6488C74.9905 73.6548 74.9311 75.7106 74.7861 76.5734Z" fill="#FFE955"/>
<path d="M73.7711 68.3685C73.3869 68.2327 72.9953 68.0915 72.6036 67.946V60.8149C73.2778 61.0634 73.6287 61.4013 73.6788 61.4523C74.4818 62.3581 75.8658 62.4485 76.7799 61.652C77.6989 60.8515 77.7952 59.4574 76.9945 58.5383C76.2611 57.6964 74.7464 56.6414 72.6036 56.2704V55.1386C72.6036 53.9713 71.6963 53.0179 70.5488 52.9393V88.2364C71.6963 88.1578 72.6036 87.2044 72.6036 86.0371V84.4564C76.2708 83.5261 78.6213 80.3937 79.1406 77.305C79.8084 73.3314 77.6506 69.7399 73.7711 68.3685V68.3685ZM74.7874 76.5733C74.5864 77.7695 73.8448 79.0271 72.6034 79.738V72.6488C74.9918 73.6547 74.9324 75.7106 74.7874 76.5733Z" fill="#FFE955"/>
<path d="M154.5 125C169.688 125 182 112.688 182 97.5C182 82.3122 169.688 70 154.5 70C139.312 70 127 82.3122 127 97.5C127 112.688 139.312 125 154.5 125Z" fill="#FFE955"/>
<path d="M182 97.5C182 82.3365 169.664 70 154.5 70V125C169.664 125 182 112.664 182 97.5Z" fill="#FFE955"/>
<path d="M154.502 118.4C166.044 118.4 175.402 109.043 175.402 97.5001C175.402 85.9573 166.044 76.6001 154.502 76.6001C142.959 76.6001 133.602 85.9573 133.602 97.5001C133.602 109.043 142.959 118.4 154.502 118.4Z" fill="#FFAC00"/>
<path d="M157.712 95.2876C157.329 95.1523 156.939 95.0115 156.548 94.8665V87.7581C157.221 88.0058 157.57 88.3426 157.62 88.3934C158.421 89.2963 159.8 89.3865 160.711 88.5925C161.628 87.7946 161.723 86.4049 160.925 85.4888C160.194 84.6495 158.684 83.5979 156.548 83.2281V82.0999C156.548 80.8851 155.563 79.8999 154.348 79.8999C153.134 79.8999 152.148 80.8851 152.148 82.0999V83.4692C152.013 83.505 151.876 83.5431 151.738 83.5847C149.13 84.3701 147.183 86.5963 146.656 89.3942C146.172 91.9618 147.005 94.4461 148.831 95.8781C149.693 96.5541 150.743 97.1736 152.148 97.8178V107.109C151.154 106.969 150.409 106.632 149.221 105.855C148.204 105.189 146.841 105.475 146.176 106.491C145.511 107.508 145.795 108.871 146.812 109.537C148.9 110.902 150.372 111.382 152.148 111.536V112.9C152.148 114.115 153.134 115.1 154.348 115.1C155.563 115.1 156.548 114.115 156.548 112.9V111.324C160.204 110.397 162.547 107.275 163.065 104.196C163.73 100.235 161.579 96.6547 157.712 95.2876V95.2876ZM151.546 92.4161C151.026 92.0083 150.804 91.1419 150.98 90.2093C151.107 89.5333 151.477 88.754 152.148 88.239V92.8399C151.932 92.701 151.73 92.5598 151.546 92.4161V92.4161ZM158.725 103.466C158.525 104.659 157.786 105.912 156.548 106.621V99.5543C158.929 100.557 158.87 102.606 158.725 103.466Z" fill="#FFE955"/>
<path d="M157.712 95.2877C157.329 95.1524 156.939 95.0116 156.548 94.8666V87.7582C157.22 88.0059 157.57 88.3427 157.62 88.3936C158.42 89.2964 159.8 89.3866 160.711 88.5927C161.627 87.7947 161.723 86.405 160.925 85.4889C160.194 84.6496 158.684 83.598 156.548 83.2282V82.1C156.548 80.9364 155.644 79.986 154.5 79.9077V115.092C155.644 115.014 156.548 114.064 156.548 112.9V111.324C160.204 110.397 162.547 107.275 163.064 104.196C163.73 100.235 161.579 96.6548 157.712 95.2877V95.2877ZM158.725 103.466C158.525 104.659 157.785 105.912 156.548 106.621V99.5544C158.929 100.557 158.87 102.606 158.725 103.466Z" fill="#FFE955"/>
<path d="M112.054 105.117C108.443 103.865 104.58 104.996 102.214 107.999L87.3741 126.834C85.4787 129.24 82.6354 130.619 79.5729 130.619H78.1631C83.2807 130.619 87.4542 126.5 87.5416 121.402C87.6315 116.155 83.2454 111.859 77.9967 111.859H54.607C46.8074 105.224 35.4047 104.676 26.9776 110.695L23.0977 113.466V149.379H48.4785H83.1967C90.8864 149.379 98.0548 145.58 102.372 139.217L116.475 118.435C117.473 116.965 118 115.248 118 113.471C118 109.648 115.666 106.369 112.054 105.117V105.117Z" fill="#FFD5B2"/>
<path d="M50.0234 133.93C50.0234 135.758 51.5057 137.24 53.334 137.24H78.1631C86.9861 137.24 94.1641 130.062 94.1641 121.239C94.1641 120.311 94.08 119.402 93.9275 118.516L87.3739 126.834C85.4785 129.24 82.6352 130.619 79.5727 130.619H78.1631H53.334C51.5057 130.619 50.0234 132.101 50.0234 133.93V133.93Z" fill="#FAC394"/>
<path d="M21.5527 156H8.31055C6.48224 156 5 154.518 5 152.689V108.549C5 106.721 6.48224 105.238 8.31055 105.238H21.5527C23.381 105.238 24.8633 106.721 24.8633 108.549V152.689C24.8633 154.518 23.381 156 21.5527 156Z" fill="#E1245A"/>
</g>
<circle cx="125.5" cy="64.5" r="2.5" fill="#FFAC00"/>
<circle cx="112" cy="53" r="6" fill="#FFE955"/>
</svg>
