<svg width="170" height="170" viewBox="0 0 170 170" fill="none" xmlns="http://www.w3.org/2000/svg">
<path d="M170 85C170 131.945 131.945 170 85 170C38.0552 170 0 131.945 0 85C0 38.0552 38.0552 0 85 0C131.945 0 170 38.0552 170 85Z" fill="#E1245A"/>
<path d="M100.21 130.592L109.317 143.812L82.9291 145.932L60.666 143.812L67.7154 130.592H100.21Z" fill="#3A3850"/>
<path d="M122.356 149.048C122.356 151.929 120.021 154.264 117.14 154.264H54.2963C51.4155 154.264 49.0801 151.929 49.0801 149.048C49.0801 146.167 51.4155 143.832 54.2963 143.832H117.14C120.021 143.832 122.356 146.167 122.356 149.048V149.048Z" fill="black"/>
<path d="M147 57.7733V123.227C147 128.072 142.568 132 137.101 132H33.8994C28.4325 132 24 128.072 24 123.227V57.9927C24 53.027 28.5438 49 34.1469 49H137.101C142.568 49 147 52.9283 147 57.7733Z" fill="black"/>
<path d="M137.725 128H33.2752C30.3617 128 28 125.888 28 123.283V57.717C28 55.1118 30.3617 53 33.2752 53H137.725C140.638 53 143 55.1118 143 57.717V123.283C143 125.888 140.638 128 137.725 128Z" fill="#F5F5F5"/>
<path d="M58.5 103C65.4036 103 71 97.1797 71 90C71 82.8203 65.4036 77 58.5 77C51.5964 77 46 82.8203 46 90C46 97.1797 51.5964 103 58.5 103Z" fill="#E1245A"/>
<path d="M55 90.5001V86.4488C55 85.3352 56.2164 84.6392 57.1896 85.196L60.7299 87.2216L64.2701 89.2472C65.2433 89.804 65.2433 91.196 64.2701 91.7528L60.7299 93.7784L57.1896 95.804C56.2164 96.3608 55 95.6648 55 94.5512V90.5001Z" fill="#F5F5F5"/>
<rect x="121" y="19" width="2" height="10" rx="1" fill="white"/>
<rect x="127" y="23" width="2" height="10" rx="1" transform="rotate(90 127 23)" fill="white"/>
<circle cx="36" cy="29" r="5" fill="#FFE955"/>
<path d="M132.276 69.9805H88.4902C87.115 69.9805 86 68.8658 86 67.4902C86 66.1146 87.115 65 88.4902 65H132.276C133.651 65 134.766 66.1146 134.766 67.4902C134.766 68.8658 133.651 69.9805 132.276 69.9805Z" fill="#3D64FF"/>
<path d="M132.276 78.1112H88.4902C87.115 78.1112 86 76.9966 86 75.621C86 74.2454 87.115 73.1307 88.4902 73.1307H132.276C133.651 73.1307 134.766 74.2454 134.766 75.621C134.766 76.9962 133.651 78.1112 132.276 78.1112Z" fill="#3D64FF"/>
<path d="M132.276 86.2416H88.4902C87.115 86.2416 86 85.1269 86 83.7513C86 82.3757 87.115 81.2611 88.4902 81.2611H132.276C133.651 81.2611 134.766 82.3757 134.766 83.7513C134.766 85.1269 133.651 86.2416 132.276 86.2416Z" fill="#3D64FF"/>
<path d="M132.276 99.8619H88.4902C87.115 99.8619 86 98.7473 86 97.3717C86 95.9961 87.115 94.8815 88.4902 94.8815H132.276C133.651 94.8815 134.766 95.9961 134.766 97.3717C134.766 98.7473 133.651 99.8619 132.276 99.8619Z" fill="#0EB582"/>
<path d="M132.276 107.992H88.4902C87.115 107.992 86 106.878 86 105.502C86 104.126 87.115 103.012 88.4902 103.012H132.276C133.651 103.012 134.766 104.126 134.766 105.502C134.766 106.877 133.651 107.992 132.276 107.992Z" fill="#0EB582"/>
<path d="M110.247 116.123H88.4902C87.115 116.123 86 115.008 86 113.632C86 112.257 87.115 111.142 88.4902 111.142H110.247C111.622 111.142 112.737 112.257 112.737 113.632C112.737 115.008 111.622 116.123 110.247 116.123Z" fill="#0EB582"/>
<circle cx="133.5" cy="143.5" r="3.5" fill="white"/>
<circle cx="11.5" cy="85.5" r="3.5" fill="white"/>
</svg>
