<svg width="170" height="170" viewBox="0 0 170 170" fill="none" xmlns="http://www.w3.org/2000/svg">
<path d="M170 85C170 131.945 131.945 170 85 170C38.0552 170 0 131.945 0 85C0 38.0552 38.0552 0 85 0C131.945 0 170 38.0552 170 85Z" fill="#2F2E41"/>
<g clip-path="url(#clip0)">
<mask id="mask0" mask-type="alpha" maskUnits="userSpaceOnUse" x="0" y="0" width="170" height="170">
<path d="M170 85C170 131.945 131.945 170 85 170C38.0552 170 0 131.945 0 85C0 38.0552 38.0552 0 85 0C131.945 0 170 38.0552 170 85Z" fill="#2F2E41"/>
</mask>
<g mask="url(#mask0)">
<path d="M17.6002 94.5269V138.093H1.62567C0.727713 138.093 0 137.365 0 136.468V96.1525C0 95.2546 0.72791 94.5269 1.62567 94.5269H17.6002Z" fill="#E1245A"/>
<path d="M17.6003 94.5276H6.42578V138.094H17.6003V94.5276Z" fill="#D30540"/>
<path d="M100.999 90.0946V93.9531C100.999 97.0242 98.5097 99.5137 95.4386 99.5137H92.279C94.9528 99.7048 97.0686 101.93 97.0686 104.654V108.964C97.0686 111.814 94.7587 114.124 91.9092 114.124H87.4865C90.06 114.124 92.1443 116.208 92.1443 118.781V122.496C92.1443 125.068 90.0588 127.154 87.4865 127.154H83.2016C85.7752 127.154 87.8595 129.241 87.8595 131.815V134.588C87.8595 137.159 85.775 139.246 83.2016 139.246H20.6211V94.2066C27.8461 94.2066 33.6544 93.4795 38.3091 92.2194C53.2074 88.1977 56.3074 78.7661 56.3074 70.4941C56.3074 66.2186 56.3074 55.2697 56.3074 55.2697C56.3074 54.2824 56.7087 53.3859 57.3543 52.7371C58.0031 52.0882 58.8965 51.687 59.887 51.687C66.2626 51.687 71.4282 56.8526 71.4282 63.2251V78.1389C71.4282 81.6688 74.2898 84.5302 77.8194 84.5302H95.4353C98.5081 84.5309 100.999 87.0218 100.999 90.0946Z" fill="#FFD5B2"/>
<path d="M37.0867 92.5298C32.6478 93.5976 27.2285 94.2071 20.6211 94.2071V139.247H37.0867V92.5298Z" fill="#FAC394"/>
<path d="M31.4833 143.313H12.3874C11.4894 143.313 10.7617 142.585 10.7617 141.688V90.9336C10.7617 90.0357 11.4896 89.308 12.3874 89.308H31.4831C32.381 89.308 33.1088 90.0359 33.1088 90.9336V141.688C33.109 142.585 32.381 143.313 31.4833 143.313Z" fill="#E1245A"/>
<path d="M21.9362 138.842C21.0945 138.842 20.4121 138.16 20.4121 137.318V136.804C20.4121 135.963 21.0945 135.28 21.9362 135.28C22.7779 135.28 23.4603 135.963 23.4603 136.804V137.318C23.4603 138.16 22.7779 138.842 21.9362 138.842Z" fill="#D7F4F9"/>
<path d="M21.9362 133.031C21.0945 133.031 20.4121 132.348 20.4121 131.506V130.993C20.4121 130.151 21.0945 129.469 21.9362 129.469C22.7779 129.469 23.4603 130.151 23.4603 130.993V131.506C23.4603 132.348 22.7779 133.031 21.9362 133.031Z" fill="#D7F4F9"/>
</g>
<rect x="93.0156" y="57.1246" width="4" height="17" rx="2" transform="rotate(84.7938 93.0156 57.1246)" fill="white"/>
</g>
<rect x="77.5781" y="33.3895" width="4" height="17" rx="2" transform="rotate(31.7658 77.5781 33.3895)" fill="white"/>
<rect x="45.4121" y="33.8463" width="4" height="17" rx="2" transform="rotate(-30.7151 45.4121 33.8463)" fill="white"/>
<rect x="34.0371" y="60.8983" width="4" height="17" rx="2" transform="rotate(-82.2278 34.0371 60.8983)" fill="white"/>
<path fill-rule="evenodd" clip-rule="evenodd" d="M104.5 155C105.881 155 107 153.881 107 152.5C107 151.119 105.881 150 104.5 150C103.119 150 102 151.119 102 152.5C102 153.881 103.119 155 104.5 155ZM104.5 156C106.433 156 108 154.433 108 152.5C108 150.567 106.433 149 104.5 149C102.567 149 101 150.567 101 152.5C101 154.433 102.567 156 104.5 156Z" fill="white"/>
<path fill-rule="evenodd" clip-rule="evenodd" d="M142.5 39C143.881 39 145 37.8807 145 36.5C145 35.1193 143.881 34 142.5 34C141.119 34 140 35.1193 140 36.5C140 37.8807 141.119 39 142.5 39ZM142.5 40C144.433 40 146 38.433 146 36.5C146 34.567 144.433 33 142.5 33C140.567 33 139 34.567 139 36.5C139 38.433 140.567 40 142.5 40Z" fill="white"/>
<path fill-rule="evenodd" clip-rule="evenodd" d="M123 86C125.761 86 128 83.7614 128 81C128 78.2386 125.761 76 123 76C120.239 76 118 78.2386 118 81C118 83.7614 120.239 86 123 86ZM123 87C126.314 87 129 84.3137 129 81C129 77.6863 126.314 75 123 75C119.686 75 117 77.6863 117 81C117 84.3137 119.686 87 123 87Z" fill="white"/>
<rect x="160" y="85" width="2" height="10" rx="1" fill="white"/>
<rect x="166" y="89" width="2" height="10" rx="1" transform="rotate(90 166 89)" fill="white"/>
<rect x="67" y="148" width="2" height="10" rx="1" fill="white"/>
<rect x="73" y="152" width="2" height="10" rx="1" transform="rotate(90 73 152)" fill="white"/>
<circle cx="132" cy="126" r="5" fill="white"/>
<circle cx="92" cy="19" r="5" fill="white"/>
<defs>
<clipPath id="clip0">
<rect width="101" height="101" fill="white" transform="translate(0 47)"/>
</clipPath>
</defs>
</svg>
