<svg width="24" height="24" viewBox="0 0 24 24" fill="none" xmlns="http://www.w3.org/2000/svg">
<path d="M4 5V16H20V5H4ZM2 4.007C2 3.451 2.455 3 2.992 3H21.008C21.556 3 22 3.449 22 4.007V18H2V4.007ZM1 19H23V21H1V19Z" fill="white"/>
<path d="M14.8571 16H14V15.1429C14 14.8019 13.8645 14.4748 13.6234 14.2337C13.3823 13.9926 13.0553 13.8571 12.7143 13.8571H10.1429C9.80186 13.8571 9.47484 13.9926 9.23372 14.2337C8.9926 14.4748 8.85714 14.8019 8.85714 15.1429V16H8V15.1429C8 14.5745 8.22576 14.0295 8.62763 13.6276C9.02949 13.2258 9.57454 13 10.1429 13H12.7143C13.2826 13 13.8277 13.2258 14.2295 13.6276C14.6314 14.0295 14.8571 14.5745 14.8571 15.1429V16ZM11.4286 12.1429C11.0909 12.1429 10.7565 12.0763 10.4445 11.9471C10.1325 11.8179 9.84908 11.6285 9.6103 11.3897C9.37152 11.1509 9.18211 10.8675 9.05288 10.5555C8.92365 10.2435 8.85714 9.90911 8.85714 9.57143C8.85714 9.23374 8.92365 8.89937 9.05288 8.58739C9.18211 8.27541 9.37152 7.99193 9.6103 7.75315C9.84908 7.51437 10.1325 7.32496 10.4445 7.19574C10.7565 7.06651 11.0909 7 11.4286 7C12.1106 7 12.7646 7.27092 13.2468 7.75315C13.7291 8.23539 14 8.88944 14 9.57143C14 10.2534 13.7291 10.9075 13.2468 11.3897C12.7646 11.8719 12.1106 12.1429 11.4286 12.1429ZM11.4286 11.2857C11.8832 11.2857 12.3193 11.1051 12.6408 10.7836C12.9622 10.4621 13.1429 10.0261 13.1429 9.57143C13.1429 9.11677 12.9622 8.68074 12.6408 8.35925C12.3193 8.03775 11.8832 7.85714 11.4286 7.85714C10.9739 7.85714 10.5379 8.03775 10.2164 8.35925C9.8949 8.68074 9.71429 9.11677 9.71429 9.57143C9.71429 10.0261 9.8949 10.4621 10.2164 10.7836C10.5379 11.1051 10.9739 11.2857 11.4286 11.2857Z" fill="white"/>
</svg>
