<svg width="56" height="56" viewBox="0 0 56 56" fill="none" xmlns="http://www.w3.org/2000/svg">
<path d="M28.3141 12.6363C28.925 12.6363 29.4202 12.141 29.4202 11.5302C29.4202 10.9193 28.925 10.4241 28.3141 10.4241C27.7032 10.4241 27.208 10.9193 27.208 11.5302C27.208 12.141 27.7032 12.6363 28.3141 12.6363Z" fill="white"/>
<path d="M22.4547 32.5465C22.4547 28.8871 19.4776 25.9099 15.8182 25.9099C12.1588 25.9099 9.18164 28.8871 9.18164 32.5465V33.6525C9.18164 34.2633 9.67695 34.7586 10.2877 34.7586H21.3486C21.9594 34.7586 22.4547 34.2633 22.4547 33.6525V32.5465ZM11.3938 32.5465C11.3938 30.1069 13.3786 28.1221 15.8182 28.1221C18.2578 28.1221 20.2425 30.1069 20.2425 32.5465H11.3938Z" fill="white"/>
<path d="M20.2413 21.4864C20.2413 19.0468 18.2565 17.062 15.8169 17.062C13.3773 17.062 11.3926 19.0468 11.3926 21.4864C11.3926 23.926 13.3773 25.9107 15.8169 25.9107C18.2565 25.9107 20.2413 23.926 20.2413 21.4864ZM15.8169 23.6986C14.5971 23.6986 13.6048 22.7062 13.6048 21.4864C13.6048 20.2666 14.5971 19.2742 15.8169 19.2742C17.0367 19.2742 18.0291 20.2666 18.0291 21.4864C18.0291 22.7062 17.0367 23.6986 15.8169 23.6986Z" fill="white"/>
<path d="M40.8162 25.9099C37.1568 25.9099 34.1797 28.8871 34.1797 32.5465V33.6525C34.1797 34.2633 34.675 34.7586 35.2858 34.7586H46.3467C46.9575 34.7586 47.4528 34.2633 47.4528 33.6525V32.5465C47.4528 28.8871 44.4756 25.9099 40.8162 25.9099ZM36.3919 32.5465C36.3919 30.1069 38.3766 28.1221 40.8162 28.1221C43.2558 28.1221 45.2406 30.1069 45.2406 32.5465H36.3919Z" fill="white"/>
<path d="M45.2394 21.4864C45.2394 19.0468 43.2546 17.062 40.815 17.062C38.3754 17.062 36.3906 19.0468 36.3906 21.4864C36.3906 23.926 38.3754 25.9107 40.815 25.9107C43.2546 25.9107 45.2394 23.926 45.2394 21.4864ZM40.815 23.6986C39.5952 23.6986 38.6028 22.7062 38.6028 21.4864C38.6028 20.2666 39.5952 19.2742 40.815 19.2742C42.0348 19.2742 43.0272 20.2666 43.0272 21.4864C43.0272 22.7062 42.0348 23.6986 40.815 23.6986Z" fill="white"/>
<path d="M28.3141 48.0315C28.925 48.0315 29.4202 47.5363 29.4202 46.9254C29.4202 46.3145 28.925 45.8193 28.3141 45.8193C27.7032 45.8193 27.208 46.3145 27.208 46.9254C27.208 47.5363 27.7032 48.0315 28.3141 48.0315Z" fill="white"/>
<path d="M55.5258 39.1077H53.3886V13.7426C53.3886 11.8715 51.8664 10.3494 49.9953 10.3494H33.796C33.2522 7.82373 31.0019 5.925 28.3159 5.925C25.63 5.925 23.3797 7.82373 22.8358 10.3494H6.63655C4.76543 10.3494 3.24327 11.8715 3.24327 13.7426V39.1077H1.10609C0.453886 39.1077 -0.075 39.6366 -0.075 40.2888C-0.075 44.5995 3.43193 48.1065 7.74264 48.1065H23.3385C23.9907 48.1065 24.5196 47.5776 24.5196 46.9254C24.5196 46.2732 23.9907 45.7443 23.3385 45.7443H7.74264C5.14014 45.7443 2.95704 43.9121 2.41597 41.4699H20.1665V42.501C20.1665 43.1532 20.6953 43.6821 21.3476 43.6821H35.2843C35.9365 43.6821 36.4654 43.1532 36.4654 42.501V41.4688H54.2159C53.6748 43.9121 51.4917 45.7443 48.8892 45.7443H33.2933C32.6411 45.7443 32.1122 46.2732 32.1122 46.9254C32.1122 47.5776 32.6411 48.1065 33.2933 48.1065H48.8892C53.1999 48.1065 56.7069 44.5995 56.7069 40.2888C56.7069 39.6366 56.178 39.1077 55.5258 39.1077ZM28.3159 8.28718C30.1042 8.28718 31.5592 9.74218 31.5592 11.5305C31.5592 13.3187 30.1042 14.7737 28.3159 14.7737C26.5277 14.7737 25.0727 13.3187 25.0727 11.5305C25.0727 9.74218 26.5277 8.28718 28.3159 8.28718ZM21.3476 39.1077H5.60545V13.7426C5.60545 13.1742 6.06807 12.7115 6.63655 12.7115H22.8358C23.2976 14.8564 24.99 16.5487 27.1348 17.0105V41.3199H22.5286V40.2888C22.5286 39.6366 21.9998 39.1077 21.3476 39.1077ZM35.2843 39.1077C34.6321 39.1077 34.1032 39.6366 34.1032 40.2888V41.3199H29.497V17.0105C31.6419 16.5487 33.3342 14.8564 33.796 12.7115H49.9953C50.5638 12.7115 51.0264 13.1742 51.0264 13.7426V39.1077H35.2843Z" fill="white" stroke="#2F2E41" stroke-width="0.15"/>
</svg>
