<svg width="1281" height="230" viewBox="0 0 1281 230" fill="none" xmlns="http://www.w3.org/2000/svg">
<rect width="1281" height="230" fill="#E1245A"/>
<g opacity="0.4">
<mask id="mask0" mask-type="alpha" maskUnits="userSpaceOnUse" x="562" y="0" width="719" height="230">
<rect x="562" width="719" height="230" fill="#E1245A"/>
</mask>
<g mask="url(#mask0)">
<path d="M1424.75 -1.74894C1424.52 -2.67155 1424.04 -3.51337 1423.37 -4.18036C1422.69 -4.84735 1421.85 -5.31324 1420.92 -5.52596L1272.64 -39.6682C1271.88 -39.8417 1271.1 -39.8417 1270.35 -39.6682L1122.06 -5.52596C1121.13 -5.31341 1120.29 -4.84723 1119.61 -4.1796C1118.93 -3.51197 1118.46 -2.66923 1118.23 -1.74569C1118.01 -0.822153 1118.04 0.145727 1118.34 1.04964C1118.63 1.95355 1119.17 2.75782 1119.89 3.37243L1133.43 14.8699V73.5179C1129.04 74.6519 1125.15 77.216 1122.37 80.807C1119.59 84.3979 1118.08 88.812 1118.08 93.3549C1118.08 97.8978 1119.59 102.312 1122.37 105.903C1125.15 109.494 1129.04 112.058 1133.43 113.192V129.204C1133.43 130.563 1133.97 131.865 1134.93 132.826C1135.89 133.786 1137.19 134.326 1138.54 134.326C1139.9 134.326 1141.2 133.786 1142.16 132.826C1143.12 131.865 1143.66 130.563 1143.66 129.204V113.192C1148.05 112.058 1151.94 109.494 1154.72 105.903C1157.5 102.312 1159 97.8978 1159 93.3549C1159 88.812 1157.5 84.3979 1154.72 80.807C1151.94 77.216 1148.05 74.6519 1143.66 73.5179V23.5609L1174.34 49.6312V72.8694C1174.34 73.6633 1174.52 74.4464 1174.87 75.1568C1175.23 75.8672 1175.74 76.4854 1176.38 76.9627C1177.01 77.44 1177.75 77.7632 1178.53 77.9068C1179.3 78.0505 1180.11 78.0106 1180.87 77.7904C1180.95 77.7661 1182.54 77.3122 1185.34 76.5888C1184.83 80.4488 1184.57 84.3389 1184.56 88.2335V88.366C1170.25 89.7827 1159 102.957 1159 118.962C1159 135.906 1171.61 149.69 1187.12 149.69C1191.32 149.695 1195.46 148.682 1199.18 146.738C1207.11 158.672 1217.86 168.459 1230.47 175.228C1243.09 181.997 1257.18 185.54 1271.49 185.54C1285.8 185.54 1299.89 181.997 1312.51 175.228C1325.12 168.459 1335.87 158.672 1343.8 146.738C1347.53 148.682 1351.66 149.695 1355.86 149.69C1371.37 149.69 1383.98 135.906 1383.98 118.962C1383.98 102.957 1372.73 89.7827 1358.42 88.366V88.2335C1358.42 84.3392 1358.16 80.4492 1357.64 76.5895C1360.44 77.3128 1362.03 77.7661 1362.11 77.7904C1362.88 78.0105 1363.68 78.0503 1364.46 77.9066C1365.24 77.7629 1365.97 77.4396 1366.61 76.9624C1367.24 76.4851 1367.75 75.8669 1368.11 75.1566C1368.46 74.4463 1368.64 73.6633 1368.64 72.8694V49.6312L1423.09 3.36602C1423.81 2.75138 1424.35 1.94752 1424.64 1.04425C1424.93 0.140975 1424.97 -0.82611 1424.75 -1.74894ZM1148.77 93.3549C1148.77 95.3807 1148.17 97.361 1147.05 99.0455C1145.92 100.73 1144.33 102.043 1142.46 102.818C1140.59 103.593 1138.53 103.796 1136.55 103.401C1134.56 103.006 1132.74 102.03 1131.31 100.598C1129.88 99.1651 1128.91 97.3401 1128.51 95.3532C1128.12 93.3663 1128.32 91.3068 1129.09 89.4352C1129.87 87.5636 1131.18 85.9638 1132.86 84.8384C1134.54 83.7129 1136.52 83.1122 1138.54 83.1122C1141.25 83.1154 1143.85 84.1955 1145.77 86.1157C1147.69 88.0359 1148.77 90.6393 1148.77 93.3549V93.3549ZM1358.42 39.569C1344 35.9014 1308.02 27.8014 1271.49 27.8014C1234.96 27.8014 1198.98 35.9014 1184.56 39.569V23.5289C1196.3 20.465 1234.15 11.413 1271.49 11.413C1308.83 11.413 1346.68 20.465 1358.42 23.5289V39.569ZM1187.12 139.447C1177.25 139.447 1169.22 130.258 1169.22 118.962C1169.22 108.659 1175.9 100.112 1184.56 98.6882C1184.58 112.313 1187.81 125.742 1193.99 137.881C1191.84 138.912 1189.5 139.447 1187.12 139.447V139.447ZM1271.49 175.297C1251.16 175.274 1231.66 167.173 1217.28 152.771C1202.9 138.369 1194.81 118.843 1194.79 98.4763V98.2842C1214.66 96.8483 1230.68 87.4967 1236.47 83.6819C1256.39 90.43 1291.34 98.0217 1348.19 98.4558V98.4763C1348.17 118.843 1340.08 138.369 1325.7 152.771C1311.32 167.173 1291.83 175.274 1271.49 175.297V175.297ZM1373.76 118.962C1373.76 130.258 1365.73 139.447 1355.86 139.447C1353.48 139.447 1351.14 138.912 1348.99 137.881C1355.17 125.742 1358.4 112.313 1358.42 98.6882C1367.08 100.112 1373.76 108.659 1373.76 118.962ZM1348.19 88.213C1290.37 87.7694 1256.11 79.8453 1237.42 73.169C1236.62 72.8845 1235.77 72.8017 1234.93 72.9282C1234.1 73.0547 1233.31 73.3864 1232.63 73.8937C1232.45 74.0268 1215.98 86.2157 1194.79 88.0069C1194.81 83.3057 1195.25 78.6154 1196.11 73.9942C1213.26 70.1212 1242.52 64.6752 1271.49 64.6752C1300.46 64.6752 1329.72 70.1205 1346.87 73.9936C1347.75 78.6823 1348.19 83.4425 1348.19 88.213V88.213ZM1271.49 54.4325C1234.96 54.4325 1198.98 62.5319 1184.56 66.1995V50.1606C1196.29 47.098 1234.14 38.0441 1271.49 38.0441C1308.84 38.0441 1346.69 47.098 1358.42 50.1606V66.1995C1344 62.5319 1308.02 54.4325 1271.49 54.4325ZM1368.64 36.201V19.6072C1368.64 18.4968 1368.28 17.4166 1367.62 16.5291C1366.95 15.6416 1366.02 14.9951 1364.95 14.6868C1363.04 14.135 1317.7 1.17024 1271.49 1.17024C1225.28 1.17024 1179.94 14.135 1178.03 14.6868C1176.97 14.9951 1176.03 15.6416 1175.36 16.5291C1174.7 17.4166 1174.34 18.4968 1174.34 19.6072V36.201L1134.29 2.1657L1271.49 -29.4242L1408.69 2.1657L1368.64 36.201Z" fill="white"/>
<path d="M1245.93 121.5C1248.75 121.5 1251.04 119.207 1251.04 116.378C1251.04 113.55 1248.75 111.257 1245.93 111.257C1243.1 111.257 1240.81 113.55 1240.81 116.378C1240.81 119.207 1243.1 121.5 1245.93 121.5Z" fill="white"/>
<path d="M1266.38 131.742H1276.61C1277.96 131.742 1279.26 131.203 1280.22 130.242C1281.18 129.282 1281.72 127.979 1281.72 126.621C1281.72 125.263 1281.18 123.96 1280.22 123C1279.26 122.039 1277.96 121.5 1276.61 121.5H1271.49V116.378C1271.49 115.02 1270.95 113.717 1269.99 112.757C1269.04 111.796 1267.73 111.257 1266.38 111.257C1265.02 111.257 1263.72 111.796 1262.76 112.757C1261.8 113.717 1261.27 115.02 1261.27 116.378V126.621C1261.27 127.979 1261.8 129.282 1262.76 130.242C1263.72 131.203 1265.02 131.742 1266.38 131.742Z" fill="white"/>
<path d="M1299.03 132.136C1298.41 131.877 1297.74 131.743 1297.07 131.742C1296.4 131.74 1295.73 131.871 1295.11 132.127C1294.49 132.384 1293.93 132.76 1293.45 133.234C1292.97 133.709 1292.6 134.273 1292.34 134.894C1292.29 135.016 1287.08 147.106 1271.49 147.106C1256.18 147.106 1250.88 135.431 1250.63 134.862C1250.1 133.624 1249.1 132.647 1247.85 132.144C1246.6 131.64 1245.2 131.651 1243.96 132.174C1242.72 132.697 1241.73 133.689 1241.21 134.936C1240.7 136.182 1240.7 137.582 1241.2 138.831C1241.52 139.589 1249.16 157.349 1271.49 157.349C1293.82 157.349 1301.46 139.589 1301.78 138.833C1302.04 138.212 1302.17 137.547 1302.17 136.874C1302.17 136.201 1302.04 135.535 1301.79 134.913C1301.53 134.291 1301.16 133.726 1300.68 133.249C1300.21 132.773 1299.65 132.394 1299.03 132.136Z" fill="white"/>
<path d="M1172.87 268.66C1178.1 264.856 1182.44 259.959 1185.6 254.308C1188.76 248.656 1190.65 242.385 1191.15 235.928C1191.65 229.472 1190.75 222.983 1188.5 216.912C1186.24 210.841 1182.7 205.332 1178.12 200.766C1174.12 196.778 1169.37 193.633 1164.14 191.516C1158.91 189.399 1153.31 188.353 1147.67 188.441C1124.25 188.775 1105.24 208.579 1105.28 232.587C1105.28 239.634 1106.95 246.581 1110.15 252.855C1113.36 259.128 1118.01 264.548 1123.71 268.667C1124.01 268.888 1124.24 269.175 1124.4 269.505C1124.56 269.835 1124.64 270.199 1124.63 270.565V276.315C1122.5 277.549 1120.76 279.37 1119.62 281.563C1118.49 283.756 1118.01 286.228 1118.23 288.688C1118.46 291.147 1119.39 293.489 1120.9 295.438C1122.42 297.386 1124.46 298.858 1126.78 299.68V304.725C1126.79 308.151 1128.15 311.435 1130.56 313.858C1132.98 316.28 1136.26 317.642 1139.68 317.646H1156.88C1160.3 317.642 1163.58 316.28 1166 313.857C1168.42 311.435 1169.78 308.151 1169.78 304.725V299.678C1172.11 298.856 1174.15 297.383 1175.67 295.435C1177.18 293.487 1178.11 291.144 1178.33 288.685C1178.56 286.226 1178.08 283.753 1176.94 281.56C1175.81 279.367 1174.07 277.546 1171.93 276.312V270.565C1171.93 270.196 1172.01 269.831 1172.17 269.5C1172.33 269.168 1172.57 268.881 1172.87 268.66V268.66ZM1113.88 232.572C1113.85 213.256 1129.06 197.323 1147.8 197.055C1147.96 197.055 1148.12 197.051 1148.29 197.051C1157.21 197.051 1165.76 200.594 1172.08 206.903C1175.77 210.587 1178.62 215.029 1180.44 219.923C1182.25 224.817 1182.98 230.046 1182.58 235.25C1182.18 240.454 1180.66 245.509 1178.12 250.067C1175.58 254.625 1172.08 258.577 1167.87 261.65C1166.46 262.669 1165.31 264.009 1164.53 265.56C1163.74 267.11 1163.33 268.827 1163.34 270.567V274.577H1133.23V270.565C1133.24 268.827 1132.83 267.112 1132.05 265.562C1131.26 264.013 1130.12 262.674 1128.71 261.656C1124.11 258.333 1120.37 253.962 1117.79 248.905C1115.22 243.848 1113.88 238.25 1113.88 232.572V232.572ZM1156.89 309.032H1139.68C1138.54 309.031 1137.45 308.577 1136.65 307.769C1135.84 306.962 1135.39 305.867 1135.38 304.725V300.418H1161.19V304.725C1161.18 305.867 1160.73 306.962 1159.93 307.769C1159.12 308.577 1158.03 309.031 1156.89 309.032V309.032ZM1165.49 291.804H1131.08C1129.94 291.804 1128.85 291.351 1128.04 290.543C1127.24 289.735 1126.78 288.64 1126.78 287.497C1126.78 286.355 1127.24 285.26 1128.04 284.452C1128.85 283.644 1129.94 283.191 1131.08 283.191H1165.49C1166.63 283.191 1167.72 283.644 1168.53 284.452C1169.33 285.26 1169.79 286.355 1169.79 287.497C1169.79 288.64 1169.33 289.735 1168.53 290.543C1167.72 291.351 1166.63 291.804 1165.49 291.804Z" fill="white"/>
<path d="M1155.26 215.648C1157.96 216.785 1160.37 218.519 1162.31 220.722C1164.25 222.924 1165.67 225.538 1166.46 228.367C1166.78 229.451 1167.52 230.365 1168.5 230.911C1169.49 231.457 1170.66 231.591 1171.74 231.285C1172.83 230.978 1173.76 230.256 1174.31 229.273C1174.87 228.291 1175.03 227.127 1174.74 226.034C1173.59 221.946 1171.53 218.171 1168.72 214.992C1165.91 211.813 1162.42 209.311 1158.51 207.675C1157.46 207.243 1156.27 207.248 1155.22 207.69C1154.17 208.131 1153.33 208.974 1152.9 210.031C1152.47 211.088 1152.48 212.274 1152.92 213.327C1153.36 214.381 1154.2 215.215 1155.26 215.648L1155.26 215.648Z" fill="white"/>
<path d="M1152.59 175.517V166.903C1152.59 165.76 1152.13 164.665 1151.33 163.857C1150.52 163.049 1149.43 162.596 1148.29 162.596C1147.15 162.596 1146.05 163.049 1145.24 163.857C1144.44 164.665 1143.99 165.76 1143.99 166.903V175.517C1143.99 176.659 1144.44 177.754 1145.24 178.562C1146.05 179.37 1147.15 179.824 1148.29 179.824C1149.43 179.824 1150.52 179.37 1151.33 178.562C1152.13 177.754 1152.59 176.659 1152.59 175.517V175.517Z" fill="white"/>
<path d="M1123.8 185.038C1124.52 185.036 1125.22 184.856 1125.85 184.513C1126.48 184.17 1127.01 183.675 1127.4 183.073C1127.79 182.471 1128.03 181.781 1128.08 181.066C1128.14 180.351 1128.01 179.633 1127.72 178.978L1124.23 171.108C1123.76 170.065 1122.9 169.249 1121.84 168.839C1120.77 168.43 1119.59 168.461 1118.55 168.926C1117.51 169.39 1116.69 170.25 1116.28 171.317C1115.87 172.383 1115.9 173.569 1116.37 174.612L1119.87 182.481C1120.2 183.243 1120.76 183.89 1121.45 184.344C1122.15 184.797 1122.97 185.038 1123.8 185.038Z" fill="white"/>
<path d="M1103.54 199.774C1104.41 199.775 1105.26 199.511 1105.98 199.017C1106.7 198.524 1107.25 197.825 1107.56 197.011C1107.87 196.198 1107.93 195.309 1107.73 194.462C1107.52 193.615 1107.07 192.849 1106.42 192.266L1100.03 186.502C1099.18 185.738 1098.07 185.342 1096.93 185.402C1095.79 185.462 1094.72 185.973 1093.96 186.822C1093.19 187.671 1092.8 188.789 1092.86 189.93C1092.92 191.071 1093.43 192.142 1094.28 192.906L1100.67 198.666C1101.46 199.38 1102.48 199.775 1103.54 199.774V199.774Z" fill="white"/>
<path d="M1095.12 218.511C1095.47 217.425 1095.38 216.243 1094.86 215.225C1094.34 214.208 1093.44 213.438 1092.36 213.085L1084.18 210.424C1083.64 210.245 1083.07 210.174 1082.51 210.216C1081.94 210.258 1081.39 210.412 1080.88 210.668C1080.38 210.924 1079.93 211.278 1079.56 211.71C1079.19 212.141 1078.91 212.641 1078.73 213.181C1078.56 213.721 1078.49 214.29 1078.54 214.856C1078.58 215.422 1078.74 215.974 1079 216.479C1079.26 216.984 1079.61 217.433 1080.05 217.8C1080.48 218.166 1080.98 218.444 1081.52 218.616L1089.7 221.278C1090.24 221.454 1090.8 221.521 1091.37 221.477C1091.93 221.433 1092.48 221.278 1092.98 221.021C1093.49 220.764 1093.93 220.411 1094.3 219.98C1094.67 219.55 1094.94 219.051 1095.12 218.513V218.511Z" fill="white"/>
<path d="M1205.54 221.489C1205.99 221.489 1206.44 221.418 1206.87 221.277L1215.05 218.616C1215.59 218.441 1216.08 218.162 1216.51 217.795C1216.94 217.428 1217.3 216.979 1217.55 216.475C1217.81 215.971 1217.96 215.422 1218.01 214.858C1218.05 214.294 1217.99 213.727 1217.81 213.189C1217.64 212.651 1217.36 212.153 1216.99 211.723C1216.62 211.293 1216.18 210.939 1215.67 210.682C1215.17 210.426 1214.62 210.271 1214.06 210.226C1213.5 210.182 1212.93 210.249 1212.39 210.424L1204.21 213.085C1203.24 213.401 1202.41 214.055 1201.87 214.93C1201.34 215.804 1201.13 216.842 1201.29 217.855C1201.45 218.869 1201.97 219.792 1202.75 220.458C1203.52 221.124 1204.52 221.49 1205.54 221.489V221.489Z" fill="white"/>
<path d="M1195.9 198.667L1202.29 192.906C1203.14 192.142 1203.65 191.071 1203.71 189.931C1203.77 188.79 1203.37 187.672 1202.61 186.823C1201.85 185.974 1200.78 185.464 1199.64 185.404C1198.5 185.344 1197.39 185.74 1196.54 186.504L1190.15 192.267C1189.32 193.035 1188.82 194.101 1188.77 195.233C1188.71 196.365 1189.11 197.473 1189.87 198.315C1190.62 199.157 1191.68 199.666 1192.81 199.732C1193.94 199.798 1195.05 199.415 1195.9 198.667Z" fill="white"/>
<path d="M1172.77 185.038C1173.6 185.038 1174.42 184.797 1175.11 184.343C1175.81 183.889 1176.36 183.243 1176.7 182.481L1180.2 174.612C1180.66 173.569 1180.69 172.383 1180.28 171.317C1179.88 170.25 1179.06 169.39 1178.02 168.926C1176.98 168.461 1175.79 168.43 1174.73 168.839C1173.66 169.249 1172.81 170.065 1172.34 171.108L1168.84 178.978C1168.55 179.633 1168.43 180.351 1168.49 181.066C1168.54 181.781 1168.78 182.471 1169.16 183.073C1169.55 183.675 1170.09 184.17 1170.72 184.513C1171.35 184.856 1172.05 185.036 1172.77 185.038H1172.77Z" fill="white"/>
<path d="M830.948 -4.45361C830.618 -4.94912 830.171 -5.3554 829.647 -5.63641C829.123 -5.91741 828.537 -6.06444 827.943 -6.06445H780.984C780.271 -6.06449 779.574 -5.85309 778.98 -5.4569C778.387 -5.06071 777.924 -4.49745 777.65 -3.83812L752.087 57.6097L726.524 -3.83812C726.249 -4.49745 725.786 -5.06071 725.193 -5.4569C724.599 -5.85309 723.902 -6.06449 723.189 -6.06445H676.231C675.636 -6.06448 675.05 -5.91746 674.526 -5.63643C674.002 -5.3554 673.555 -4.94907 673.225 -4.45349C672.895 -3.95791 672.692 -3.38843 672.635 -2.79559C672.578 -2.20275 672.667 -1.60489 672.896 -1.05509L704.812 75.6618C695.897 82.7678 688.697 91.7965 683.748 102.076C678.799 112.355 676.23 123.62 676.231 135.032C676.231 176.924 710.259 211.006 752.087 211.006C793.914 211.006 827.943 176.924 827.943 135.032C827.943 123.62 825.374 112.355 820.425 102.076C815.477 91.7965 808.277 82.7678 799.361 75.6618L831.277 -1.05509C831.506 -1.60493 831.596 -2.20282 831.538 -2.79569C831.481 -3.38855 831.278 -3.95804 830.948 -4.45361V-4.45361ZM772.586 61.8778L797.841 1.17124H808.076L781.518 65.0091C778.609 63.7787 775.626 62.7329 772.586 61.8778V61.8778ZM783.392 1.17124H790.015L765.442 60.2367C763.38 59.8683 761.29 59.5864 759.172 59.391L783.392 1.17124ZM745.001 59.391C742.885 59.5882 740.795 59.8701 738.731 60.2367L714.159 1.17124H720.781L745.001 59.391ZM722.655 65.0091L696.098 1.17124H706.332L731.587 61.8778C728.547 62.7329 725.564 63.7787 722.655 65.0091ZM681.649 1.17124H688.271L716.134 68.1466C714.319 69.1295 712.55 70.1833 710.827 71.3082L681.649 1.17124ZM820.718 135.032C820.718 172.934 789.93 203.771 752.087 203.771C714.243 203.771 683.455 172.934 683.455 135.032C683.455 97.1288 714.243 66.2925 752.087 66.2925C789.93 66.2925 820.718 97.1288 820.718 135.032ZM793.346 71.3086C791.623 70.1862 789.854 69.1324 788.039 68.1471L815.902 1.17124H822.524L793.346 71.3086Z" fill="white"/>
<path d="M694.291 135.032C694.291 146.48 697.681 157.672 704.031 167.191C710.382 176.71 719.408 184.13 729.969 188.511C740.53 192.892 752.15 194.038 763.361 191.805C774.573 189.571 784.871 184.058 792.953 175.963C801.036 167.867 806.541 157.553 808.771 146.324C811.001 135.096 809.856 123.457 805.482 112.88C801.108 102.303 793.7 93.262 784.195 86.9015C774.691 80.5409 763.517 77.146 752.086 77.146C736.763 77.1635 722.073 83.2677 711.238 94.1196C700.403 104.971 694.308 119.685 694.291 135.032V135.032ZM802.657 135.032C802.657 145.049 799.691 154.842 794.134 163.171C788.577 171.5 780.679 177.992 771.439 181.826C762.198 185.66 752.03 186.663 742.22 184.708C732.411 182.754 723.4 177.93 716.327 170.846C709.255 163.763 704.438 154.738 702.487 144.913C700.536 135.088 701.537 124.904 705.365 115.649C709.192 106.394 715.674 98.4832 723.991 92.9177C732.307 87.3523 742.084 84.3817 752.086 84.3817C765.494 84.3969 778.348 89.7381 787.828 99.2335C797.309 108.729 802.642 121.603 802.657 135.032V135.032Z" fill="white"/>
<path d="M748.823 97.3004L739.895 116.128L719.039 119.27C718.386 119.368 717.772 119.644 717.265 120.068C716.757 120.491 716.375 121.046 716.16 121.672C715.946 122.298 715.906 122.97 716.047 123.617C716.188 124.263 716.502 124.859 716.957 125.339L731.812 141L725.843 163.024C725.654 163.721 725.678 164.459 725.911 165.142C726.144 165.825 726.576 166.423 727.151 166.858C727.727 167.294 728.419 167.547 729.139 167.585C729.859 167.623 730.573 167.445 731.191 167.072L752.086 154.487L772.982 167.074C773.599 167.446 774.314 167.625 775.034 167.587C775.754 167.549 776.446 167.296 777.021 166.86C777.596 166.425 778.028 165.827 778.261 165.144C778.495 164.461 778.518 163.723 778.329 163.026L772.36 140.998L787.215 125.336C787.67 124.857 787.985 124.261 788.125 123.615C788.266 122.968 788.227 122.295 788.012 121.67C787.797 121.044 787.415 120.489 786.908 120.065C786.4 119.642 785.786 119.366 785.133 119.268L764.277 116.128L755.35 97.3027C755.057 96.6844 754.595 96.162 754.017 95.7962C753.439 95.4305 752.77 95.2363 752.087 95.2363C751.403 95.2363 750.734 95.4305 750.156 95.7962C749.579 96.162 749.117 96.6844 748.824 97.3027L748.823 97.3004ZM758.576 120.97C758.83 121.505 759.211 121.97 759.687 122.323C760.162 122.676 760.717 122.907 761.302 122.995L777.2 125.392L765.722 137.491C765.295 137.941 764.991 138.494 764.839 139.096C764.687 139.699 764.693 140.33 764.855 140.93L769.003 156.234L753.948 147.164C753.386 146.826 752.742 146.647 752.086 146.647C751.43 146.647 750.787 146.826 750.225 147.164L735.17 156.234L739.318 140.93C739.48 140.33 739.486 139.699 739.334 139.096C739.182 138.494 738.878 137.941 738.45 137.491L726.973 125.39L742.871 122.993C743.456 122.905 744.011 122.674 744.486 122.321C744.961 121.968 745.343 121.503 745.597 120.967L752.086 107.285L758.576 120.97Z" fill="white"/>
<path d="M1046.77 22.0823C1052 18.2786 1056.35 13.3817 1059.5 7.7302C1062.66 2.07873 1064.56 -4.19233 1065.06 -10.6492C1065.55 -17.106 1064.65 -23.5945 1062.4 -29.6657C1060.15 -35.7369 1056.61 -41.2459 1052.02 -45.8116C1048.02 -49.7996 1043.27 -52.9449 1038.04 -55.0618C1032.81 -57.1787 1027.21 -58.2242 1021.57 -58.1365C998.153 -57.8022 979.138 -37.9988 979.183 -13.9901C979.179 -6.94323 980.848 0.0036122 984.053 6.27694C987.258 12.5503 991.907 17.9702 997.616 22.0893C997.908 22.3102 998.143 22.5976 998.303 22.9276C998.463 23.2576 998.542 23.6209 998.534 23.9876V29.7374C996.398 30.971 994.66 32.7922 993.525 34.9851C992.391 37.1781 991.909 39.6507 992.135 42.1099C992.361 44.5691 993.287 46.9117 994.802 48.8601C996.317 50.8085 998.359 52.2808 1000.68 53.1026V58.1477C1000.69 61.5733 1002.05 64.8576 1004.47 67.2799C1006.89 69.7022 1010.16 71.0647 1013.58 71.0686H1030.79C1034.21 71.0646 1037.48 69.702 1039.9 67.2797C1042.32 64.8575 1043.68 61.5733 1043.69 58.1477V53.0999C1046.01 52.2781 1048.05 50.8058 1049.57 48.8574C1051.08 46.9091 1052.01 44.5664 1052.23 42.1072C1052.46 39.648 1051.98 37.1754 1050.84 34.9824C1049.71 32.7895 1047.97 30.9683 1045.84 29.7347V23.987C1045.83 23.6183 1045.91 23.2532 1046.07 22.9219C1046.23 22.5907 1046.47 22.3029 1046.77 22.0823V22.0823ZM987.785 -14.0058C987.749 -33.3219 1002.96 -49.255 1021.7 -49.5226C1021.86 -49.5226 1022.02 -49.5264 1022.19 -49.5264C1031.11 -49.5266 1039.67 -45.9836 1045.98 -39.6742C1049.68 -35.9905 1052.53 -31.5486 1054.34 -26.6549C1056.15 -21.7611 1056.88 -16.5318 1056.48 -11.3277C1056.08 -6.12352 1054.56 -1.06826 1052.02 3.48953C1049.48 8.04732 1045.98 11.9992 1041.77 15.0727C1040.36 16.0914 1039.22 17.4316 1038.43 18.9822C1037.64 20.5328 1037.23 22.2492 1037.24 23.9892V27.999H1007.14V23.9876C1007.14 22.2492 1006.74 20.5342 1005.95 18.9848C1005.16 17.4354 1004.02 16.0961 1002.61 15.0781C998.015 11.755 994.273 7.38459 991.695 2.32764C989.117 -2.72932 987.777 -8.32782 987.785 -14.0058V-14.0058ZM1030.79 62.4547H1013.59C1012.45 62.4534 1011.35 61.9992 1010.55 61.1918C1009.74 60.3843 1009.29 59.2896 1009.29 58.1477V53.8407H1035.09V58.1477C1035.09 59.2896 1034.63 60.3843 1033.83 61.1918C1033.02 61.9992 1031.93 62.4534 1030.79 62.4547V62.4547ZM1039.39 45.2268H1004.99C1003.85 45.2268 1002.75 44.773 1001.95 43.9653C1001.14 43.1576 1000.69 42.0621 1000.69 40.9198C1000.69 39.7776 1001.14 38.6821 1001.95 37.8744C1002.75 37.0666 1003.85 36.6129 1004.99 36.6129H1039.39C1040.53 36.6129 1041.62 37.0666 1042.43 37.8744C1043.24 38.6821 1043.69 39.7776 1043.69 40.9198C1043.69 42.0621 1043.24 43.1576 1042.43 43.9653C1041.62 44.773 1040.53 45.2268 1039.39 45.2268Z" fill="white"/>
<path d="M961.864 -8.74415L953.311 -7.84347C952.746 -7.78807 952.198 -7.62135 951.698 -7.3529C951.198 -7.08446 950.756 -6.7196 950.398 -6.27934C950.039 -5.83907 949.771 -5.33211 949.609 -4.78765C949.447 -4.24319 949.394 -3.67199 949.453 -3.10695C949.513 -2.54191 949.683 -1.99421 949.954 -1.49538C950.226 -0.996559 950.593 -0.556472 951.035 -0.200469C951.477 0.155533 951.986 0.420414 952.53 0.578914C953.075 0.737414 953.646 0.786399 954.209 0.723052L962.763 -0.17764C963.892 -0.303438 964.926 -0.871568 965.638 -1.75796C966.35 -2.64436 966.683 -3.777 966.564 -4.90853C966.446 -6.04007 965.885 -7.07856 965.004 -7.79721C964.123 -8.51587 962.994 -8.85629 961.864 -8.74415V-8.74415Z" fill="white"/>
<path d="M1081.61 -0.17756L1090.16 0.723135C1091.29 0.836795 1092.42 0.497169 1093.31 -0.221469C1094.19 -0.940107 1094.75 -1.97927 1094.87 -3.11169C1094.99 -4.24411 1094.65 -5.37764 1093.94 -6.26435C1093.23 -7.15106 1092.19 -7.71881 1091.06 -7.84341L1082.51 -8.7441C1081.95 -8.80688 1081.38 -8.75746 1080.83 -8.59869C1080.29 -8.43991 1079.78 -8.17492 1079.34 -7.81895C1078.9 -7.46298 1078.53 -7.02306 1078.26 -6.5245C1077.99 -6.02594 1077.82 -5.47858 1077.76 -4.91391C1077.7 -4.34923 1077.75 -3.77839 1077.91 -3.23423C1078.07 -2.69006 1078.34 -2.1833 1078.7 -1.74312C1079.06 -1.30293 1079.5 -0.938008 1080 -0.669328C1080.5 -0.400647 1081.05 -0.233521 1081.61 -0.17756V-0.17756Z" fill="white"/>
<path d="M1091.37 122.752H1035.46V118.445C1035.46 111.979 1027.06 107.269 1024.49 105.979C1024.27 105.869 1024.04 105.777 1023.8 105.706L981.711 93.0591C979.047 90.7026 969.527 82.4279 957.887 74.0342C939.304 60.6347 924.894 53.841 915.058 53.841H880.656V49.534C880.656 48.3917 880.203 47.2962 879.396 46.4885C878.59 45.6808 877.496 45.2271 876.356 45.2271H850.554C849.414 45.2271 848.32 45.6808 847.513 46.4885C846.707 47.2962 846.254 48.3917 846.254 49.534V144.287C846.254 145.429 846.707 146.525 847.513 147.333C848.32 148.14 849.414 148.594 850.554 148.594H876.356C877.496 148.594 878.59 148.14 879.396 147.333C880.203 146.525 880.656 145.429 880.656 144.287V139.98H893.356C896.039 140.338 917.984 144.677 937.382 148.513C976.183 156.185 981.664 157.208 982.874 157.208H1091.37C1094.79 157.204 1098.07 155.841 1100.48 153.419C1102.9 150.997 1104.26 147.713 1104.27 144.287V135.673C1104.26 132.248 1102.9 128.963 1100.48 126.541C1098.07 124.119 1094.79 122.756 1091.37 122.752V122.752ZM872.055 139.98H854.854V53.841H872.055V139.98ZM1095.67 144.287C1095.67 145.429 1095.21 146.524 1094.41 147.331C1093.6 148.139 1092.51 148.593 1091.37 148.594H983.074C980.392 148.237 958.446 143.897 939.051 140.061C900.248 132.389 894.766 131.366 893.556 131.366H880.656V62.4549H915.058C931.329 62.4549 965.06 89.6377 976.685 100.112C977.157 100.538 977.717 100.853 978.325 101.036L1020.95 113.844C1023.63 115.247 1026.45 117.502 1026.86 118.577V127.059C1026.86 128.14 1026.45 129.181 1025.72 129.976C1024.99 130.771 1023.99 131.262 1022.91 131.352L981.089 122.973L951.593 106.092C951.103 105.81 950.562 105.628 950.001 105.556C949.44 105.485 948.871 105.524 948.326 105.673C947.78 105.821 947.269 106.076 946.822 106.422C946.375 106.769 946.001 107.2 945.721 107.692C945.44 108.183 945.259 108.725 945.188 109.287C945.117 109.849 945.157 110.419 945.306 110.965C945.455 111.511 945.711 112.022 946.057 112.469C946.404 112.916 946.835 113.291 947.326 113.571L977.428 130.799C977.829 131.029 978.264 131.192 978.718 131.283L1021.72 139.897C1022 139.953 1022.28 139.98 1022.56 139.98C1025.23 139.977 1027.83 139.147 1030.01 137.605C1032.19 136.063 1033.84 133.884 1034.73 131.366H1091.37C1092.51 131.368 1093.6 131.822 1094.41 132.629C1095.21 133.437 1095.67 134.531 1095.67 135.673V144.287Z" fill="white"/>
<path d="M1024.47 216.064C1027.07 216.061 1029.56 215.026 1031.4 213.185C1033.24 211.344 1034.27 208.848 1034.28 206.245L1034.28 193.151C1034.27 190.548 1033.24 188.052 1031.4 186.211C1029.56 184.37 1027.07 183.335 1024.47 183.332L874.135 183.332C873.789 183.332 873.445 183.387 873.117 183.495L842.707 193.483C841.393 193.907 840.248 194.737 839.436 195.854C838.623 196.971 838.185 198.317 838.185 199.699C838.185 201.081 838.623 202.427 839.436 203.544C840.248 204.661 841.393 205.491 842.707 205.914L873.116 215.901C873.445 216.009 873.789 216.064 874.135 216.064L1024.47 216.064ZM870.867 191.123L870.867 208.273L857.794 203.979L857.794 195.417L870.867 191.123ZM1001.59 209.518L1001.59 189.878L1008.13 189.878L1008.13 209.518L1001.59 209.518ZM995.057 202.971L995.057 209.518L877.403 209.518L877.403 202.971L995.057 202.971ZM877.403 189.878L995.057 189.878L995.057 196.425L877.403 196.425L877.403 189.878ZM1027.74 193.151L1027.74 206.245C1027.74 207.112 1027.39 207.944 1026.78 208.558C1026.17 209.172 1025.34 209.517 1024.47 209.518L1014.67 209.518L1014.67 189.878L1024.47 189.878C1025.34 189.879 1026.17 190.224 1026.78 190.838C1027.39 191.452 1027.74 192.284 1027.74 193.151ZM851.258 197.563L851.258 201.833L844.758 199.698L851.258 197.563Z" fill="white"/>
</g>
</g>
</svg>
