<svg width="52" height="52" viewBox="0 0 52 52" fill="none" xmlns="http://www.w3.org/2000/svg">
<path d="M9.55045 5.86869C19.762 -2.50074 34.8531 -1.91834 44.3862 7.61589C54.5379 17.7689 54.5379 34.2322 44.3862 44.3852C34.2344 54.5383 17.7732 54.5383 7.62149 44.3852C4.50611 41.2737 2.23254 37.4213 1.01429 33.1899C-0.203962 28.9584 -0.326928 24.4868 0.656938 20.1947L0.857114 19.3809L5.8849 20.7069C4.63846 25.4448 5.1042 30.4707 7.20002 34.8988C9.29584 39.3269 12.8872 42.873 17.3413 44.9122C21.7953 46.9514 26.8261 47.3527 31.547 46.0455C36.268 44.7383 40.376 41.8065 43.1472 37.7667C45.9185 33.7269 47.175 28.8384 46.6953 23.9628C46.2157 19.0872 44.0306 14.5374 40.5253 11.1153C37.02 7.69309 32.4194 5.61822 27.5342 5.2563C22.6491 4.89438 17.793 6.26864 13.8217 9.1369L13.2472 9.5685L15.8911 12.2127L3.94294 14.9687L6.6986 3.01908L9.54785 5.86869H9.55045ZM28.6035 10.4005V15.6005H35.1027V20.8005H20.8045C20.4797 20.7999 20.1664 20.921 19.9263 21.1399C19.6863 21.3587 19.5369 21.6595 19.5076 21.9831C19.4782 22.3066 19.571 22.6294 19.7678 22.8879C19.9645 23.1464 20.2509 23.3219 20.5705 23.3798L20.8045 23.4006H31.2032C32.9269 23.4006 34.58 24.0854 35.7988 25.3044C37.0177 26.5234 37.7024 28.1767 37.7024 29.9006C37.7024 31.6245 37.0177 33.2778 35.7988 34.4968C34.58 35.7158 32.9269 36.4006 31.2032 36.4006H28.6035V41.6006H23.4042V36.4006H16.9049V31.2006H31.2032C31.528 31.2012 31.8413 31.0801 32.0813 30.8613C32.3214 30.6424 32.4708 30.3416 32.5001 30.018C32.5295 29.6945 32.4366 29.3717 32.2399 29.1132C32.0432 28.8547 31.7568 28.6792 31.4372 28.6214L31.2032 28.6006H20.8045C19.0808 28.6006 17.4277 27.9157 16.2088 26.6968C14.99 25.4778 14.3053 23.8245 14.3053 22.1005C14.3053 20.3766 14.99 18.7233 16.2088 17.5043C17.4277 16.2853 19.0808 15.6005 20.8045 15.6005H23.4042V10.4005H28.6035Z" fill="white"/>
</svg>
