<svg width="56" height="57" viewBox="0 0 56 57" fill="none" xmlns="http://www.w3.org/2000/svg">
<path d="M27.9997 32.6866V37.3533C24.2866 37.3533 20.7257 38.8283 18.1002 41.4538C15.4747 44.0793 13.9997 47.6402 13.9997 51.3533H9.33301C9.33301 46.4026 11.2997 41.6546 14.8003 38.1539C18.301 34.6533 23.049 32.6866 27.9997 32.6866ZM27.9997 30.3533C20.2647 30.3533 13.9997 24.0883 13.9997 16.3533C13.9997 8.61827 20.2647 2.35327 27.9997 2.35327C35.7347 2.35327 41.9997 8.61827 41.9997 16.3533C41.9997 24.0883 35.7347 30.3533 27.9997 30.3533ZM27.9997 25.6866C33.1563 25.6866 37.333 21.5099 37.333 16.3533C37.333 11.1966 33.1563 7.01994 27.9997 7.01994C22.843 7.01994 18.6663 11.1966 18.6663 16.3533C18.6663 21.5099 22.843 25.6866 27.9997 25.6866ZM50.0403 46.7613L53.5497 50.2706L50.2503 53.5699L46.741 50.0606C44.7841 51.2144 42.4736 51.6149 40.2426 51.1871C38.0115 50.7592 36.0131 49.5323 34.622 47.7364C33.2308 45.9405 32.5424 43.6988 32.6858 41.4317C32.8292 39.1645 33.7945 37.0275 35.4008 35.4211C37.0072 33.8148 39.1442 32.8494 41.4114 32.7061C43.6786 32.5627 45.9202 33.2511 47.7161 34.6422C49.512 36.0334 50.7389 38.0318 51.1668 40.2629C51.5947 42.4939 51.1942 44.8044 50.0403 46.7613ZM41.9997 46.6866C43.2374 46.6866 44.4243 46.1949 45.2995 45.3198C46.1747 44.4446 46.6663 43.2576 46.6663 42.0199C46.6663 40.7823 46.1747 39.5953 45.2995 38.7201C44.4243 37.8449 43.2374 37.3533 41.9997 37.3533C40.762 37.3533 39.575 37.8449 38.6998 38.7201C37.8247 39.5953 37.333 40.7823 37.333 42.0199C37.333 43.2576 37.8247 44.4446 38.6998 45.3198C39.575 46.1949 40.762 46.6866 41.9997 46.6866Z" fill="white"/>
</svg>
