<svg width="56" height="56" viewBox="0 0 56 56" fill="none" xmlns="http://www.w3.org/2000/svg">
<path d="M7.00033 7H49.0003C49.6192 7 50.2127 7.24583 50.6502 7.68342C51.0878 8.121 51.3337 8.71449 51.3337 9.33333V46.6667C51.3337 47.2855 51.0878 47.879 50.6502 48.3166C50.2127 48.7542 49.6192 49 49.0003 49H7.00033C6.38149 49 5.78799 48.7542 5.35041 48.3166C4.91282 47.879 4.66699 47.2855 4.66699 46.6667V9.33333C4.66699 8.71449 4.91282 8.121 5.35041 7.68342C5.78799 7.24583 6.38149 7 7.00033 7ZM46.667 28H9.33366V44.3333H46.667V28ZM46.667 18.6667V11.6667H9.33366V18.6667H46.667Z" fill="white"/>
</svg>
