<svg width="56" height="56" viewBox="0 0 56 56" fill="none" xmlns="http://www.w3.org/2000/svg">
<path d="M4.66699 9.317C4.67126 8.70422 4.91643 8.11771 5.34952 7.68417C5.78262 7.25064 6.36888 7.00489 6.98166 7H49.019C50.2977 7 51.3337 8.03833 51.3337 9.317V46.683C51.3294 47.2958 51.0842 47.8823 50.6511 48.3158C50.218 48.7494 49.6318 48.9951 49.019 49H6.98166C6.36756 48.9994 5.77882 48.755 5.3448 48.3205C4.91078 47.8861 4.66699 47.2971 4.66699 46.683V9.317ZM25.667 11.6667H9.33366V44.3333H25.667V11.6667ZM30.3337 11.6667V44.3333H46.667V11.6667H30.3337ZM32.667 16.3333H44.3337V21H32.667V16.3333ZM32.667 23.3333H44.3337V28H32.667V23.3333Z" fill="white"/>
</svg>
