<svg width="170" height="171" viewBox="0 0 170 171" fill="none" xmlns="http://www.w3.org/2000/svg">
<g clip-path="url(#clip0)">
<path d="M85 166.848C129.927 166.848 166.348 130.427 166.348 85.5C166.348 40.5729 129.927 4.15234 85 4.15234C40.0729 4.15234 3.65234 40.5729 3.65234 85.5C3.65234 130.427 40.0729 166.848 85 166.848Z" fill="#E1245A"/>
<path d="M99.8654 127.91H70.1387V142.663H99.8654V127.91Z" fill="#3A3850"/>
<path d="M114.583 151.174C114.583 151.982 113.921 152.645 113.112 152.645H56.8869C56.0781 152.645 55.416 151.982 55.416 151.174V143.802C55.416 142.993 56.0781 142.331 56.8869 142.331H113.112C113.921 142.331 114.583 142.993 114.583 143.802V151.174H114.583Z" fill="#2F2E41"/>
<path d="M168.074 14.7332H1.92678C0.866934 14.7332 0 15.6005 0 16.6607V126.315C0 127.375 0.866934 128.242 1.92678 128.242H116.3V122.483C116.3 121.896 116.777 121.419 117.363 121.419H121.841C122.756 121.419 123.707 120.742 124.008 119.879L124.853 117.847C125.251 117.044 125.06 115.895 124.408 115.25L121.248 112.115C121.048 111.916 120.938 111.65 120.938 111.367C120.938 111.084 121.048 110.819 121.249 110.62L126.98 104.933C127.181 104.734 127.449 104.624 127.736 104.624C128.023 104.624 128.292 104.734 128.493 104.933L131.653 108.069C132.058 108.471 132.683 108.711 133.325 108.711C133.67 108.711 134 108.639 134.277 108.504L136.336 107.66C137.184 107.371 137.863 106.422 137.863 105.507V101.084C137.863 100.498 138.34 100.021 138.926 100.021H147.041C147.627 100.021 148.104 100.498 148.104 101.084V105.507C148.104 106.422 148.783 107.371 149.649 107.668L151.71 108.513C151.968 108.64 152.297 108.711 152.642 108.711C153.285 108.711 153.909 108.471 154.315 108.069L157.475 104.934C157.676 104.734 157.944 104.624 158.231 104.624C158.518 104.624 158.787 104.734 158.988 104.934L164.718 110.621C164.918 110.819 165.028 111.085 165.028 111.368C165.028 111.651 164.918 111.916 164.718 112.115L161.558 115.251C160.907 115.895 160.716 117.045 161.122 117.867L161.966 119.897C162.259 120.743 163.21 121.42 164.125 121.42H168.603C169.19 121.42 169.667 121.897 169.667 122.483V127.393C169.876 127.085 169.999 126.714 169.999 126.316V16.6607C170 15.6005 169.133 14.7332 168.074 14.7332Z" fill="#2F2E41"/>
<path d="M8.45801 108.975C8.45801 109.611 8.9783 110.131 9.61414 110.131H121.741L126.98 104.933C127.181 104.733 127.45 104.624 127.737 104.624C128.024 104.624 128.293 104.733 128.494 104.933L131.654 108.068C132.058 108.47 132.684 108.711 133.325 108.711C133.671 108.711 134 108.639 134.278 108.504L136.337 107.66C137.185 107.371 137.864 106.422 137.864 105.506V101.084C137.864 100.497 138.34 100.02 138.927 100.02H147.041C147.628 100.02 148.104 100.497 148.104 101.084V105.506C148.104 106.422 148.783 107.371 149.649 107.667L151.71 108.513C151.968 108.639 152.298 108.711 152.643 108.711C153.285 108.711 153.91 108.47 154.315 108.069L157.475 104.933C157.676 104.734 157.945 104.624 158.232 104.624C158.519 104.624 158.787 104.734 158.988 104.933L161.542 107.468V33.6741H8.45801V108.975Z" fill="white"/>
<path d="M15.0462 108.975V33.6741H8.45801V108.975C8.45801 109.611 8.9783 110.131 9.61414 110.131H16.2023C15.5665 110.131 15.0462 109.611 15.0462 108.975Z" fill="#1CB5A3"/>
<path d="M82.8793 84.6805C79.8485 81.6497 75.4146 80.8601 71.6494 82.3065L58.9462 69.6033L56.3925 72.1569C56.3218 72.2276 56.2866 72.3266 56.2969 72.4262C56.3743 73.1749 56.1694 73.9137 55.7198 74.5064C55.6362 74.6166 55.6295 74.767 55.7032 74.8842C56.4108 76.0078 56.3351 77.3745 55.5322 78.249L65.6193 88.3361C64.1727 92.101 64.9622 96.5356 67.9934 99.5668C70.6171 102.19 74.3299 103.232 77.9248 102.352C78.021 102.329 78.1074 102.279 78.1748 102.211C78.2382 102.148 78.2863 102.068 78.3109 101.978C78.363 101.792 78.3109 101.593 78.1748 101.458L71.6948 94.9771L78.2893 88.3823L84.7696 94.8632C84.9057 94.9987 85.1046 95.0515 85.2899 94.9993C85.3799 94.9741 85.4599 94.9266 85.5233 94.8632C85.591 94.7951 85.6405 94.7091 85.6641 94.6122C86.5446 91.017 85.5034 87.3045 82.8793 84.6805Z" fill="#FEA116"/>
<path d="M49.4483 69.7811C50.0171 69.7811 50.5822 69.9477 51.0833 70.2632C51.1374 70.2974 51.1988 70.314 51.2602 70.314C51.3309 70.314 51.4017 70.2914 51.4611 70.2466C51.9718 69.8587 52.5847 69.6542 53.2335 69.6542C53.3361 69.6542 53.439 69.6595 53.5413 69.6702C53.5526 69.6712 53.5642 69.6718 53.5755 69.6718C53.6631 69.6718 53.7478 69.6369 53.8102 69.5745L56.3642 67.0205L43.661 54.3177C45.1074 50.5525 44.3178 46.1182 41.287 43.0877C38.663 40.4637 34.9505 39.4221 31.3556 40.302C31.259 40.3259 31.1733 40.3754 31.1056 40.4428C31.0418 40.5062 30.994 40.5862 30.9688 40.6765C30.917 40.8621 30.9691 41.0607 31.1056 41.1968L37.5855 47.6767L30.9907 54.2719L24.5105 47.7913C24.3747 47.6552 24.1754 47.6034 23.9902 47.6552C23.9005 47.6797 23.8205 47.7275 23.7571 47.7913C23.689 47.859 23.6395 47.945 23.616 48.0416C22.7361 51.6362 23.7777 55.3493 26.401 57.9727C29.4322 61.0038 33.8661 61.7934 37.6317 60.347L47.7191 70.4345C48.1773 70.0138 48.7863 69.7811 49.4483 69.7811Z" fill="#FEA116"/>
<path d="M84.9998 124.353C87.8727 124.353 90.2017 122.024 90.2017 119.151C90.2017 116.278 87.8727 113.949 84.9998 113.949C82.1268 113.949 79.7979 116.278 79.7979 119.151C79.7979 122.024 82.1268 124.353 84.9998 124.353Z" fill="#3A3850"/>
<path d="M160.387 24.5594H9.61414C8.9783 24.5594 8.45801 25.0793 8.45801 25.7155V34.0063H161.542V25.7155C161.542 25.0793 161.022 24.5594 160.387 24.5594Z" fill="#5DC1D8"/>
<path d="M16.2023 24.5594H9.61414C8.9783 24.5594 8.45801 25.0793 8.45801 25.7155V34.0063H15.0462V25.7155C15.0462 25.0793 15.5665 24.5594 16.2023 24.5594Z" fill="#28A5A5"/>
<path d="M137.532 151.914C137.532 152.681 138.159 153.309 138.927 153.309H147.041C147.809 153.309 148.436 152.681 148.436 151.914V147.492C148.436 146.724 149.03 145.893 149.757 145.644L151.837 144.792C152.527 144.456 153.537 144.624 154.082 145.164L157.242 148.3C157.786 148.84 158.678 148.84 159.222 148.3L164.953 142.613C165.498 142.072 165.498 141.188 164.953 140.647L161.793 137.511C161.248 136.971 161.081 135.965 161.421 135.277L162.274 133.227C162.526 132.502 163.36 131.909 164.127 131.909H168.605C169.373 131.909 170 131.282 170 130.514V122.483C170 121.715 169.372 121.087 168.605 121.087H164.127C163.359 121.087 162.526 120.494 162.274 119.769L161.421 117.719C161.081 117.031 161.248 116.026 161.793 115.485L164.953 112.35C165.498 111.809 165.498 110.925 164.953 110.384L159.222 104.697C158.678 104.156 157.786 104.156 157.242 104.697L154.082 107.832C153.537 108.373 152.526 108.541 151.836 108.205L149.757 107.353C149.03 107.104 148.436 106.273 148.436 105.506V101.083C148.436 100.316 147.808 99.6877 147.041 99.6877H138.927C138.159 99.6877 137.532 100.316 137.532 101.083V105.506C137.532 106.273 136.938 107.104 136.211 107.353L134.132 108.205C133.443 108.541 132.432 108.373 131.887 107.832L128.727 104.697C128.182 104.156 127.291 104.156 126.746 104.697L121.014 110.384C120.47 110.925 120.47 111.809 121.014 112.35L124.175 115.485C124.72 116.026 124.887 117.031 124.547 117.719L123.694 119.769C123.442 120.494 122.608 121.087 121.841 121.087H117.363C116.595 121.087 115.968 121.715 115.968 122.483V130.514C115.968 131.282 116.596 131.909 117.363 131.909H121.841C122.609 131.909 123.442 132.502 123.694 133.227L124.547 135.278C124.887 135.965 124.72 136.971 124.176 137.511L121.014 140.647C120.47 141.188 120.47 142.072 121.014 142.613L126.746 148.3C127.291 148.84 128.182 148.84 128.727 148.3L131.886 145.164C132.431 144.624 133.442 144.456 134.132 144.792L136.211 145.644C136.938 145.893 137.532 146.724 137.532 147.492V151.914Z" fill="#FEA116"/>
<path d="M142.984 139.402C135.803 139.402 129.981 133.626 129.981 126.499C129.982 119.372 135.803 113.596 142.984 113.596C150.165 113.596 155.986 119.372 155.986 126.498C155.986 133.625 150.165 139.402 142.984 139.402Z" fill="#FFD00D"/>
<path d="M133.937 126.499C133.937 120.039 138.719 114.689 144.961 113.743C144.317 113.645 143.656 113.595 142.984 113.595C135.803 113.595 129.982 119.372 129.981 126.499C129.981 133.625 135.803 139.402 142.984 139.402C143.656 139.402 144.317 139.351 144.961 139.254C138.719 138.308 133.937 132.958 133.937 126.499Z" fill="#FEA116"/>
<path d="M142.984 141.496C134.66 141.496 127.889 134.768 127.889 126.499C127.889 118.23 134.661 111.502 142.984 111.502C151.308 111.502 158.08 118.23 158.08 126.499C158.08 134.768 151.308 141.496 142.984 141.496ZM142.984 115.688C136.969 115.688 132.076 120.538 132.075 126.499C132.075 132.46 136.969 137.31 142.984 137.31C149 137.31 153.893 132.46 153.894 126.499C153.894 120.538 149 115.688 142.984 115.688Z" fill="#FFAF10"/>
<path d="M142.984 131.954C139.948 131.954 137.487 129.511 137.487 126.499C137.487 123.485 139.948 121.043 142.984 121.043C146.021 121.043 148.48 123.485 148.48 126.498C148.48 129.511 146.02 131.954 142.984 131.954Z" fill="#FFD00D"/>
<path d="M141.442 126.499C141.442 124.179 142.904 122.203 144.961 121.414C144.347 121.179 143.682 121.044 142.984 121.044C139.948 121.044 137.487 123.486 137.487 126.499C137.487 129.511 139.948 131.954 142.984 131.954C143.682 131.954 144.347 131.819 144.961 131.584C142.904 130.795 141.442 128.819 141.442 126.499Z" fill="#FEA116"/>
<path d="M142.984 134.047C138.8 134.047 135.395 130.661 135.395 126.499C135.395 122.336 138.8 118.951 142.984 118.951C147.169 118.951 150.574 122.336 150.574 126.498C150.573 130.661 147.169 134.047 142.984 134.047ZM142.984 123.137C141.107 123.137 139.581 124.645 139.581 126.499C139.581 128.352 141.107 129.86 142.984 129.86C144.861 129.86 146.387 128.352 146.387 126.498C146.387 124.645 144.861 123.137 142.984 123.137Z" fill="#FFAF10"/>
<path d="M46.6303 75.7409L50.2259 79.3365C50.5244 79.635 50.7455 79.9823 50.8909 80.3525L52.4488 78.7946C52.0822 78.6353 51.7403 78.4055 51.4487 78.1136L47.8532 74.5184C47.5547 74.2196 47.3272 73.8789 47.1705 73.5197L45.6133 75.0769C45.9905 75.2246 46.3364 75.4474 46.6303 75.7409Z" fill="#1CB5A3"/>
<path d="M83.9154 43.9167L82.0504 42.0517C81.8429 41.8445 81.4577 41.7801 81.1944 41.9083L77.0387 43.9363C76.7751 44.0648 76.4543 44.3856 76.3262 44.6489L74.4784 48.4364L53.5751 69.3397C52.6533 69.2441 51.7047 69.5353 50.9922 70.2083C51.2309 70.3478 51.4557 70.5164 51.6553 70.716L55.2508 74.3112C55.454 74.5144 55.6227 74.7379 55.7605 74.9726C56.4325 74.2601 56.723 73.3125 56.6278 72.3917L77.5301 51.4894L81.3186 49.6413C81.5822 49.5128 81.903 49.1921 82.0311 48.9288L84.0588 44.7727C84.1873 44.5094 84.1223 44.1243 83.9154 43.9167Z" fill="#1CB5A3"/>
<path d="M55.6984 78.5607C54.5237 79.7354 52.5062 79.6401 51.215 78.3485L47.6194 74.7533C46.3281 73.4617 46.2325 71.4442 47.4072 70.2695C48.582 69.0948 50.5994 69.1901 51.8906 70.4817L55.4862 74.0769C56.7775 75.3682 56.8731 77.3856 55.6984 78.5607Z" fill="#2F2E41"/>
<path d="M142.916 49.6351H99.1309C97.7556 49.6351 96.6406 48.5204 96.6406 47.1448C96.6406 45.7692 97.7556 44.6546 99.1309 44.6546H142.916C144.292 44.6546 145.406 45.7692 145.406 47.1448C145.407 48.5204 144.292 49.6351 142.916 49.6351Z" fill="#3D64FF"/>
<path d="M142.916 57.7658H99.1309C97.7556 57.7658 96.6406 56.6512 96.6406 55.2756C96.6406 53.9 97.7556 52.7853 99.1309 52.7853H142.916C144.292 52.7853 145.406 53.9 145.406 55.2756C145.407 56.6508 144.292 57.7658 142.916 57.7658Z" fill="#3D64FF"/>
<path d="M142.916 65.8962H99.1309C97.7556 65.8962 96.6406 64.7816 96.6406 63.4059C96.6406 62.0303 97.7556 60.9157 99.1309 60.9157H142.916C144.292 60.9157 145.406 62.0303 145.406 63.4059C145.407 64.7816 144.292 65.8962 142.916 65.8962Z" fill="#3D64FF"/>
<path d="M142.916 79.5165H99.1309C97.7556 79.5165 96.6406 78.4019 96.6406 77.0262C96.6406 75.6506 97.7556 74.536 99.1309 74.536H142.916C144.292 74.536 145.406 75.6506 145.406 77.0262C145.406 78.4019 144.292 79.5165 142.916 79.5165Z" fill="#0EB582"/>
<path d="M142.916 87.6469H99.1309C97.7556 87.6469 96.6406 86.5323 96.6406 85.1567C96.6406 83.7811 97.7556 82.6664 99.1309 82.6664H142.916C144.292 82.6664 145.406 83.7811 145.406 85.1567C145.407 86.532 144.292 87.6469 142.916 87.6469Z" fill="#0EB582"/>
<path d="M120.887 95.7772H99.1309C97.7556 95.7772 96.6406 94.6626 96.6406 93.287C96.6406 91.9114 97.7556 90.7968 99.1309 90.7968H120.887C122.263 90.7968 123.377 91.9114 123.377 93.287C123.377 94.6626 122.263 95.7772 120.887 95.7772Z" fill="#0EB582"/>
<path d="M35.0568 99.2017C33.7655 100.493 31.6525 100.493 30.3609 99.2017L26.7653 95.6065C25.4741 94.3149 25.4741 92.2022 26.7653 90.9106L42.1696 75.5067C43.4608 74.2151 45.5739 74.2151 46.8652 75.5067L50.4607 79.1022C51.752 80.3935 51.752 82.5065 50.4607 83.7981L35.0568 99.2017Z" fill="#2F2E41"/>
</g>
<defs>
<clipPath id="clip0">
<rect width="170" height="170" fill="white" transform="translate(0 0.5)"/>
</clipPath>
</defs>
</svg>
