<svg width="170" height="171" viewBox="0 0 170 171" fill="none" xmlns="http://www.w3.org/2000/svg">
<path d="M170 85.4857C170 94.6049 168.564 103.392 165.903 111.627C165.674 112.337 165.434 113.042 165.185 113.743C164.581 115.474 163.916 117.177 163.197 118.852C163.174 118.908 163.153 118.96 163.128 119.016C162.781 119.824 162.42 120.628 162.053 121.423C160.829 124.042 159.476 126.585 158.001 129.047C157.825 129.346 157.643 129.645 157.46 129.939C157.259 130.265 157.057 130.591 156.853 130.913C155.615 132.87 154.297 134.77 152.905 136.613C152.868 136.665 152.826 136.72 152.787 136.773C148.188 142.839 142.794 148.272 136.755 152.909C136.699 152.954 136.64 153 136.581 153.045C134.837 154.377 133.039 155.647 131.191 156.843C130.771 157.118 130.348 157.387 129.921 157.651C129.613 157.845 129.304 158.033 128.995 158.22C126.532 159.712 123.989 161.085 121.37 162.324C120.653 162.664 119.928 162.997 119.195 163.316C119.095 163.361 118.991 163.405 118.89 163.451C117.322 164.134 115.733 164.769 114.117 165.355C113.34 165.643 112.556 165.914 111.769 166.175C103.357 168.963 94.3628 170.471 85.0141 170.471C38.077 170.471 0.0283203 132.423 0.0283203 85.4857C0.0283203 38.55 38.077 0.5 85.0141 0.5C131.95 0.5 170 38.55 170 85.4857Z" fill="#2F2E41"/>
<path d="M145.504 73.4367C145.504 113.616 112.932 146.189 72.7512 146.189C32.5715 146.189 0 113.616 0 73.4367C0 33.257 32.5715 0.685547 72.7512 0.685547C112.932 0.685547 145.504 33.257 145.504 73.4367Z" fill="#E1245A"/>
<path d="M133.423 73.4366C133.423 106.944 106.259 134.107 72.751 134.107C39.2444 134.107 12.0801 106.944 12.0801 73.4366C12.0801 39.9299 39.2444 12.7656 72.751 12.7656C106.259 12.7656 133.423 39.9299 133.423 73.4366Z" fill="#EE3267"/>
<path d="M129.271 73.4379C129.271 104.65 103.966 129.955 72.75 129.955C70.6411 129.955 68.5569 129.84 66.5063 129.615C38.2318 126.507 16.2334 102.541 16.2334 73.4379C16.2334 44.3307 38.2318 20.3673 66.5063 17.2597C68.5569 17.0341 70.6411 16.9199 72.75 16.9199C103.966 16.9199 129.271 42.2217 129.271 73.4379Z" fill="white"/>
<path d="M116.783 73.4379C116.783 102.541 94.7847 126.507 66.5063 129.615C38.2318 126.507 16.2334 102.541 16.2334 73.4379C16.2334 44.3307 38.2318 20.3674 66.5063 17.2598C94.7847 20.3674 116.783 44.3307 116.783 73.4379Z" fill="#F1F4FE"/>
<path d="M72.7509 125.453C71.3138 125.453 70.1504 124.288 70.1504 122.851V114.988C70.1504 113.551 71.3138 112.387 72.7509 112.387C74.1892 112.387 75.3526 113.551 75.3526 114.988V122.851C75.3526 124.288 74.1892 125.453 72.7509 125.453Z" fill="#2F2E41"/>
<path d="M72.7509 34.4878C71.3138 34.4878 70.1504 33.3231 70.1504 31.886V24.0237C70.1504 22.5866 71.3138 21.4219 72.7509 21.4219C74.1892 21.4219 75.3526 22.5866 75.3526 24.0237V31.886C75.3526 33.3231 74.1892 34.4878 72.7509 34.4878Z" fill="#2F2E41"/>
<path d="M31.2005 76.0385H23.3381C21.901 76.0385 20.7363 74.8738 20.7363 73.4367C20.7363 72.001 21.901 70.835 23.3381 70.835H31.2005C32.6376 70.835 33.8023 72.001 33.8023 73.4367C33.8023 74.8738 32.6376 76.0385 31.2005 76.0385Z" fill="#2F2E41"/>
<path d="M29.9609 100.746C29.0621 100.746 28.1879 100.279 27.7054 99.4451C26.9869 98.2013 27.4136 96.6098 28.6574 95.8913L35.4667 91.9601C36.7105 91.2416 38.3019 91.667 39.0204 92.9121C39.739 94.1559 39.3123 95.7473 38.0684 96.4659L31.2592 100.397C30.8494 100.633 30.4019 100.746 29.9609 100.746Z" fill="#2F2E41"/>
<path d="M48.0417 118.833C47.6007 118.833 47.1532 118.721 46.7434 118.484C45.4996 117.765 45.0728 116.174 45.7914 114.93L49.7226 108.121C50.4411 106.875 52.0325 106.45 53.2763 107.169C54.5215 107.887 54.9469 109.479 54.2283 110.722L50.2971 117.532C49.816 118.366 48.9405 118.833 48.0417 118.833Z" fill="#2F2E41"/>
<path d="M51.978 40.0549C51.0792 40.0549 50.2051 39.588 49.7226 38.754L45.7914 31.9448C45.0728 30.6996 45.4996 29.1095 46.7434 28.391C47.9872 27.6724 49.5786 28.0992 50.2971 29.343L54.2283 36.1522C54.9469 37.396 54.5202 38.9874 53.2763 39.706C52.8665 39.942 52.419 40.0549 51.978 40.0549Z" fill="#2F2E41"/>
<path d="M36.765 55.2631C36.324 55.2631 35.8765 55.1502 35.4667 54.9142L28.6574 50.983C27.4136 50.2644 26.9869 48.673 27.7054 47.4292C28.4227 46.1841 30.0141 45.7587 31.2592 46.4772L38.0684 50.4084C39.3123 51.1269 39.739 52.7184 39.0204 53.9622C38.5393 54.7961 37.6638 55.2631 36.765 55.2631Z" fill="#2F2E41"/>
<path d="M114.303 76.0385H122.165C123.602 76.0385 124.767 74.8738 124.767 73.4367C124.767 72.001 123.602 70.835 122.165 70.835H114.303C112.866 70.835 111.701 72.001 111.701 73.4367C111.701 74.8738 112.866 76.0385 114.303 76.0385Z" fill="#2F2E41"/>
<path d="M115.543 100.746C116.442 100.746 117.316 100.279 117.799 99.4451C118.517 98.2013 118.091 96.6098 116.847 95.8913L110.038 91.9601C108.794 91.2416 107.202 91.667 106.484 92.9121C105.765 94.1559 106.192 95.7473 107.436 96.4659L114.245 100.397C114.655 100.633 115.102 100.746 115.543 100.746Z" fill="#40649C"/>
<path d="M97.4611 118.833C97.9021 118.833 98.3496 118.721 98.7594 118.484C100.003 117.765 100.43 116.174 99.7114 114.93L95.7802 108.121C95.0617 106.875 93.4703 106.45 92.2265 107.169C90.9814 107.887 90.5559 109.479 91.2732 110.722L95.2057 117.532C95.6869 118.366 96.5623 118.833 97.4611 118.833Z" fill="#40649C"/>
<path d="M93.5251 40.0549C94.4239 40.0549 95.2981 39.588 95.7805 38.754L99.7117 31.9448C100.43 30.6996 100.004 29.1095 98.7597 28.391C97.5159 27.6724 95.9245 28.0992 95.206 29.343L91.2748 36.1522C90.5562 37.396 90.9829 38.9874 92.2268 39.706C92.6366 39.942 93.0841 40.0549 93.5251 40.0549Z" fill="#2F2E41"/>
<path d="M108.739 55.2631C109.18 55.2631 109.628 55.1502 110.038 54.9142L116.847 50.983C118.091 50.2644 118.517 48.673 117.799 47.4292C117.082 46.1841 115.49 45.7587 114.245 46.4772L107.436 50.4084C106.192 51.1269 105.765 52.7184 106.484 53.9622C106.965 54.7961 107.84 55.2631 108.739 55.2631Z" fill="#2F2E41"/>
<path d="M79 81.5V45.3889C79 42.6886 76.7614 40.5 73.9994 40.5C71.2386 40.5 69 42.6886 69 45.3889V81.5" fill="#2F2E41"/>
<path d="M74 76.7756L48.8599 76.5C46.1782 76.4977 44.0023 78.6722 44 81.3569C43.9965 84.0416 46.1676 86.222 48.8482 86.2244L73.9895 86.5" fill="#2F2E41"/>
<path d="M84.4265 81.5007C84.4265 87.1336 79.8611 91.699 74.2282 91.699C68.5967 91.699 64.0312 87.1336 64.0312 81.5007C64.0312 75.8691 68.5967 71.3037 74.2282 71.3037C79.8611 71.3037 84.4265 75.8691 84.4265 81.5007Z" fill="#2F2E41"/>
<path d="M79.605 81.5006C79.605 84.4707 77.1977 86.8779 74.2276 86.8779C71.2588 86.8779 68.8516 84.4707 68.8516 81.5006C68.8516 78.5317 71.2588 76.1245 74.2276 76.1245C77.1977 76.1245 79.605 78.5317 79.605 81.5006Z" fill="white"/>
<path d="M165.185 113.743C164.581 115.473 163.915 117.176 163.197 118.852C163.174 118.908 163.153 118.96 163.128 119.016C162.781 119.824 162.42 120.628 162.053 121.423C160.829 124.041 159.476 126.585 158.001 129.046C157.825 129.346 157.643 129.644 157.46 129.939C156.048 132.238 154.525 134.465 152.905 136.613C152.868 136.665 152.826 136.72 152.787 136.773C148.188 142.839 142.794 148.272 136.755 152.909C136.699 152.954 136.64 152.999 136.581 153.045C134.441 154.682 132.217 156.222 129.921 157.65C129.612 157.845 129.304 158.033 128.995 158.22C126.532 159.711 123.989 161.085 121.37 162.324C120.653 162.663 119.928 162.997 119.195 163.316C119.095 163.361 118.991 163.405 118.89 163.451C117.322 164.134 115.733 164.768 114.117 165.355C96.5092 160.513 83.5742 144.382 83.5742 125.235C83.5742 102.257 102.202 83.627 125.183 83.627C144.178 83.627 160.201 96.3531 165.185 113.743Z" fill="#FFD00D"/>
<path d="M163.197 118.852C163.174 118.908 163.153 118.96 163.128 119.016C162.781 119.824 162.42 120.628 162.053 121.423C160.829 124.042 159.476 126.585 158.001 129.047C157.825 129.346 157.643 129.645 157.461 129.939C156.048 132.239 154.525 134.466 152.905 136.613C152.868 136.665 152.826 136.72 152.787 136.773C148.188 142.839 142.794 148.272 136.755 152.909C136.7 152.954 136.64 153 136.581 153.045C134.441 154.682 132.217 156.223 129.921 157.651C129.613 157.845 129.304 158.033 128.995 158.22C126.532 159.712 123.989 161.085 121.37 162.324C120.653 162.664 119.928 162.997 119.195 163.316C100.752 160.441 86.6367 144.488 86.6367 125.235C86.6367 103.951 103.895 86.6934 125.183 86.6934C144.296 86.6934 160.158 100.604 163.197 118.852Z" fill="#FFE955"/>
<path d="M157.353 125.235C157.353 127.171 157.183 129.069 156.853 130.913C155.615 132.87 154.297 134.77 152.905 136.613C152.868 136.665 152.826 136.72 152.787 136.773C148.188 142.839 142.794 148.272 136.755 152.909C136.699 152.954 136.64 153 136.581 153.045C134.837 154.377 133.039 155.647 131.191 156.843C129.244 157.214 127.237 157.406 125.183 157.406C107.416 157.406 93.0127 143.002 93.0127 125.235C93.0127 107.471 107.416 93.0693 125.183 93.0693C142.95 93.0693 157.353 107.471 157.353 125.235Z" fill="#FFD00D"/>
<path d="M152.91 125.238C152.91 126.615 152.811 127.97 152.613 129.296C150.844 141.359 141.304 150.9 129.24 152.669C127.916 152.865 126.563 152.965 125.183 152.965C120.956 152.965 116.95 152.018 113.364 150.322C110.958 149.193 108.741 147.72 106.78 145.975C105.303 144.667 103.971 143.201 102.805 141.607C99.4418 137.02 97.4561 131.361 97.4561 125.238C97.4561 125.19 97.4561 125.146 97.4599 125.098C97.5313 109.892 109.844 97.583 125.046 97.5117C125.09 97.5078 125.138 97.5078 125.183 97.5078C131.309 97.5078 136.968 99.4935 141.555 102.859C143.149 104.023 144.615 105.359 145.92 106.835C147.668 108.801 149.137 111.013 150.267 113.419C151.964 117.006 152.91 121.011 152.91 125.238Z" fill="#FFE955"/>
<path d="M124.324 140.281C119.191 140.11 115 137.464 115 134.732C115 133.281 116.282 131.147 117.907 131.147C119.705 131.147 121.159 133.666 124.324 134.22V127.305C120.388 125.811 115.769 123.976 115.769 118.513C115.769 113.092 119.79 110.488 124.324 109.848V108.653C124.324 108.054 125.007 107.5 125.949 107.5C126.762 107.5 127.574 108.056 127.574 108.653V109.72C130.226 109.805 135.231 110.488 135.231 113.433C135.231 114.586 134.46 116.933 132.579 116.933C131.167 116.933 130.354 115.568 127.574 115.354V121.586C131.466 123.037 136 125.043 136 130.805C136 136.098 132.579 139.299 127.574 140.11V141.348C127.574 141.946 126.762 142.5 125.949 142.5C125.007 142.5 124.324 141.946 124.324 141.348V140.281ZM124.751 120.561V115.482C122.827 115.866 122.014 116.848 122.014 117.873C122.014 119.11 123.126 119.879 124.751 120.561ZM127.147 128.458V134.178C128.601 133.836 129.756 133.025 129.756 131.488C129.756 130.08 128.686 129.183 127.147 128.458Z" fill="#FFD00D"/>
</svg>
