<svg width="170" height="171" viewBox="0 0 170 171" fill="none" xmlns="http://www.w3.org/2000/svg">
<g clip-path="url(#clip0)">
<path d="M170 85.5C170 130.659 134.781 167.587 90.312 170.33V93.4688V80.2234V63.5859C90.312 59.9183 87.339 56.9453 83.6714 56.9453H4.9209C16.6526 24.0483 48.0737 0.5 84.9995 0.5C131.944 0.5 170 38.5558 170 85.5Z" fill="#2F2E41"/>
<path d="M115.5 26.5C129.031 26.5 140 37.469 140 51C140 64.531 129.031 75.5 115.5 75.5C101.969 75.5 91 64.531 91 51C91 37.469 101.969 26.5 115.5 26.5Z" fill="#747E9E"/>
<path d="M119.051 60.4932C119.051 62.4791 117.461 64.0891 115.5 64.0891C113.539 64.0891 111.949 62.4791 111.949 60.4932C111.949 58.5073 113.539 56.8973 115.5 56.8973C117.461 56.8973 119.051 58.5073 119.051 60.4932ZM115.5 47.9795C112.27 47.9795 109.397 49.5185 107.551 51.9102C107.409 52.0944 107.426 52.3575 107.589 52.5228L110.713 55.6858C111.016 55.993 111.519 55.9447 111.763 55.5869C112.581 54.385 113.949 53.5967 115.5 53.5967C117.051 53.5967 118.419 54.385 119.238 55.5869C119.481 55.9447 119.984 55.993 120.287 55.6858L123.411 52.5228C123.574 52.3575 123.591 52.0944 123.449 51.9102C121.603 49.5185 118.73 47.9795 115.5 47.9795ZM130.487 44.7392C126.818 40.5511 121.464 37.911 115.5 37.911C109.537 37.911 104.183 40.5511 100.514 44.7392C100.353 44.9231 100.36 45.2021 100.531 45.3758L104.576 49.4717C104.765 49.6634 105.076 49.6494 105.248 49.4422C107.708 46.4905 111.387 44.6152 115.5 44.6152C119.613 44.6152 123.293 46.4904 125.752 49.4422C125.925 49.6495 126.235 49.6635 126.424 49.4717L130.469 45.3758C130.641 45.2021 130.648 44.9231 130.487 44.7392Z" fill="white"/>
<path d="M103.838 45.3759L106.537 48.1049C106.081 48.5207 105.653 48.9674 105.256 49.4423C105.083 49.6497 104.773 49.6637 104.583 49.4719L100.531 45.3759C100.36 45.2021 100.352 44.9231 100.514 44.7393C104.189 40.5511 109.551 37.911 115.525 37.911C116.082 37.911 116.633 37.934 117.178 37.9791C111.873 38.4167 107.153 40.9415 103.82 44.7392C103.659 44.9231 103.666 45.2021 103.838 45.3759ZM107.563 51.9102C107.421 52.0944 107.438 52.3575 107.601 52.5228L110.73 55.6858C111.034 55.993 111.537 55.9447 111.781 55.5869C112.072 55.1606 112.433 54.7878 112.846 54.4823L110.908 52.5228C110.744 52.3575 110.727 52.0944 110.87 51.9102C112.397 49.9349 114.626 48.5422 117.178 48.1168C116.64 48.0271 116.088 47.9794 115.525 47.9794C112.29 47.9795 109.412 49.5185 107.563 51.9102ZM117.178 57.3095C116.684 57.0468 116.122 56.8973 115.525 56.8973C113.561 56.8973 111.968 58.5073 111.968 60.4932C111.968 62.4791 113.561 64.0891 115.525 64.0891C116.122 64.0891 116.684 63.9397 117.178 63.6769C116.047 63.0751 115.275 61.8756 115.275 60.4932C115.275 59.1108 116.047 57.9113 117.178 57.3095Z" fill="#F9F9F9"/>
<path d="M96.9532 56.9453V73.5827V86.8281V169.659C93.0472 170.209 89.0579 170.5 85.0001 170.5C83.9994 170.5 83.0043 170.476 82.0118 170.442V108.41V78.5273C82.0118 76.6935 80.5253 75.207 78.6915 75.207H0.625C1.68617 66.4245 4.07979 58.0523 7.60895 50.3047H90.3126C93.9802 50.3047 96.9532 53.2777 96.9532 56.9453Z" fill="#E1245A"/>
<path d="M86.9922 73.5469V103.43V170.475C86.3298 170.49 85.6661 170.5 85 170.5C38.0558 170.5 0 132.444 0 85.5C0 80.2854 0.472149 75.1818 1.37096 70.2266H83.6719C85.5057 70.2266 86.9922 71.7131 86.9922 73.5469Z" fill="#F5F5F5"/>
<path opacity="0.3" d="M51.7969 60.2656C51.7969 62.0994 50.3104 63.5859 48.4766 63.5859H28.5547C26.7209 63.5859 25.2344 62.0994 25.2344 60.2656C25.2344 58.4318 26.7209 56.9453 28.5547 56.9453H48.4766C50.3104 56.9453 51.7969 58.4318 51.7969 60.2656ZM16.6016 56.9453C14.7678 56.9453 13.2812 58.4318 13.2812 60.2656C13.2812 62.0994 14.7678 63.5859 16.6016 63.5859C18.4354 63.5859 19.9219 62.0994 19.9219 60.2656C19.9219 58.4318 18.4354 56.9453 16.6016 56.9453ZM59.7656 56.9453C57.9318 56.9453 56.4453 58.4318 56.4453 60.2656C56.4453 62.0994 57.9318 63.5859 59.7656 63.5859C61.5994 63.5859 63.0859 62.0994 63.0859 60.2656C63.0859 58.4318 61.5994 56.9453 59.7656 56.9453Z" fill="white"/>
<path d="M0.0252344 83.5078H73.0469V169.659C31.7634 163.848 0 128.386 0 85.5C0 84.8339 0.00996094 84.1702 0.0252344 83.5078Z" fill="#CDF5FF"/>
<path d="M73.0469 81.0176H0.117539C0.0405078 82.5021 0 83.9962 0 85.5C0 85.6663 0.0053125 85.8317 0.00630859 85.998H8.97978V107.58H2.90262C3.35352 109.261 3.8509 110.923 4.40074 112.561H8.98012V123.554C10.4746 126.534 12.1391 129.412 13.9606 132.179V112.561H29.5056V134.143H15.292C16.4854 135.85 17.7394 137.511 19.0516 139.123H29.5056V149.884C31.114 151.271 32.7761 152.598 34.4861 153.864V139.123H50.0311V160.705H45.3638C49.0101 162.631 52.8129 164.299 56.7491 165.686H70.5566V169.272C72.2012 169.554 73.8617 169.787 75.5371 169.973V83.5078C75.5371 82.1322 74.4221 81.0176 73.0469 81.0176ZM29.5056 107.58H13.9603V85.998H29.5053L29.5056 107.58ZM50.0311 134.143H34.4861V112.561H50.0311V134.143ZM50.0311 107.58H34.4861V85.998H50.0311V107.58ZM70.5566 160.705H55.0116V139.123H70.5566V160.705ZM70.5566 134.143H55.0116V112.561H70.5566V134.143ZM70.5566 107.58H55.0116V85.998H70.5566V107.58Z" fill="#87DCFA"/>
<path d="M63.0859 110.07C63.0859 121.073 54.1666 129.992 43.1641 129.992C32.1615 129.992 23.2422 121.073 23.2422 110.07C23.2422 99.0678 32.1615 90.1484 43.1641 90.1484C54.1666 90.1484 63.0859 99.0678 63.0859 110.07Z" fill="#FF4682"/>
<path d="M53.623 110.07C53.623 115.847 48.9404 120.529 43.1641 120.529C37.3877 120.529 32.7051 115.847 32.7051 110.07C32.7051 104.294 37.3877 99.6113 43.1641 99.6113C48.9404 99.6113 53.623 104.294 53.623 110.07Z" fill="#E1245A"/>
</g>
<defs>
<clipPath id="clip0">
<rect width="170" height="170" fill="white" transform="translate(0 0.5)"/>
</clipPath>
</defs>
</svg>
