<svg width="170" height="171" viewBox="0 0 170 171" fill="none" xmlns="http://www.w3.org/2000/svg">
<path d="M170 85.5C170 132.445 131.945 170.5 85 170.5C38.0552 170.5 0 132.445 0 85.5C0 38.5552 38.0552 0.5 85 0.5C131.945 0.5 170 38.5552 170 85.5Z" fill="#2F2E41"/>
<path d="M144.563 89.9254V146.142C141.585 149.067 138.391 151.774 135.007 154.241C134.356 154.716 133.699 155.18 133.032 155.635C119.365 165.011 102.823 170.5 84.9998 170.5C67.1765 170.5 50.6346 165.011 36.9681 155.635C36.3002 155.18 35.6439 154.716 34.9928 154.241C31.6089 151.774 28.4144 149.067 25.4365 146.142V89.9254C25.4365 85.9151 28.6868 82.6648 32.6984 82.6648H137.301C141.313 82.6648 144.563 85.9151 144.563 89.9254Z" fill="#F5F5F5"/>
<path d="M144.561 89.9253V96.636H25.4375V89.9253C25.4375 85.9163 28.6878 82.6635 32.6968 82.6635H137.302C141.311 82.6635 144.561 85.9163 144.561 89.9253Z" fill="#E1245A"/>
<path d="M52.6776 107.13H35.7518C34.8075 107.13 34.041 106.364 34.041 105.419V102.928C34.041 101.984 34.8075 101.217 35.7518 101.217H52.6776C53.6218 101.217 54.3883 101.984 54.3883 102.928V105.419C54.3883 106.364 53.6218 107.13 52.6776 107.13Z" fill="#65B2FF"/>
<path d="M34.9932 129.366H46.0254V140.398H34.9932V129.366Z" fill="#65B2FF"/>
<path d="M49.8232 129.366H60.8555V140.398H49.8232V129.366Z" fill="#65B2FF"/>
<path d="M64.6543 129.366H75.6866V140.398H64.6543V129.366Z" fill="#E1245A"/>
<path d="M79.4844 129.366H90.5166V140.398H79.4844V129.366Z" fill="#65B2FF"/>
<path d="M94.3135 129.366H105.346V140.398H94.3135V129.366Z" fill="#65B2FF"/>
<path d="M109.145 129.366H120.177V140.398H109.145V129.366Z" fill="#65B2FF"/>
<path d="M123.975 129.366H135.007V140.398H123.975V129.366Z" fill="#E1245A"/>
<path d="M46.0267 144.602V155.635H36.9685C36.3005 155.18 35.6443 154.716 34.9932 154.241V144.602H46.0267Z" fill="#65B2FF"/>
<path d="M49.8232 144.602H60.8555V155.634H49.8232V144.602Z" fill="#65B2FF"/>
<path d="M64.6543 144.602H75.6866V155.634H64.6543V144.602Z" fill="#65B2FF"/>
<path d="M79.4844 144.602H90.5166V155.634H79.4844V144.602Z" fill="#65B2FF"/>
<path d="M94.3135 144.602H105.346V155.634H94.3135V144.602Z" fill="#E1245A"/>
<path d="M109.145 144.602H120.177V155.634H109.145V144.602Z" fill="#65B2FF"/>
<path d="M135.007 144.602V154.241C134.356 154.716 133.7 155.18 133.032 155.635H123.974V144.602H135.007Z" fill="#E1245A"/>
<path d="M34.9932 114.131H46.0254V125.163H34.9932V114.131Z" fill="#65B2FF"/>
<path d="M49.8232 114.131H60.8555V125.163H49.8232V114.131Z" fill="#65B2FF"/>
<path d="M64.6543 114.131H75.6866V125.163H64.6543V114.131Z" fill="#65B2FF"/>
<path d="M79.4844 114.131H90.5166V125.163H79.4844V114.131Z" fill="#65B2FF"/>
<path d="M94.3135 114.131H105.346V125.163H94.3135V114.131Z" fill="#65B2FF"/>
<path d="M109.145 114.131H120.177V125.163H109.145V114.131Z" fill="#65B2FF"/>
<path d="M123.975 114.131H135.007V125.163H123.975V114.131Z" fill="#E1245A"/>
<path d="M41.094 90.2587C39.155 90.2587 37.583 88.6867 37.583 86.7477V77.2303C37.583 75.2913 39.155 73.7194 41.094 73.7194C43.033 73.7194 44.6049 75.2913 44.6049 77.2303V86.7477C44.6049 88.6867 43.033 90.2587 41.094 90.2587Z" fill="white"/>
<path d="M55.7287 90.2587C53.7897 90.2587 52.2178 88.6867 52.2178 86.7477V77.2303C52.2178 75.2913 53.7897 73.7194 55.7287 73.7194C57.6678 73.7194 59.2397 75.2913 59.2397 77.2303V86.7477C59.2397 88.6867 57.6678 90.2587 55.7287 90.2587Z" fill="white"/>
<path d="M70.3645 90.2587C68.4255 90.2587 66.8535 88.6867 66.8535 86.7477V77.2303C66.8535 75.2913 68.4255 73.7194 70.3645 73.7194C72.3035 73.7194 73.8755 75.2913 73.8755 77.2303V86.7477C73.8755 88.6867 72.3035 90.2587 70.3645 90.2587Z" fill="white"/>
<path d="M88.5112 77.229V86.749C88.5112 88.6867 86.9392 90.2574 85.0002 90.2574C83.0612 90.2574 81.4893 88.6867 81.4893 86.749V77.229C81.4893 75.2913 83.0612 73.7181 85.0002 73.7181C85.9717 73.7181 86.8471 74.1124 87.484 74.7453C88.1182 75.3821 88.5112 76.2615 88.5112 77.229Z" fill="white"/>
<path d="M99.635 90.2587C97.696 90.2587 96.124 88.6867 96.124 86.7477V77.2303C96.124 75.2913 97.696 73.7194 99.635 73.7194C101.574 73.7194 103.146 75.2913 103.146 77.2303V86.7477C103.146 88.6867 101.574 90.2587 99.635 90.2587Z" fill="white"/>
<path d="M114.271 90.2587C112.332 90.2587 110.76 88.6867 110.76 86.7477V77.2303C110.76 75.2913 112.332 73.7194 114.271 73.7194C116.21 73.7194 117.782 75.2913 117.782 77.2303V86.7477C117.782 88.6867 116.21 90.2587 114.271 90.2587Z" fill="white"/>
<path d="M128.906 90.2587C126.966 90.2587 125.395 88.6867 125.395 86.7477V77.2303C125.395 75.2913 126.966 73.7194 128.906 73.7194C130.845 73.7194 132.416 75.2913 132.416 77.2303V86.7477C132.416 88.6867 130.845 90.2587 128.906 90.2587Z" fill="white"/>
<path d="M109.145 41.415C109.145 54.7443 98.3413 65.547 85.0172 65.556H85.0004C71.6672 65.556 60.8555 54.7482 60.8555 41.415C60.8555 28.078 71.6672 17.2701 85.0004 17.2701H85.0211C98.3452 17.2831 109.145 28.0858 109.145 41.415Z" fill="#747E9E"/>
<path d="M100.609 41.4151C100.609 50.0336 93.6224 57.0231 85 57.0231C81.5967 57.0231 78.4488 55.9375 75.886 54.088C71.9496 51.2502 69.3906 46.6303 69.3906 41.4151C69.3906 36.1908 71.9535 31.567 75.8938 28.733C78.4566 26.8887 81.6006 25.8018 85 25.8018C93.6224 25.8018 100.609 32.7926 100.609 41.4151Z" fill="white"/>
<path d="M92.6185 45.5063H83V32.5H85.3242V43.1821H92.6185V45.5063Z" fill="#323B5A"/>
</svg>
