<svg width="170" height="171" viewBox="0 0 170 171" fill="none" xmlns="http://www.w3.org/2000/svg">
<path d="M165.519 85.583C165.519 131.29 128.466 168.343 82.7588 168.343C37.0526 168.343 0 131.29 0 85.583C0 39.8768 37.0526 2.82422 82.7588 2.82422C128.466 2.82422 165.519 39.8768 165.519 85.583Z" fill="#E1245A"/>
<path d="M160.549 30.8186C156.977 30.8186 43.197 30.8186 39.6237 30.8186C34.4267 30.8186 30.1738 35.0715 30.1738 40.2698V44.5006C51.3784 44.5006 143.658 44.5006 146.87 44.5006C152.067 44.5006 156.321 48.7535 156.321 53.9505V120.483C158.702 120.483 160.189 120.483 160.549 120.483C165.748 120.483 170 116.23 170 111.031V40.2698C170 35.0715 165.748 30.8186 160.549 30.8186Z" fill="#CCE6ED"/>
<path d="M170 65.5457V46.7782H153.003C155.029 48.5149 156.321 51.0894 156.321 53.9506V65.5457H170Z" fill="#383C6B"/>
<path d="M148.607 42.7627C145.035 42.7627 31.2536 42.7627 27.6817 42.7627C22.4833 42.7627 18.2305 47.0155 18.2305 52.2126V122.975C18.2305 128.174 22.4833 132.427 27.6817 132.427C31.2549 132.427 145.035 132.427 148.607 132.427C153.804 132.427 158.057 128.174 158.057 122.975V52.2126C158.057 47.0155 153.804 42.7627 148.607 42.7627Z" fill="#2F2E41"/>
<path d="M132.37 95.6011C130.134 95.6011 128.038 96.2029 126.232 97.2483C134.411 101.981 134.407 113.775 126.232 118.505C134.343 123.199 144.645 117.366 144.645 107.877C144.645 101.096 139.149 95.6011 132.37 95.6011Z" fill="#FFE955"/>
<path d="M126.232 97.2483C124.427 96.2029 122.331 95.6011 120.095 95.6011C113.316 95.6011 107.82 101.098 107.82 107.876C107.82 117.365 118.121 123.199 126.232 118.505C118.054 113.772 118.058 101.978 126.232 97.2483Z" fill="#E1245A"/>
<path d="M126.233 97.2482C118.054 101.981 118.058 113.775 126.233 118.505C134.412 113.772 134.408 101.978 126.233 97.2482Z" fill="#FFE955"/>
<path d="M120.095 58.7689H132.37C133.81 58.7689 134.977 57.6016 134.977 56.1619C134.977 54.7222 133.81 53.5549 132.37 53.5549H120.095C118.656 53.5549 117.488 54.7222 117.488 56.1619C117.488 57.6016 118.656 58.7689 120.095 58.7689Z" fill="white"/>
<path d="M120.095 68.4068H140.348C141.788 68.4068 142.955 67.2408 142.955 65.8012C142.955 64.3615 141.788 63.1942 140.348 63.1942H120.095C118.656 63.1942 117.488 64.3615 117.488 65.8012C117.488 67.2408 118.656 68.4068 120.095 68.4068Z" fill="white"/>
<path d="M140.348 72.8335H120.095C118.656 72.8335 117.488 74.0008 117.488 75.4392C117.488 76.8788 118.656 78.0461 120.095 78.0461H140.348C141.788 78.0461 142.955 76.8788 142.955 75.4392C142.955 74.0008 141.788 72.8335 140.348 72.8335Z" fill="white"/>
<path d="M54.0606 59.8739V73.4262C54.0606 76.2679 51.7351 78.5935 48.8934 78.5935H35.3411C32.4993 78.5935 30.1738 76.2679 30.1738 73.4262V59.8739C30.1738 57.0322 32.4993 54.7067 35.3411 54.7067H48.8934C51.7351 54.7067 54.0606 57.0322 54.0606 59.8739Z" fill="#FFCD38"/>
<path d="M42.1172 78.5935H48.8927C51.7344 78.5935 54.0599 76.2679 54.0599 73.4262V59.8739C54.0599 57.0322 51.7357 54.7067 48.8927 54.7067H42.1172V78.5935Z" fill="#FFE955"/>
<path d="M48.8927 78.5935C51.7344 78.5935 54.0599 76.2679 54.0599 73.4262V66.6494H42.1172V78.5935H48.8927Z" fill="#FFAC00"/>
<path d="M52.1429 87.5946C48.7863 87.5946 45.5321 88.0343 42.4297 88.8566C58.659 93.1587 70.6549 107.97 70.6549 125.533C70.6549 141.214 61.0883 154.693 47.4893 160.466C49.7759 161.545 52.1196 162.526 54.5151 163.395C74.3345 162.167 90.0814 145.656 90.0814 125.533C90.0814 104.614 73.0635 87.5946 52.1429 87.5946Z" fill="#FFE955"/>
<path d="M58.4326 153.399C71.1704 150.526 80.7163 139.127 80.7163 125.533C80.7163 111.939 71.1704 100.54 58.4326 97.6671C65.9435 104.602 70.6568 114.527 70.6568 125.533C70.6568 136.539 65.9435 146.464 58.4326 153.399Z" fill="#FFAC00"/>
<path d="M14.4418 92.6776C9.34848 95.6179 5.1955 99.5685 2.08789 104.131C7.83618 129.236 25.0032 149.982 47.8304 160.626C49.3751 159.989 50.8952 159.246 52.3802 158.389C70.4967 147.93 76.7262 124.681 66.2672 106.563C55.8069 88.4468 32.5582 82.2173 14.4418 92.6776Z" fill="#FFCD38"/>
<path d="M19.1253 100.789C12.6805 104.509 8.237 110.379 6.16699 116.974C12.3524 132.048 22.8529 144.891 36.138 153.966C40.0951 153.592 44.0354 152.391 47.6968 150.277C61.3412 142.4 66.0338 124.891 58.1558 111.247C50.2779 97.6022 32.7684 92.9109 19.1253 100.789Z" fill="#FFE955"/>
<path d="M19.3568 133.647C13.7214 123.886 12.9328 112.636 16.2362 102.699C11.3414 106.375 7.91341 111.419 6.16895 116.978C12.3543 132.051 22.8561 144.893 36.1387 153.966C39.0011 153.696 41.8532 152.994 44.599 151.825C34.341 149.717 24.9923 143.408 19.3568 133.647Z" fill="#FFE955"/>
<path d="M47.4608 119.405C47.4608 115.013 44.2001 111.37 39.9745 110.764V107.703C39.9745 106.268 38.8098 105.102 37.3727 105.102C35.9357 105.102 34.771 106.268 34.771 107.703V110.675H31.6491V107.703C31.6491 106.268 30.4844 105.102 29.0473 105.102C27.6102 105.102 26.4455 106.268 26.4455 107.703V110.675H21.9631C20.526 110.675 19.3613 111.839 19.3613 113.277C19.3613 114.714 20.526 115.878 21.9631 115.878H23.002V122.931H21.9631C20.526 122.931 19.3613 124.096 19.3613 125.533C19.3613 126.97 20.526 128.135 21.9631 128.135H23.002V135.189H21.9631C20.526 135.189 19.3613 136.354 19.3613 137.791C19.3613 139.228 20.526 140.393 21.9631 140.393H26.4455V143.363C26.4455 144.8 27.6102 145.965 29.0473 145.965C30.4844 145.965 31.6491 144.8 31.6491 143.363V140.393H34.771V143.363C34.771 144.8 35.9357 145.965 37.3727 145.965C38.8098 145.965 39.9745 144.8 39.9745 143.363V140.302C44.2001 139.696 47.4608 136.054 47.4608 131.663C47.4608 129.276 46.4971 127.112 44.9407 125.533C46.4971 123.956 47.4608 121.791 47.4608 119.405ZM28.2043 115.878H38.7294C40.6749 115.878 42.2572 117.461 42.2572 119.405C42.2572 121.349 40.6749 122.931 38.7294 122.931H28.2043V115.878ZM38.7294 135.188H28.2043V128.135H38.7294C40.6749 128.135 42.2572 129.717 42.2572 131.661C42.2572 133.607 40.6749 135.188 38.7294 135.188Z" fill="#FFD00D"/>
<path d="M121.263 113.09C122.331 115.361 124.072 117.254 126.233 118.505C128.718 117.066 130.65 114.782 131.64 112.046C128.456 113.954 124.641 114.279 121.263 113.09Z" fill="#FFE955"/>
</svg>
