<svg width="170" height="171" viewBox="0 0 170 171" fill="none" xmlns="http://www.w3.org/2000/svg">
<g clip-path="url(#clip0)">
<path d="M166.267 85.6258C166.267 131.54 129.047 168.759 83.1336 168.759C37.2199 168.759 0 131.54 0 85.6258C0 39.7121 37.2199 2.49219 83.1336 2.49219C129.047 2.49219 166.267 39.7121 166.267 85.6258Z" fill="#2F2E41"/>
<path d="M118.424 117.522C118.424 119.396 116.904 120.916 115.03 120.916C113.157 120.916 111.637 119.396 111.637 117.522C111.637 115.649 113.157 114.129 115.03 114.129C116.904 114.129 118.424 115.649 118.424 117.522ZM125.21 114.129C123.336 114.129 121.817 115.649 121.817 117.522C121.817 119.396 123.336 120.916 125.21 120.916C127.084 120.916 128.603 119.396 128.603 117.522C128.603 115.649 127.084 114.129 125.21 114.129ZM135.39 114.129C133.516 114.129 131.996 115.649 131.996 117.522C131.996 119.396 133.516 120.916 135.39 120.916C137.264 120.916 138.783 119.396 138.783 117.522C138.783 115.649 137.264 114.129 135.39 114.129ZM42.909 59.3123L22.8367 48.3333C21.7291 47.7289 20.3789 48.5291 20.3789 49.7911V71.7479C20.3789 73.0086 21.7291 73.8089 22.8367 73.2045L42.909 62.2254C44.0608 61.5963 44.0608 59.9414 42.909 59.3123Z" fill="#FFF5F5"/>
<path d="M164.91 90.3767H59.0416C56.231 90.3767 53.9521 88.0978 53.9521 85.2859V17.4219C53.9521 14.6113 56.231 12.3325 59.0416 12.3325H164.91C167.721 12.3325 170 14.6113 170 17.4219V85.2859C170 88.0978 167.721 90.3767 164.91 90.3767Z" fill="#FF3445"/>
<path d="M170 17.4219V85.286C170 88.0978 167.722 90.3767 164.911 90.3767H142.278L122.573 105.267C120.338 106.957 117.135 105.362 117.135 102.561V90.3767H69.8541C67.0435 90.3767 64.7646 88.0978 64.7646 85.286V17.4219C64.7646 14.6113 67.0435 12.3325 69.8541 12.3325H164.911C167.722 12.3325 170 14.6113 170 17.4219Z" fill="#E1245A"/>
<path d="M133.354 41.1751V37.7821C133.354 36.8444 134.114 36.0844 135.05 36.0844H157.445C158.382 36.0844 159.142 36.8444 159.142 37.7821V41.1751C159.142 42.1115 158.382 42.8715 157.445 42.8715H135.05C134.114 42.8715 133.354 42.1115 133.354 41.1751ZM160.5 49.6574H135.05C134.114 49.6574 133.354 50.4175 133.354 51.3539V54.7481C133.354 55.6846 134.114 56.4446 135.05 56.4446H160.5C161.436 56.4446 162.196 55.6846 162.196 54.7481V51.3539C162.196 50.4175 161.436 49.6574 160.5 49.6574ZM155.749 63.2305H135.05C134.114 63.2305 133.354 63.9905 133.354 64.927V68.3199C133.354 69.2576 134.114 70.0177 135.05 70.0177H155.749C156.685 70.0177 157.445 69.2576 157.445 68.3199V64.927C157.445 63.9905 156.685 63.2305 155.749 63.2305Z" fill="white"/>
<path d="M87.2137 48.4812L62.2802 37.6409C60.9209 37.0494 60.9209 35.1208 62.2802 34.5294L87.2137 23.6891C88.94 22.9381 90.8997 22.9381 92.626 23.6891L117.558 34.5294C118.919 35.1208 118.919 37.0494 117.558 37.6409L92.626 48.4812C90.8997 49.2321 88.94 49.2321 87.2137 48.4812ZM106.246 49.7924L93.7609 54.8793C91.2979 55.8831 88.5405 55.8831 86.0788 54.8793L73.5939 49.7924C72.4772 49.3385 71.2567 50.1582 71.2567 51.3631V71.7143C71.2567 72.6507 72.0167 73.4108 72.9532 73.4108H106.885C107.823 73.4108 108.582 72.6507 108.582 71.7143V51.3631C108.583 50.1582 107.361 49.3385 106.246 49.7924ZM118.423 60.3228V45.4696C118.423 44.3036 117.256 43.4981 116.167 43.9119C115.521 44.1557 115.094 44.7744 115.091 45.4644L115.049 60.3111C113.062 61.4667 111.636 64.6158 111.636 68.32H121.816C121.816 64.6275 120.4 61.4875 118.423 60.3228Z" fill="white"/>
<path d="M97.047 141.275H14.9302C12.1196 141.275 9.84082 138.996 9.84082 136.185V85.286C9.84082 82.4754 12.1196 80.1966 14.9302 80.1966H97.047C99.8576 80.1966 102.136 82.4754 102.136 85.286V136.185C102.136 138.996 99.8576 141.275 97.047 141.275Z" fill="#FFD00D"/>
<path d="M102.136 85.286V136.185C102.136 138.996 99.8572 141.275 97.0466 141.275H81.0974V153.459C81.0974 156.26 77.8938 157.856 75.6591 156.166L55.9538 141.275H25.1099C22.2993 141.275 20.0205 138.996 20.0205 136.185V85.286C20.0205 82.4754 22.2993 80.1966 25.1099 80.1966H97.0466C99.8572 80.1966 102.136 82.4754 102.136 85.286Z" fill="#FFE955"/>
<path d="M83.1332 109.039V112.432C83.1332 113.369 82.3732 114.129 81.4367 114.129H35.2896C34.3518 114.129 33.5918 113.369 33.5918 112.432V109.039C33.5918 108.103 34.3518 107.343 35.2896 107.343H81.4367C82.3732 107.343 83.1332 108.103 83.1332 109.039ZM61.0778 120.916H35.2896C34.3518 120.916 33.5918 121.675 33.5918 122.612V126.005C33.5918 126.942 34.3518 127.702 35.2896 127.702H61.0778C62.0142 127.702 62.7742 126.942 62.7742 126.005V122.612C62.7742 121.675 62.0142 120.916 61.0778 120.916Z" fill="white"/>
<path d="M83.1332 95.4661V98.8591C83.1332 99.7968 82.3732 100.556 81.4367 100.556H35.2896C34.3518 100.556 33.5918 99.7968 33.5918 98.8591V95.4661C33.5918 94.5297 34.3518 93.7697 35.2896 93.7697H81.4367C82.3732 93.7697 83.1332 94.5297 83.1332 95.4661ZM65.8274 107.343H35.2896C34.3518 107.343 33.5918 108.103 33.5918 109.039V112.432C33.5918 113.369 34.3518 114.129 35.2896 114.129H65.8274C66.7651 114.129 67.5251 113.369 67.5251 112.432V109.039C67.5251 108.103 66.7651 107.343 65.8274 107.343Z" fill="white"/>
</g>
<defs>
<clipPath id="clip0">
<rect width="170" height="170" fill="white" transform="translate(0 0.5)"/>
</clipPath>
</defs>
</svg>
