<svg width="56" height="56" viewBox="0 0 56 56" fill="none" xmlns="http://www.w3.org/2000/svg">
<path d="M9.03226 23.6452C10.23 23.6452 11.3787 23.1694 12.2256 22.3224C13.0726 21.4755 13.5484 20.3268 13.5484 19.129C13.5484 17.9313 13.0726 16.7826 12.2256 15.9356C11.3787 15.0887 10.23 14.6129 9.03226 14.6129C7.83451 14.6129 6.68581 15.0887 5.83887 15.9356C4.99193 16.7826 4.51613 17.9313 4.51613 19.129C4.51613 20.3268 4.99193 21.4755 5.83887 22.3224C6.68581 23.1694 7.83451 23.6452 9.03226 23.6452ZM9.03226 27.2581C7.96474 27.2581 6.90767 27.0478 5.92141 26.6393C4.93515 26.2308 4.03901 25.632 3.28416 24.8771C2.52931 24.1223 1.93053 23.2261 1.52201 22.2399C1.11349 21.2536 0.903226 20.1966 0.903226 19.129C0.903226 18.0615 1.11349 17.0044 1.52201 16.0182C1.93053 15.0319 2.52931 14.1358 3.28416 13.3809C4.03901 12.6261 4.93515 12.0273 5.92141 11.6188C6.90767 11.2103 7.96474 11 9.03226 11C11.1882 11 13.2559 11.8564 14.7804 13.3809C16.3048 14.9054 17.1613 16.9731 17.1613 19.129C17.1613 21.285 16.3048 23.3526 14.7804 24.8771C13.2559 26.4016 11.1882 27.2581 9.03226 27.2581ZM28 30.871C28.9582 30.871 29.8772 30.4903 30.5547 29.8128C31.2323 29.1352 31.6129 28.2163 31.6129 27.2581C31.6129 26.2999 31.2323 25.3809 30.5547 24.7034C29.8772 24.0258 28.9582 23.6452 28 23.6452C27.0418 23.6452 26.1228 24.0258 25.4453 24.7034C24.7677 25.3809 24.3871 26.2999 24.3871 27.2581C24.3871 28.2163 24.7677 29.1352 25.4453 29.8128C26.1228 30.4903 27.0418 30.871 28 30.871ZM28 34.4839C26.0836 34.4839 24.2457 33.7226 22.8906 32.3675C21.5355 31.0124 20.7742 29.1745 20.7742 27.2581C20.7742 25.3417 21.5355 23.5037 22.8906 22.1486C24.2457 20.7935 26.0836 20.0323 28 20.0323C29.9164 20.0323 31.7543 20.7935 33.1094 22.1486C34.4645 23.5037 35.2258 25.3417 35.2258 27.2581C35.2258 29.1745 34.4645 31.0124 33.1094 32.3675C31.7543 33.7226 29.9164 34.4839 28 34.4839ZM32.5161 45.3226V44.4194C32.5161 43.2216 32.0403 42.0729 31.1934 41.226C30.3465 40.379 29.1978 39.9032 28 39.9032C26.8023 39.9032 25.6536 40.379 24.8066 41.226C23.9597 42.0729 23.4839 43.2216 23.4839 44.4194V45.3226H19.871V44.4194C19.871 43.3518 20.0812 42.2948 20.4898 41.3085C20.8983 40.3222 21.4971 39.4261 22.2519 38.6713C23.0068 37.9164 23.9029 37.3176 24.8892 36.9091C25.8754 36.5006 26.9325 36.2903 28 36.2903C29.0675 36.2903 30.1246 36.5006 31.1109 36.9091C32.0971 37.3176 32.9932 37.9164 33.7481 38.6713C34.5029 39.4261 35.1017 40.3222 35.5102 41.3085C35.9188 42.2948 36.129 43.3518 36.129 44.4194V45.3226H32.5161ZM14.4516 45.3226V38.0968C14.4516 36.6595 13.8806 35.281 12.8643 34.2647C11.848 33.2484 10.4696 32.6774 9.03226 32.6774C7.59496 32.6774 6.21652 33.2484 5.2002 34.2647C4.18387 35.281 3.6129 36.6595 3.6129 38.0968V45.3226H0V38.0968C0 35.7013 0.95161 33.4039 2.64549 31.71C4.33936 30.0161 6.63675 29.0645 9.03226 29.0645C11.4278 29.0645 13.7252 30.0161 15.419 31.71C17.1129 33.4039 18.0645 35.7013 18.0645 38.0968V45.3226H14.4516Z" fill="white"/>
<path d="M46.9659 23.6452C48.1636 23.6452 49.3123 23.1694 50.1592 22.3224C51.0062 21.4755 51.482 20.3268 51.482 19.129C51.482 17.9313 51.0062 16.7826 50.1592 15.9356C49.3123 15.0887 48.1636 14.6129 46.9659 14.6129C45.7681 14.6129 44.6194 15.0887 43.7725 15.9356C42.9255 16.7826 42.4497 17.9313 42.4497 19.129C42.4497 20.3268 42.9255 21.4755 43.7725 22.3224C44.6194 23.1694 45.7681 23.6452 46.9659 23.6452ZM46.9659 27.2581C45.8983 27.2581 44.8413 27.0478 43.855 26.6393C42.8687 26.2308 41.9726 25.632 41.2178 24.8771C40.4629 24.1223 39.8641 23.2261 39.4556 22.2399C39.0471 21.2536 38.8368 20.1966 38.8368 19.129C38.8368 18.0615 39.0471 17.0044 39.4556 16.0182C39.8641 15.0319 40.4629 14.1358 41.2178 13.3809C41.9726 12.6261 42.8687 12.0273 43.855 11.6188C44.8413 11.2103 45.8983 11 46.9659 11C49.1218 11 51.1895 11.8564 52.7139 13.3809C54.2384 14.9054 55.0949 16.9731 55.0949 19.129C55.0949 21.285 54.2384 23.3526 52.7139 24.8771C51.1895 26.4016 49.1218 27.2581 46.9659 27.2581ZM52.3852 45.3226V38.0968C52.3852 36.6595 51.8142 35.281 50.7979 34.2647C49.7816 33.2484 48.4032 32.6774 46.9659 32.6774C45.5285 32.6774 44.1501 33.2484 43.1338 34.2647C42.1175 35.281 41.5465 36.6595 41.5465 38.0968V45.3226H37.9336V38.0968C37.9336 35.7013 38.8852 33.4039 40.5791 31.71C42.273 30.0161 44.5703 29.0645 46.9659 29.0645C49.3614 29.0645 51.6587 30.0161 53.3526 31.71C55.0465 33.4039 55.9981 35.7013 55.9981 38.0968V45.3226H52.3852Z" fill="white"/>
</svg>
