<svg width="56" height="56" viewBox="0 0 56 56" fill="none" xmlns="http://www.w3.org/2000/svg">
<g clip-path="url(#clip0)">
<path d="M55.0062 20.3182L28.8565 6.74382C28.322 6.46641 27.686 6.46641 27.1513 6.74382L1.00178 20.3182C0.388785 20.6365 0.00405428 21.2696 0.00390625 21.9603C0.00390625 21.9603 0.00390625 21.9603 0.00390625 21.9604V29.0458C0.00390625 30.0675 0.832284 30.8961 1.85428 30.8961C2.87629 30.8961 3.70466 30.0675 3.70466 29.0458V25.0057L7.67084 27.0647V41.7999C7.67084 42.1858 7.79148 42.5621 8.01619 42.8762C8.20863 43.1452 12.9012 49.4642 28.004 49.4642C43.1068 49.4642 47.7989 43.1452 47.9915 42.8762C48.2159 42.5623 48.3364 42.1858 48.3364 41.7999V27.0647L55.0062 23.6025C55.6192 23.2843 56.0039 22.651 56.0039 21.9603C56.0039 21.2696 55.619 20.6365 55.0062 20.3182ZM44.6356 41.0855C43.4068 42.2667 38.8509 45.7637 28.004 45.7637C17.1571 45.7637 12.6008 42.2667 11.3719 41.0855V28.986L27.1515 37.1772C27.4188 37.3161 27.7113 37.3854 28.004 37.3854C28.2966 37.3854 28.5894 37.3159 28.8565 37.1772L44.6356 28.9861V41.0855ZM28.004 33.4501L5.87064 21.9606L28.004 10.4709L50.1373 21.9606L28.004 33.4501Z" fill="white"/>
<path d="M1.85038 32.5277C0.828377 32.5277 0 33.3562 0 34.3781V36.6159C0 37.6377 0.828377 38.4662 1.85038 38.4662C2.87238 38.4662 3.70076 37.6377 3.70076 36.6159V34.3781C3.70076 33.3562 2.87238 32.5277 1.85038 32.5277Z" fill="white"/>
</g>
<defs>
<clipPath id="clip0">
<rect width="56" height="56" fill="white"/>
</clipPath>
</defs>
</svg>
