<svg width="56" height="56" viewBox="0 0 56 56" fill="none" xmlns="http://www.w3.org/2000/svg">
<path d="M8.99609 11.6667V37.3333H46.3294V11.6667H8.99609ZM4.32943 9.34967C4.32943 8.05233 5.39109 7 6.64409 7H48.6814C49.9601 7 50.9961 8.04767 50.9961 9.34967V42H4.32943V9.34967ZM1.99609 44.3333H53.3294V49H1.99609V44.3333Z" fill="white"/>
<path d="M19 39C19 36.4741 20.0009 34.0517 21.7825 32.2656C23.5641 30.4796 25.9804 29.4762 28.5 29.4762C31.0196 29.4762 33.4359 30.4796 35.2175 32.2656C36.9991 34.0517 38 36.4741 38 39H35.625C35.625 37.1056 34.8743 35.2888 33.5381 33.9492C32.2019 32.6097 30.3897 31.8571 28.5 31.8571C26.6103 31.8571 24.7981 32.6097 23.4619 33.9492C22.1257 35.2888 21.375 37.1056 21.375 39H19ZM28.5 28.2857C24.5634 28.2857 21.375 25.0893 21.375 21.1429C21.375 17.1964 24.5634 14 28.5 14C32.4366 14 35.625 17.1964 35.625 21.1429C35.625 25.0893 32.4366 28.2857 28.5 28.2857ZM28.5 25.9048C31.1244 25.9048 33.25 23.7738 33.25 21.1429C33.25 18.5119 31.1244 16.381 28.5 16.381C25.8756 16.381 23.75 18.5119 23.75 21.1429C23.75 23.7738 25.8756 25.9048 28.5 25.9048Z" fill="white"/>
</svg>
