<svg width="170" height="170" viewBox="0 0 170 170" fill="none" xmlns="http://www.w3.org/2000/svg">
<g clip-path="url(#clip0)">
<path d="M170 85C170 96.3306 167.783 107.149 163.755 117.033C154.836 138.938 137.041 156.289 114.836 164.612C111.17 165.99 107.381 167.117 103.491 167.981C97.5381 169.302 91.3527 170 85 170C80.8678 170 76.8017 169.706 72.8264 169.136C71.7784 168.987 70.7369 168.817 69.7032 168.629C68.1702 168.349 66.6501 168.03 65.1482 167.668C63.9861 167.39 62.8343 167.09 61.693 166.763C61.6372 166.75 61.5775 166.732 61.5192 166.715C60.1936 166.333 58.8824 165.924 57.5854 165.48C54.2884 164.359 51.0835 163.04 47.985 161.538C45.9202 160.538 43.9021 159.461 41.9345 158.297C33.4937 153.33 25.9892 146.942 19.7403 139.462C7.41364 124.714 0 105.722 0 85C0 38.0552 38.0552 0 85 0C131.945 0 170 38.0552 170 85V85Z" fill="#2F2E41"/>
<path d="M103.491 133.867V167.981C97.538 169.302 91.3526 170 84.9999 170C58.7785 170 35.3327 158.127 19.7402 139.462V133.867C19.7402 119.254 29.6636 106.958 43.142 103.353C43.6348 103.222 44.1303 103.1 44.6335 102.992C45.9733 102.701 47.3468 102.499 48.745 102.385C49.5984 102.316 50.4583 102.281 51.3299 102.281H71.899C74.1998 102.281 76.4411 102.524 78.5993 102.992C78.7238 103.017 78.8483 103.044 78.9702 103.072C79.3347 103.155 79.6991 103.246 80.0558 103.342C80.0662 103.346 80.0739 103.346 80.0843 103.35C83.6394 104.301 86.9493 105.858 89.8922 107.901C98.1113 113.605 103.491 123.108 103.491 133.867V133.867Z" fill="black"/>
<path d="M80.1605 102.992L80.0853 103.35L69.1386 154.262C66.6614 154.481 64.1504 154.593 61.6174 154.593C59.0778 154.593 56.5694 154.481 54.0883 154.262L43.1429 103.353L43.0664 102.992H80.1605Z" fill="#F5F5F5"/>
<path d="M70.0943 113.678L61.6145 127.278L53.1348 113.678" fill="#E1245A"/>
<path d="M69.4445 154.231C68.0217 154.363 66.5885 161.392 65.1488 167.668C63.9867 167.39 62.835 167.09 61.6936 166.763C61.6378 166.75 61.5782 166.732 61.5198 166.715C60.1943 166.333 58.883 165.924 57.586 165.48C56.3085 159.867 55.0426 154.349 53.7871 154.235L61.6171 123.739L69.4445 154.231Z" fill="#E1245A"/>
<path d="M61.6135 115.212L47.3932 123.115L43.0664 102.993L51.9028 97.7884" fill="white"/>
<path d="M61.6133 115.212L75.8349 123.115L80.1603 102.993L71.3239 97.7884" fill="white"/>
<path d="M72.8843 90.1141V103.944C72.8843 109.007 69.5458 113.288 64.9466 114.709C63.8948 115.036 62.7716 115.212 61.6121 115.212C55.3878 115.212 50.3438 110.168 50.3438 103.944V90.1141H72.8843Z" fill="#EAB599"/>
<path d="M72.8854 103.068V103.944C72.8854 109.007 69.5469 113.288 64.9478 114.709C60.7987 113.434 57.6794 109.826 57.1035 105.412C57.8558 105.458 58.6132 105.481 59.3733 105.481C61.5055 105.481 63.595 105.312 65.6313 104.978C68.141 104.574 70.565 103.928 72.8854 103.068V103.068Z" fill="#F6CAAE"/>
<path d="M30.6991 67.4464C30.6991 72.6629 26.8885 76.9897 21.8976 77.7926C21.3529 77.8808 20.7913 77.9275 20.2193 77.9275C14.4295 77.9275 9.73828 73.2362 9.73828 67.4464C9.73828 61.6566 14.4295 56.9654 20.2193 56.9654C20.7913 56.9654 21.3529 57.0121 21.8976 57.1003C26.8885 57.9031 30.6991 62.2286 30.6991 67.4464Z" fill="#F6CAAE"/>
<path d="M30.6977 67.4464C30.6977 72.6629 26.8871 76.9897 21.8962 77.7926C20.9896 74.4956 20.5059 71.0261 20.5059 67.4464C20.5059 63.8654 20.9896 60.396 21.8962 57.1003C26.8871 57.9031 30.6977 62.2286 30.6977 67.4464Z" fill="#EAB599"/>
<path d="M23.9641 67.4464C23.9641 69.5151 22.2871 71.1921 20.2184 71.1921C18.1497 71.1921 16.4727 69.5151 16.4727 67.4464C16.4727 65.3777 18.1497 63.7007 20.2184 63.7007C22.2871 63.7007 23.9641 65.3777 23.9641 67.4464Z" fill="#EAB599"/>
<path d="M92.5293 67.4464C92.5293 72.6629 96.3399 76.9897 101.331 77.7926C101.877 77.8808 102.437 77.9275 103.01 77.9275C108.8 77.9275 113.49 73.2362 113.49 67.4464C113.49 61.6566 108.8 56.9654 103.01 56.9654C102.437 56.9654 101.877 57.0121 101.331 57.1003C96.3399 57.9031 92.5293 62.2286 92.5293 67.4464Z" fill="#F6CAAE"/>
<path d="M92.5293 67.4464C92.5293 72.6629 96.3399 76.9897 101.331 77.7926C102.237 74.4956 102.722 71.0261 102.722 67.4464C102.722 63.8654 102.237 60.396 101.331 57.1003C96.3399 57.9031 92.5293 62.2286 92.5293 67.4464Z" fill="#EAB599"/>
<path d="M100.61 47.0278V61.8771C100.61 81.2815 86.4333 97.3798 67.872 100.367C67.8098 100.377 67.7436 100.388 67.6814 100.398C65.7073 100.713 63.6814 100.87 61.6127 100.87C40.0787 100.87 22.6211 83.4112 22.6211 61.8771V47.0278C22.6211 42.4935 23.3941 38.1356 24.8234 34.0877C30.1566 18.9128 44.6169 8.03229 61.6127 8.03229H61.6166C63.6814 8.03229 65.7099 8.19182 67.6879 8.50439C86.34 11.4187 100.61 27.5586 100.61 47.0278Z" fill="#F6CAAE"/>
<path d="M106.756 67.4464C106.756 69.5151 105.079 71.1921 103.011 71.1921C100.942 71.1921 99.2637 69.5151 99.2637 67.4464C99.2637 65.3777 100.942 63.7007 103.011 63.7007C105.079 63.7007 106.756 65.3777 106.756 67.4464Z" fill="#EAB599"/>
<path d="M100.61 47.0278V61.8771C100.61 81.2815 86.4334 97.3798 67.8721 100.367C67.8099 100.377 67.7437 100.388 67.6815 100.398C49.0293 97.4836 34.7637 81.3438 34.7637 61.8771V47.0278C34.7637 27.5586 49.0332 11.4187 67.6879 8.50439C86.3401 11.4187 100.61 27.5586 100.61 47.0278Z" fill="#F6CAAE"/>
<path d="M53.311 59.6061C53.311 62.0497 51.3305 64.0302 48.8869 64.0302C46.4434 64.0302 44.4629 62.0497 44.4629 59.6061C44.4629 57.1626 46.4434 55.1833 48.8869 55.1833C51.3305 55.1833 53.311 57.1626 53.311 59.6061Z" fill="#3D4159"/>
<path d="M78.7667 59.6061C78.7667 62.0497 76.7862 64.0302 74.3427 64.0302C71.9004 64.0302 69.9199 62.0497 69.9199 59.6061C69.9199 57.1626 71.9004 55.1833 74.3427 55.1833C76.7862 55.1833 78.7667 57.1626 78.7667 59.6061Z" fill="#3D4159"/>
<path d="M52.4083 58.8253C52.4083 59.872 51.5601 60.7215 50.5134 60.7215C49.4667 60.7215 48.6172 59.872 48.6172 58.8253C48.6172 57.7787 49.4667 56.9304 50.5134 56.9304C51.5601 56.9304 52.4083 57.7787 52.4083 58.8253Z" fill="white"/>
<path d="M78.0821 58.8253C78.0821 59.872 77.2326 60.7215 76.1859 60.7215C75.1393 60.7215 74.291 59.872 74.291 58.8253C74.291 57.7787 75.1393 56.9304 76.1859 56.9304C77.2326 56.9304 78.0821 57.7787 78.0821 58.8253Z" fill="white"/>
<path d="M66.0379 69.0093H57.1911C56.1366 69.0093 55.2832 68.1546 55.2832 67.1001C55.2832 66.047 56.1366 65.1923 57.1911 65.1923H66.0379C67.0924 65.1923 67.9458 66.047 67.9458 67.1001C67.9458 68.1546 67.0924 69.0093 66.0379 69.0093Z" fill="#EAB599"/>
<path d="M61.6159 81.0818C58.35 81.0818 55.0855 80.2634 52.1089 78.6266C51.2684 78.1662 50.9623 77.1104 51.4241 76.2712C51.8858 75.4321 52.9402 75.126 53.7794 75.5864C58.6859 78.2842 64.5445 78.2842 69.451 75.5864C70.2889 75.126 71.3446 75.4321 71.8064 76.2712C72.2681 77.1104 71.962 78.1662 71.1216 78.6266C68.1462 80.2634 64.8804 81.0818 61.6159 81.0818Z" fill="#EAB599"/>
<path d="M100.61 33.552V48.7632H93.3515V36.8516L40.9632 27.1163L29.8791 25.0554V48.7632H22.6211V33.552C22.6211 16.2125 36.6754 2.1582 54.011 2.1582H69.2183C69.6308 2.1582 70.0432 2.16469 70.4569 2.18544C87.2167 2.83005 100.61 16.6249 100.61 33.552Z" fill="#1A1A1A"/>
<path d="M100.609 33.552V48.7632H93.3512V36.8516L40.9629 27.1163C43.85 13.2527 55.8784 2.74702 70.4566 2.18542C87.2164 2.83003 100.609 16.6249 100.609 33.552Z" fill="black"/>
<path d="M43.0654 101.258L61.519 166.715C56.8278 165.372 52.3039 163.63 47.9849 161.538L38.0174 130.147H42.5271L33.334 106.167L43.0654 101.258Z" fill="#191919"/>
<path d="M80.6983 130.147H85.2079L72.8268 169.136C69.0305 168.591 65.312 167.796 61.6934 166.763L80.16 101.258L89.8927 106.167L80.6983 130.147Z" fill="#191919"/>
<path d="M163.755 99.3176V117.033C154.835 138.938 137.041 156.289 114.836 164.612C111.169 165.99 107.381 167.117 103.491 167.981C97.538 169.302 91.3526 170 84.9999 170L69.7031 168.266V99.3176C69.7031 94.638 73.4994 90.8456 78.1751 90.8456H155.283C159.962 90.8456 163.755 94.638 163.755 99.3176V99.3176Z" fill="#F5F5F5"/>
<path d="M114.835 158.297V164.612C111.169 165.99 107.38 167.117 103.49 167.981C97.5372 169.302 91.3518 170 84.9991 170C80.8669 170 76.8008 169.706 72.8255 169.136C70.2263 168.765 67.666 168.272 65.1472 167.668C63.9851 167.39 62.8334 167.09 61.692 166.763C61.6363 166.75 61.5766 166.732 61.5182 166.715C60.1927 166.333 58.8815 165.924 57.5845 165.48C54.2875 164.359 51.0826 163.04 47.9841 161.538C45.9193 160.538 43.9011 159.461 41.9336 158.297H114.835Z" fill="#F5F5F5"/>
<path d="M163.755 99.3176V117.033C154.836 138.938 137.041 156.289 114.836 164.612C111.17 165.99 107.381 167.117 103.491 167.981C97.5381 169.302 91.3528 170 85.0001 170H74.5605V99.3176C74.5605 94.638 78.3556 90.8456 83.0325 90.8456H155.283C159.963 90.8456 163.755 94.638 163.755 99.3176V99.3176Z" fill="white"/>
<path d="M127.83 130.195C127.83 134.986 123.947 138.869 119.157 138.869C114.368 138.869 110.484 134.986 110.484 130.195C110.484 125.405 114.368 121.522 119.157 121.522C123.947 121.522 127.83 125.405 127.83 130.195V130.195Z" fill="#F5F5F5"/>
<path d="M93 7.79236H169.999V65.6709H93V7.79236Z" fill="white"/>
<path d="M130.36 62.0535L122.092 81.6914L158.266 61.0198L130.36 62.0535Z" fill="white"/>
<path d="M124.437 36.7323C124.437 39.0902 122.525 41.002 120.167 41.002C117.808 41.002 115.896 39.0902 115.896 36.7323C115.896 34.373 117.808 32.4612 120.167 32.4612C122.525 32.4612 124.437 34.373 124.437 36.7323V36.7323Z" fill="#3D4159"/>
<path d="M135.771 36.7323C135.771 39.0902 133.859 41.002 131.5 41.002C129.142 41.002 127.23 39.0902 127.23 36.7323C127.23 34.373 129.142 32.4612 131.5 32.4612C133.859 32.4612 135.771 34.373 135.771 36.7323Z" fill="#3D4159"/>
<path d="M147.102 36.7323C147.102 39.0902 145.19 41.002 142.832 41.002C140.474 41.002 138.562 39.0902 138.562 36.7323C138.562 34.373 140.474 32.4612 142.832 32.4612C145.19 32.4612 147.102 34.373 147.102 36.7323Z" fill="#3D4159"/>
</g>
<defs>
<clipPath id="clip0">
<rect width="170" height="170" fill="white"/>
</clipPath>
</defs>
</svg>
