<svg width="18" height="18" viewBox="0 0 18 18" fill="none" xmlns="http://www.w3.org/2000/svg">
<g clip-path="url(#clip0)">
<path d="M17.7527 8.76694L16.9161 9.76711L17.5574 10.931C17.6943 11.179 17.7225 11.4759 17.6353 11.7453C17.5477 12.0149 17.3503 12.2382 17.0938 12.3589L15.8956 12.9211L16.0078 14.2396C16.0521 14.7618 15.6918 15.2353 15.1698 15.3419L15.1462 15.3468L15.0797 15.3538L13.6799 15.382L13.2457 16.6323C13.1533 16.8997 12.9513 17.1196 12.6924 17.2345C12.4334 17.35 12.1354 17.3528 11.8745 17.243L10.6547 16.7287L9.74984 17.6944C9.55181 17.9058 9.28196 18.0148 9.00826 18.0173C9.00537 18.0177 9.00222 18.0177 8.99947 18.0177C8.78029 18.0177 8.55933 17.949 8.37036 17.8094L8.35004 17.7947L8.30005 17.7496L7.34355 16.7287L6.1238 17.243C5.86246 17.3528 5.56445 17.35 5.30545 17.2345C5.04686 17.1196 4.84499 16.9 4.75215 16.6319L4.31833 15.382L2.99516 15.3556C2.71158 15.35 2.44035 15.2258 2.25111 15.0154C2.06146 14.8046 1.96657 14.5219 1.99046 14.2396L2.10266 12.9211L0.904463 12.3589C0.430128 12.1362 0.200102 11.587 0.369016 11.0819L0.376707 11.059L0.403761 10.9974L1.08176 9.76711L0.24542 8.76694C-0.0940575 8.37047 -0.0799126 7.77844 0.278929 7.38651L0.296095 7.36756L0.35803 7.31372L1.42645 6.48233L1.04165 5.21204C0.887572 4.70323 1.13518 4.17699 1.63052 3.96028L1.65414 3.95012L1.71745 3.92924L3.08099 3.61091L3.24565 2.29764C3.28081 2.01652 3.43242 1.75972 3.6619 1.59327C3.89082 1.42697 4.18182 1.36187 4.46005 1.41502L5.76001 1.66441L6.44432 0.531582C6.59099 0.289196 6.83406 0.116436 7.11133 0.0573842C7.38819 -0.00139271 7.68056 0.0576588 7.91278 0.21957L8.99906 0.975842L9.00826 0.969525L10.1269 0.189907C10.1569 0.16917 10.1893 0.150631 10.2231 0.135112C10.7088 -0.0896954 11.2809 0.0805928 11.5535 0.531582L12.2381 1.66441L13.5378 1.41502C13.816 1.36146 14.1073 1.42656 14.3366 1.59327C14.5654 1.75931 14.7173 2.01625 14.7525 2.29764L14.9171 3.6105L16.2058 3.91167C16.482 3.97607 16.7212 4.15378 16.8629 4.39891C17.0048 4.64459 17.0386 4.94081 16.9566 5.21204L16.5714 6.48274L17.5959 7.27994C17.8198 7.45119 17.9649 7.70978 17.9944 7.99021C18.0239 8.27063 17.9356 8.55312 17.7527 8.76694Z" fill="#0EB582"/>
<path d="M13.475 9.02623C13.475 11.4924 11.4726 13.4999 9.00847 13.5087H8.99268C6.52117 13.5087 4.51025 11.4976 4.51025 9.02623C4.51025 6.55486 6.52117 4.54395 8.99268 4.54395H9.00847C11.4726 4.55273 13.475 6.56007 13.475 9.02623Z" fill="white"/>
<path d="M11.0268 8.38069L9.00825 10.3997L8.57195 10.836C8.46896 10.939 8.33382 10.9904 8.19869 10.9904C8.0637 10.9904 7.92857 10.939 7.82543 10.836L6.88761 9.89776C6.68134 9.69149 6.68134 9.35765 6.88761 9.15152C7.09333 8.94539 7.42759 8.94539 7.63372 9.15152L8.19869 9.71649L10.2807 7.63458C10.4869 7.42845 10.8211 7.42845 11.0268 7.63458C11.2331 7.84071 11.2331 8.17497 11.0268 8.38069Z" fill="#0EB582"/>
</g>
<defs>
<clipPath id="clip0">
<rect width="18" height="18" fill="white"/>
</clipPath>
</defs>
</svg>
