<svg width="170" height="170" viewBox="0 0 170 170" fill="none" xmlns="http://www.w3.org/2000/svg">
<path d="M85 170C131.944 170 170 131.944 170 85C170 38.0558 131.944 0 85 0C38.0558 0 0 38.0558 0 85C0 131.944 38.0558 170 85 170Z" fill="#E1245A"/>
<mask id="mask0" mask-type="alpha" maskUnits="userSpaceOnUse" x="0" y="0" width="170" height="170">
<path d="M85 170C131.944 170 170 131.944 170 85C170 38.0558 131.944 0 85 0C38.0558 0 0 38.0558 0 85C0 131.944 38.0558 170 85 170Z" fill="#E1245A"/>
</mask>
<g mask="url(#mask0)">
<path d="M116.302 122.188H113.157V105.322H57.9045V122.188H54.7598V102.16H116.302V122.188Z" fill="#2F4859"/>
<path d="M83.2207 64.9852H86.3655V103.741H83.2207V64.9852Z" fill="#2F2E41"/>
<path d="M99.1387 114.88H129.901V172.891H99.1387V114.88Z" fill="#2F2E41"/>
<path d="M102.949 118.956H126.192V125.544H102.949V118.956Z" fill="black"/>
<path d="M102.949 127.107H126.192V133.696H102.949V127.107Z" fill="black"/>
<path d="M102.949 135.259H126.192V141.847H102.949V135.259Z" fill="black"/>
<path d="M114.528 155.639C115.954 155.639 117.11 154.482 117.11 153.056C117.11 151.63 115.954 150.473 114.528 150.473C113.102 150.473 111.945 151.63 111.945 153.056C111.945 154.482 113.102 155.639 114.528 155.639Z" fill="#E1245A"/>
<path d="M41.3223 114.88H72.0847V172.891H41.3223V114.88Z" fill="#2F2E41"/>
<path d="M45.1309 118.956H68.3739V125.544H45.1309V118.956Z" fill="black"/>
<path d="M45.1309 127.107H68.3739V133.695H45.1309V127.107Z" fill="black"/>
<path d="M45.1309 135.259H68.3739V141.847H45.1309V135.259Z" fill="black"/>
<path d="M56.6939 150.473C56.1824 150.47 55.6813 150.618 55.2543 150.9C54.8273 151.182 54.4936 151.584 54.2954 152.055C54.0973 152.527 54.0436 153.047 54.1413 153.549C54.2389 154.051 54.4835 154.513 54.8439 154.876C55.2044 155.239 55.6645 155.486 56.166 155.588C56.6674 155.689 57.1876 155.639 57.6605 155.444C58.1334 155.249 58.5378 154.918 58.8224 154.493C59.107 154.068 59.2589 153.568 59.2589 153.056C59.2589 152.374 58.9892 151.72 58.5087 151.236C58.0282 150.752 57.3758 150.478 56.6939 150.473V150.473Z" fill="#E1245A"/>
</g>
<path d="M124.134 44.3318C124.508 42.9941 124.702 41.6139 124.71 40.2265C124.713 37.8645 124.167 35.5333 123.114 33.4112C122.062 31.289 120.53 29.4322 118.637 27.9828C116.744 26.5333 114.539 25.5297 112.192 25.0486C109.845 24.5675 107.417 24.6217 105.094 25.2071C104.233 20.9346 102.092 17.0143 98.9479 13.9519C95.8036 10.8895 91.7999 8.82558 87.4534 8.02631C83.1069 7.22705 78.617 7.72915 74.563 9.46786C70.509 11.2066 67.0768 14.1021 64.7092 17.7809C61.659 15.6376 58.0266 14.4445 54.281 14.3557C50.5355 14.2668 46.849 15.2862 43.6976 17.2823C40.5461 19.2784 38.0746 22.1594 36.602 25.5533C35.1295 28.9472 34.7237 32.6981 35.437 36.3215C32.6222 37.231 30.027 38.7004 27.8123 40.6386C25.5977 42.5768 23.8107 44.9424 22.5621 47.5889C21.3136 50.2354 20.6301 53.1063 20.554 56.0237C20.4779 58.9411 21.0109 61.8427 22.12 64.5489C23.229 67.255 24.8903 69.7079 27.0011 71.7555C29.1119 73.8031 31.6271 75.4018 34.3908 76.4525C37.1545 77.5032 40.1078 77.9835 43.0677 77.8637C46.0275 77.7438 48.9309 77.0263 51.5977 75.7557C55.0012 78.1343 59.1167 79.3187 63.2847 79.119C67.4527 78.9192 71.4321 77.347 74.5852 74.6543C78.2858 77.8044 83.0953 79.395 87.9758 79.0828C92.8564 78.7706 97.4167 76.5806 100.673 72.9854C104.554 75.8855 109.43 77.1807 114.265 76.5961C119.1 76.0114 123.513 73.593 126.567 69.8543C129.621 66.1157 131.076 61.3514 130.622 56.5734C130.167 51.7954 127.84 47.38 124.134 44.265V44.3318Z" fill="#D5D6DB"/>
<path d="M124.141 41.4378C124.514 40.0729 124.708 38.6648 124.716 37.2496C124.719 34.8496 124.173 32.4809 123.121 30.3247C122.07 28.1684 120.54 26.2817 118.648 24.809C116.757 23.3363 114.555 22.3165 112.21 21.8276C109.865 21.3388 107.439 21.3939 105.118 21.9887C104.263 17.6434 102.126 13.655 98.9843 10.5398C95.8422 7.42449 91.8393 5.32563 87.4935 4.5147C83.1477 3.70378 78.6591 4.21812 74.6083 5.99118C70.5575 7.76425 67.1309 10.7144 64.7719 14.4601C61.6007 12.1648 57.785 10.9359 53.8729 10.9501C51.1129 10.9538 48.3878 11.5691 45.8929 12.7518C43.398 13.9345 41.195 15.6554 39.4418 17.7912C37.6885 19.927 36.4284 22.4249 35.7517 25.1059C35.075 27.7868 34.9984 30.5846 35.5275 33.2987C32.7016 34.2115 30.0938 35.6978 27.8666 37.6651C25.6395 39.6323 23.8408 42.0383 22.5828 44.7329C21.3247 47.4274 20.6343 50.3528 20.5547 53.3266C20.475 56.3003 21.0077 59.2586 22.1196 62.0169C23.2316 64.7752 24.8988 67.2744 27.0174 69.3585C29.136 71.4427 31.6605 73.0671 34.4334 74.1304C37.2064 75.1938 40.1682 75.6733 43.1343 75.539C46.1003 75.4047 49.0069 74.6595 51.6728 73.3499C55.0712 75.769 59.1817 76.9754 63.3458 76.7755C67.5098 76.5757 71.4864 74.9812 74.6385 72.2477C78.3466 75.4236 83.1457 77.0236 88.0138 76.7069C92.8819 76.3902 97.4342 74.1818 100.701 70.5521C104.579 73.4987 109.45 74.8148 114.281 74.2207C119.111 73.6267 123.52 71.1694 126.571 67.3706C129.622 63.5719 131.075 58.731 130.622 53.8762C130.168 49.0213 127.843 44.535 124.141 41.37V41.4378Z" fill="white"/>
<circle cx="60.3906" cy="46.3281" r="4.1875" stroke="#2F2E41"/>
<circle cx="110.781" cy="58.0469" r="4.1875" stroke="#2F2E41"/>
<circle cx="83.8281" cy="19.375" r="4.1875" stroke="#2F2E41"/>
<path d="M83.8281 22.8906V87.9297" stroke="#2F2E41"/>
<path d="M106.68 58.0469H85.5859V83.2422" stroke="#2F2E41"/>
<path d="M64.3086 46.3281H83.8272V85" stroke="#2F2E41"/>
</svg>
