<svg width="18" height="18" viewBox="0 0 18 18" fill="none" xmlns="http://www.w3.org/2000/svg">
<path d="M5.83594 15.8555H0.527344C0.235863 15.8555 0 15.6196 0 15.3281V12.6914C0 10.9466 1.45445 9.52734 3.19922 9.52734C4.94399 9.52734 6.36328 10.9466 6.36328 12.6914V15.3281C6.36328 15.6196 6.12742 15.8555 5.83594 15.8555Z" fill="#0EB582"/>
<path d="M17.4727 15.8555H12.1992C11.9077 15.8555 11.6719 15.6196 11.6719 15.3281V12.6914C11.6719 10.9466 13.0912 9.52734 14.8359 9.52734C16.5807 9.52734 18 10.9466 18 12.6914V15.3281C18 15.6196 17.7641 15.8555 17.4727 15.8555Z" fill="#0EB582"/>
<path d="M3.19922 10.582C2.03586 10.582 1.08984 9.63601 1.08984 8.47266C1.08984 7.3093 2.03586 6.36328 3.19922 6.36328C4.36257 6.36328 5.30859 7.3093 5.30859 8.47266C5.30859 9.63601 4.36257 10.582 3.19922 10.582Z" fill="#FEDB41"/>
<path d="M14.8359 10.582C13.6726 10.582 12.7266 9.63601 12.7266 8.47266C12.7266 7.3093 13.6726 6.36328 14.8359 6.36328C15.9993 6.36328 16.9453 7.3093 16.9453 8.47266C16.9453 9.63601 15.9993 10.582 14.8359 10.582Z" fill="#FFCC33"/>
<path d="M12.7266 14.2734V17.4727C12.7266 17.7679 12.4946 18 12.1992 18H5.83594C5.54059 18 5.30859 17.7679 5.30859 17.4727V14.2734C5.30859 13.2398 5.74098 12.3117 6.42656 11.6367H11.6191C12.2942 12.3117 12.7266 13.2398 12.7266 14.2734Z" fill="#0EB582"/>
<path d="M11.6193 11.6367L9.33769 13.6301C9.23218 13.7038 9.11617 13.7461 9.00019 13.7461C8.88421 13.7461 8.75765 13.7039 8.66269 13.6301L6.42676 11.6367C7.09121 10.9828 7.99824 10.582 9.00019 10.582C10.0021 10.582 10.9443 10.9828 11.6193 11.6367Z" fill="#0EB582"/>
<path d="M9 0C6.96445 0 5.30859 1.69102 5.30859 3.72656C5.30859 5.76211 6.96445 7.41797 9 7.41797C11.0355 7.41797 12.7266 5.76211 12.7266 3.72656C12.7266 1.69102 11.0355 0 9 0Z" fill="#3D64FF"/>
<path d="M10.6172 3.72656C10.6172 4.02184 10.3852 4.25391 10.0898 4.25391H9C8.70465 4.25391 8.47266 4.02184 8.47266 3.72656V2.67188C8.47266 2.37653 8.70465 2.14453 9 2.14453C9.29535 2.14453 9.52734 2.37653 9.52734 2.67188V3.19922H10.0898C10.3852 3.19922 10.6172 3.43121 10.6172 3.72656Z" fill="#E1E4FB"/>
<path d="M10.6172 3.72656C10.6172 4.02184 10.3852 4.25391 10.0898 4.25391H9V2.14453C9.29535 2.14453 9.52734 2.37653 9.52734 2.67188V3.19922H10.0898C10.3852 3.19922 10.6172 3.43121 10.6172 3.72656Z" fill="#C5C9F7"/>
<path d="M9 6.36328C7.54453 6.36328 6.36328 7.54453 6.36328 9C6.36328 10.4555 7.54453 11.6367 9 11.6367C10.4555 11.6367 11.6719 10.4555 11.6719 9C11.6719 7.54453 10.4555 6.36328 9 6.36328Z" fill="#FEDB41"/>
</svg>
