<svg width="170" height="170" viewBox="0 0 170 170" fill="none" xmlns="http://www.w3.org/2000/svg">
<path d="M84.9998 170C131.944 170 170 131.944 170 84.9998C170 38.0557 131.944 0 84.9998 0C38.0557 0 0 38.0557 0 84.9998C0 131.944 38.0557 170 84.9998 170Z" fill="#2F2E41"/>
<path d="M45.3885 0.0442231C20.8682 0.569168 0.79878 20.4218 0.0238147 44.9351C-0.361344 57.1134 3.94845 68.28 11.2787 76.7635C14.5802 80.5839 15.5225 85.9073 13.8241 90.6621L10.7714 99.2096C9.77862 101.99 12.9983 104.366 15.3624 102.598L26.1897 94.5004C29.4114 92.0908 33.5024 91.1946 37.4496 91.9723C41.5598 92.7821 45.8637 93.0497 50.29 92.6838C73.5778 90.7567 91.9436 71.4974 92.7803 48.1445C93.7395 21.3976 72.0518 -0.526542 45.3885 0.0442231Z" fill="#E1245A"/>
<path d="M151.012 119.459C147.085 124.198 145.839 130.602 147.907 136.396L149.375 140.507C147.522 142.655 145.562 144.709 143.504 146.662L134.387 139.852C130.539 136.983 125.675 135.845 120.956 136.722C117.914 137.291 114.507 137.794 112.033 137.794C84.0872 137.794 61.4355 115.143 61.4355 87.1969C61.4322 59.2789 84.1114 36.5993 112.033 36.5993C139.976 36.5993 162.631 59.251 162.631 87.1969C162.631 99.4575 158.267 110.702 151.012 119.459Z" fill="#FFE955"/>
<path d="M119.177 115.186C119.177 119.014 115.909 122.376 112.081 122.376C107.972 122.376 104.891 119.014 104.891 115.186C104.891 111.264 107.972 107.996 112.081 107.996C115.909 107.996 119.177 111.264 119.177 115.186ZM117.403 97.4441C117.403 100.339 114.228 101.553 111.987 101.553C108.999 101.553 106.478 100.339 106.478 97.4441C106.478 86.3323 105.171 70.3648 105.171 59.2523C105.171 55.6106 108.159 53.5563 111.988 53.5563C115.63 53.5563 118.711 55.6102 118.711 59.2523C118.71 70.3645 117.403 86.3319 117.403 97.4441Z" fill="white"/>
<path d="M54.3707 44.6306C49.6608 48.3128 49.5745 50.8824 49.5745 55.3356C49.5745 56.9633 48.7181 58.8466 44.5216 58.8466C41.0107 58.8466 39.8117 57.5623 39.8117 53.1087C39.8117 45.7435 43.0663 42.2323 45.5496 40.0913C48.3758 37.6934 53.1717 35.0385 53.1717 30.4139C53.1717 26.4747 49.7461 24.59 45.4639 24.59C36.7288 24.59 38.6124 31.1845 33.9882 31.1845C31.6759 31.1845 28.8496 29.6433 28.8496 26.3027C28.8496 21.6784 34.1595 14.8269 45.7212 14.8269C56.6833 14.8269 63.9625 20.9075 63.9625 28.9576C63.9625 37.0077 56.6833 42.8319 54.3707 44.6306ZM51.2021 71.3506C51.2021 74.8615 48.2898 77.9448 44.6076 77.9448C40.9253 77.9448 38.0987 74.8615 38.0987 71.3506C38.0987 67.7537 41.011 64.7561 44.6076 64.7561C48.2042 64.7561 51.2021 67.7537 51.2021 71.3506Z" fill="white"/>
</svg>
