<svg width="170" height="170" viewBox="0 0 170 170" fill="none" xmlns="http://www.w3.org/2000/svg">
<path d="M170 85C170 131.945 131.945 170 85 170C38.0552 170 0 131.945 0 85C0 38.0552 38.0552 0 85 0C131.945 0 170 38.0552 170 85Z" fill="#E1245A"/>
<path d="M100.21 130.592L109.317 143.812L82.9291 145.932L60.666 143.812L67.7154 130.592H100.21Z" fill="#3A3850"/>
<path d="M122.356 149.048C122.356 151.929 120.021 154.264 117.14 154.264H54.2963C51.4155 154.264 49.0801 151.929 49.0801 149.048C49.0801 146.167 51.4155 143.832 54.2963 143.832H117.14C120.021 143.832 122.356 146.167 122.356 149.048V149.048Z" fill="black"/>
<path d="M147 57.7733V123.227C147 128.072 142.568 132 137.101 132H33.8994C28.4325 132 24 128.072 24 123.227V57.9927C24 53.027 28.5438 49 34.1469 49H137.101C142.568 49 147 52.9283 147 57.7733Z" fill="black"/>
<path d="M137.725 128H33.2752C30.3617 128 28 125.888 28 123.283V57.717C28 55.1118 30.3617 53 33.2752 53H137.725C140.638 53 143 55.1118 143 57.717V123.283C143 125.888 140.638 128 137.725 128Z" fill="#F5F5F5"/>
<rect x="121" y="19" width="2" height="10" rx="1" fill="white"/>
<rect x="127" y="23" width="2" height="10" rx="1" transform="rotate(90 127 23)" fill="white"/>
<circle cx="36" cy="29" r="5" fill="#FFE955"/>
<path d="M133.276 69.9805H89.4902C88.115 69.9805 87 68.8658 87 67.4902C87 66.1146 88.115 65 89.4902 65H133.276C134.651 65 135.766 66.1146 135.766 67.4902C135.766 68.8658 134.651 69.9805 133.276 69.9805Z" fill="#3D64FF"/>
<path d="M133.276 78.1112H89.4902C88.115 78.1112 87 76.9966 87 75.621C87 74.2454 88.115 73.1307 89.4902 73.1307H133.276C134.651 73.1307 135.766 74.2454 135.766 75.621C135.766 76.9962 134.651 78.1112 133.276 78.1112Z" fill="#3D64FF"/>
<path d="M133.276 86.2416H89.4902C88.115 86.2416 87 85.1269 87 83.7513C87 82.3757 88.115 81.2611 89.4902 81.2611H133.276C134.651 81.2611 135.766 82.3757 135.766 83.7513C135.766 85.1269 134.651 86.2416 133.276 86.2416Z" fill="#3D64FF"/>
<path d="M81.2759 69.9805H37.4902C36.115 69.9805 35 68.8658 35 67.4902C35 66.1146 36.115 65 37.4902 65H81.2755C82.6511 65 83.7658 66.1146 83.7658 67.4902C83.7661 68.8658 82.6511 69.9805 81.2759 69.9805Z" fill="#3D64FF"/>
<path d="M81.2759 78.1112H37.4902C36.115 78.1112 35 76.9966 35 75.621C35 74.2454 36.115 73.1307 37.4902 73.1307H81.2755C82.6511 73.1307 83.7658 74.2454 83.7658 75.621C83.7661 76.9962 82.6511 78.1112 81.2759 78.1112Z" fill="#3D64FF"/>
<path d="M81.2759 86.2416H37.4902C36.115 86.2416 35 85.1269 35 83.7513C35 82.3757 36.115 81.2611 37.4902 81.2611H81.2755C82.6511 81.2611 83.7658 82.3757 83.7658 83.7513C83.7661 85.1269 82.6511 86.2416 81.2759 86.2416Z" fill="#3D64FF"/>
<path d="M133.276 99.8619H89.4902C88.115 99.8619 87 98.7473 87 97.3717C87 95.9961 88.115 94.8815 89.4902 94.8815H133.276C134.651 94.8815 135.766 95.9961 135.766 97.3717C135.766 98.7473 134.651 99.8619 133.276 99.8619Z" fill="#0EB582"/>
<path d="M133.276 107.992H89.4902C88.115 107.992 87 106.878 87 105.502C87 104.127 88.115 103.012 89.4902 103.012H133.276C134.651 103.012 135.766 104.127 135.766 105.502C135.766 106.877 134.651 107.992 133.276 107.992Z" fill="#0EB582"/>
<path d="M111.247 116.123H89.4902C88.115 116.123 87 115.008 87 113.632C87 112.257 88.115 111.142 89.4902 111.142H111.247C112.622 111.142 113.737 112.257 113.737 113.632C113.737 115.008 112.622 116.123 111.247 116.123Z" fill="#0EB582"/>
<path d="M81.2759 99.8619H37.4902C36.115 99.8619 35 98.7473 35 97.3717C35 95.9961 36.115 94.8815 37.4902 94.8815H81.2755C82.6511 94.8815 83.7658 95.9961 83.7658 97.3717C83.7658 98.7473 82.6511 99.8619 81.2759 99.8619Z" fill="#0EB582"/>
<path d="M81.2759 107.992H37.4902C36.115 107.992 35 106.878 35 105.502C35 104.127 36.115 103.012 37.4902 103.012H81.2755C82.6511 103.012 83.7658 104.127 83.7658 105.502C83.7661 106.877 82.6511 107.992 81.2759 107.992Z" fill="#0EB582"/>
<path d="M59.2466 116.123H37.4902C36.115 116.123 35 115.008 35 113.632C35 112.257 36.115 111.142 37.4902 111.142H59.2466C60.6222 111.142 61.7368 112.257 61.7368 113.632C61.7368 115.008 60.6222 116.123 59.2466 116.123Z" fill="#0EB582"/>
<circle cx="133.5" cy="143.5" r="3.5" fill="white"/>
<path fill-rule="evenodd" clip-rule="evenodd" d="M131.735 115.373L129.468 117.922L132.017 120.19L132.745 119.372L132.949 122.848L138.754 116.32L133.168 116.647L131.735 115.373Z" fill="black"/>
<circle cx="11.5" cy="85.5" r="3.5" fill="white"/>
</svg>
