<svg width="3001" height="3001" viewBox="0 0 3001 3001" fill="none" xmlns="http://www.w3.org/2000/svg">
<path d="M2234.3 696.2C2223.7 668.9 2211.6 591.2 2300.3 606.5C2373.2 619 2375.2 550.1 2366.3 514.8" stroke="#2039D2" stroke-width="4.7644" stroke-linecap="round"/>
<path d="M1770.7 786.9C1767.1 777.6 1762.9 751 1793.3 756.2C1818.2 760.5 1818.9 736.9 1815.9 724.9" stroke="black" stroke-width="4.7644" stroke-linecap="round"/>
<path d="M1829.9 1203.4C1824.3 1189.1 1818 1148.5 1864.4 1156.4C1902.5 1163 1903.6 1126.9 1898.9 1108.4" stroke="black" stroke-width="4.7644" stroke-linecap="round"/>
<path d="M2213 2149C2203.4 2124.2 2192.4 2053.7 2272.9 2067.6C2339.1 2079 2340.8 2016.4 2332.8 1984.4" stroke="#2039D2" stroke-width="4.7644" stroke-linecap="round"/>
<path d="M2109.8 1652.2C2104.9 1642.3 2097.9 1613.5 2131.7 1616.4C2159.5 1618.8 2158 1592.8 2153.6 1579.9" stroke="black" stroke-width="4.7644" stroke-linecap="round"/>
<path d="M2162.6 2453.1C2154.6 2436.7 2143 2389.2 2198.8 2394C2244.6 2398 2242.2 2355.1 2234.9 2333.7" stroke="black" stroke-width="5" stroke-linecap="round"/>
<path d="M1197.2 2476.6C1193.7 2469.5 1188.7 2448.9 1212.9 2451C1232.8 2452.7 1231.7 2434.2 1228.6 2424.9" stroke="#2039D2" stroke-width="5" stroke-linecap="round"/>
<path d="M991.3 2484.6C983.6 2468.8 972.4 2423 1026.2 2427.6C1070.4 2431.4 1068.1 2390.1 1061.1 2369.4" stroke="black" stroke-width="5" stroke-linecap="round"/>
<path d="M594.7 1201.2C586.9 1185.4 573.7 1142.2 619.9 1159.7C657.9 1174.1 652.6 1137.1 645 1117.2" stroke="#2039D2" stroke-width="4.7644" stroke-linecap="round"/>
<path d="M1494.9 2369.1L1275.7 2632.2" stroke="black" stroke-width="5" stroke-linecap="round"/>
<path d="M1228 2025.6L1008.8 2288.6" stroke="black" stroke-width="5" stroke-linecap="round"/>
<path d="M1727.4 2266.5L1447 2603.3" stroke="black" stroke-width="5" stroke-linecap="round"/>
<path d="M1093.3 2044.6L813 2381.4" stroke="black" stroke-width="5" stroke-linecap="round"/>
<path d="M1615.2 2453.2L1460.5 2644.3" stroke="black" stroke-width="5" stroke-linecap="round"/>
<path d="M499.9 867.7L322.6 1080.3L145.3 1292.9" stroke="#7432FF" stroke-width="4.7644" stroke-linecap="round"/>
<path d="M953.1 442.5L288.7 1237.8" stroke="#7432FF" stroke-width="5" stroke-linecap="round"/>
<path d="M823.6 701.8L276.1 1370.6" stroke="#7432FF" stroke-width="4.7644" stroke-linecap="round"/>
<path d="M2916 1719.8L2297.4 2468.3" stroke="black" stroke-width="5" stroke-linecap="round"/>
<path d="M2831.9 1960.6L2282.9 2622.8" stroke="black" stroke-width="4.7644" stroke-linecap="round"/>
<path d="M2623.1 1417.4C2654.91 1417.4 2680.7 1391.61 2680.7 1359.8C2680.7 1327.99 2654.91 1302.2 2623.1 1302.2C2591.29 1302.2 2565.5 1327.99 2565.5 1359.8C2565.5 1391.61 2591.29 1417.4 2623.1 1417.4Z" stroke="black" stroke-width="6"/>
<path d="M302.4 761.5C317.919 761.5 330.5 748.919 330.5 733.4C330.5 717.881 317.919 705.3 302.4 705.3C286.881 705.3 274.3 717.881 274.3 733.4C274.3 748.919 286.881 761.5 302.4 761.5Z" stroke="black" stroke-width="18"/>
<path d="M1107.2 1233.4C1114.38 1233.4 1120.2 1227.58 1120.2 1220.4C1120.2 1213.22 1114.38 1207.4 1107.2 1207.4C1100.02 1207.4 1094.2 1213.22 1094.2 1220.4C1094.2 1227.58 1100.02 1233.4 1107.2 1233.4Z" stroke="black" stroke-width="10"/>
<path d="M1959 993.1C1966.18 993.1 1972 987.28 1972 980.1C1972 972.92 1966.18 967.1 1959 967.1C1951.82 967.1 1946 972.92 1946 980.1C1946 987.28 1951.82 993.1 1959 993.1Z" stroke="black" stroke-width="10"/>
<path d="M1672.5 2153.6C1679.68 2153.6 1685.5 2147.78 1685.5 2140.6C1685.5 2133.42 1679.68 2127.6 1672.5 2127.6C1665.32 2127.6 1659.5 2133.42 1659.5 2140.6C1659.5 2147.78 1665.32 2153.6 1672.5 2153.6Z" stroke="black" stroke-width="10"/>
<path d="M2506.3 2037.4C2513.92 2037.4 2520.1 2031.22 2520.1 2023.6C2520.1 2015.98 2513.92 2009.8 2506.3 2009.8C2498.68 2009.8 2492.5 2015.98 2492.5 2023.6C2492.5 2031.22 2498.68 2037.4 2506.3 2037.4Z" stroke="black" stroke-width="14.2933"/>
<path d="M1638.4 534.7C1675.96 534.7 1706.4 504.255 1706.4 466.7C1706.4 429.145 1675.96 398.7 1638.4 398.7C1600.84 398.7 1570.4 429.145 1570.4 466.7C1570.4 504.255 1600.84 534.7 1638.4 534.7Z" stroke="black" stroke-width="6"/>
<path d="M572.5 2543C629.993 2543 676.6 2496.39 676.6 2438.9C676.6 2381.41 629.993 2334.8 572.5 2334.8C515.007 2334.8 468.4 2381.41 468.4 2438.9C468.4 2496.39 515.007 2543 572.5 2543Z" stroke="black" stroke-width="5"/>
<path d="M516 1527.3C540.632 1527.3 560.6 1507.33 560.6 1482.7C560.6 1458.07 540.632 1438.1 516 1438.1C491.368 1438.1 471.4 1458.07 471.4 1482.7C471.4 1507.33 491.368 1527.3 516 1527.3Z" stroke="black" stroke-width="11"/>
<path d="M2094.9 843.8C2109.37 843.8 2121.1 832.07 2121.1 817.6C2121.1 803.13 2109.37 791.4 2094.9 791.4C2080.43 791.4 2068.7 803.13 2068.7 817.6C2068.7 832.07 2080.43 843.8 2094.9 843.8Z" stroke="black" stroke-width="16.0108"/>
<path d="M2372.2 1448.2C2536.06 1448.2 2668.9 1315.36 2668.9 1151.5C2668.9 987.637 2536.06 854.8 2372.2 854.8C2208.34 854.8 2075.5 987.637 2075.5 1151.5C2075.5 1315.36 2208.34 1448.2 2372.2 1448.2Z" stroke="#E1245A" stroke-width="29.5395"/>
<path d="M1715.6 1567.7C1992.07 1567.7 2216.2 1343.57 2216.2 1067.1C2216.2 790.626 1992.07 566.5 1715.6 566.5C1439.13 566.5 1215 790.626 1215 1067.1C1215 1343.57 1439.13 1567.7 1715.6 1567.7Z" stroke="#E1245A" stroke-width="73"/>
<path d="M336.2 2160.9C438.207 2160.9 520.9 2078.21 520.9 1976.2C520.9 1874.19 438.207 1791.5 336.2 1791.5C234.193 1791.5 151.5 1874.19 151.5 1976.2C151.5 2078.21 234.193 2160.9 336.2 2160.9Z" stroke="#E1245A" stroke-width="8"/>
<path d="M1739 2492.2C1794.12 2492.2 1838.8 2447.52 1838.8 2392.4C1838.8 2337.28 1794.12 2292.6 1739 2292.6C1683.88 2292.6 1639.2 2337.28 1639.2 2392.4C1639.2 2447.52 1683.88 2492.2 1739 2492.2Z" stroke="#E1245A" stroke-width="48"/>
<path d="M1083.8 678.8C1105.67 678.8 1123.4 661.07 1123.4 639.2C1123.4 617.33 1105.67 599.6 1083.8 599.6C1061.93 599.6 1044.2 617.33 1044.2 639.2C1044.2 661.07 1061.93 678.8 1083.8 678.8Z" stroke="#E1245A" stroke-width="35"/>
<path d="M1334.1 2340.6L1615.2 2013.4L1463.3 1969L1334.1 2340.6Z" fill="#F4A031"/>
<path d="M2324.2 998.1L1708.4 1250.1L812.9 1650.9L1110.8 1782.7L1258.9 1852.9L1334.3 2341.4L1461.6 1969.9L2038.4 2136.2L2324.2 998.1Z" fill="#53B682"/>
<path d="M1211.8 1830.6L1465 1653.7C1429.3 1661.8 1333.4 1681.2 1235.1 1694C1136.8 1706.7 1086.1 1747.3 1073 1766L1211.8 1830.6Z" fill="#F4A031"/>
<path d="M2287.8 1034.5L1279.7 1837.3L1259.3 1852.6L1334.3 2338.8L1464.2 1967.3L2287.8 1034.5Z" fill="black"/>
<path d="M1738.6 1709.1C1735.2 1703.2 1706.3 1635.7 1690.5 1602.1L1801.1 1563.1L1815.5 1605.1C1843.5 1617.2 1909.2 1639.3 1926.1 1646.8C1946.9 1656.1 1943.6 1664.3 1938.4 1667.2C1964.3 1673.8 1961.8 1686.3 1957.4 1691.8C1961.4 1693.7 1972.4 1700.7 1968.6 1709C1964.7 1717.5 1952.8 1715.8 1945.3 1713.3C1949.9 1716.8 1957.8 1726.4 1948.7 1730.1C1936.3 1735.2 1881.3 1723.8 1837.7 1708.9C1856.1 1716.1 1872.9 1724.6 1881.8 1727C1893 1730 1897.8 1746.4 1881.8 1749C1800.3 1753.6 1742.9 1716.5 1738.6 1709.1Z" fill="#E1245A"/>
<path d="M1941 1712.2C1941 1712.2 1903.6 1697.1 1868.4 1688.5" stroke="black" stroke-width="5" stroke-linecap="round"/>
<path d="M1947.5 1688.6C1947.5 1688.6 1912.3 1674.5 1879.2 1666.5" stroke="black" stroke-width="5" stroke-linecap="round"/>
<path d="M1931.2 1664.4C1931.2 1664.4 1896 1650.3 1862.9 1642.3" stroke="black" stroke-width="5" stroke-linecap="round"/>
<path d="M1691.4 1604.5L1800.9 1563.3L1708.9 1642.4L1691.4 1604.5Z" fill="#E34545"/>
<path d="M1605.8 1040.6C1726 956.4 1584.5 842.2 1558.5 815.9C1549.3 795.9 1540.9 780.6 1506 767.4C1378.7 719.2 1336.6 842.5 1329.6 859.1C1307.2 911.9 1141.6 817 1086.7 927.7C1053.1 995.4 1151 1055.8 1204.8 1048.7C1192.5 1054.9 1156.2 1065.8 1194 1103.3C1239.6 1137.5 1619.6 1235.2 1632.7 1132.6C1641.9 1060.3 1601.2 1039.2 1605.8 1040.6Z" fill="black"/>
<path d="M1658.4 760.4C1609.8 709.5 1552.7 751 1530.3 778.1C1519.9 813.6 1567.4 856.5 1585.2 861.7C1634 876.1 1719.2 824.1 1658.4 760.4Z" fill="black"/>
<path d="M1369.5 987.1C1314 965.7 1325.3 878.6 1353.1 845.1C1420.5 845.5 1460.3 800.5 1459.1 804.5C1427.5 911.9 1496.3 941.9 1494.9 946.5C1520 1032.2 1535.4 1042.8 1535.2 1042.9C1499.8 1088.2 1451.8 1077.4 1417.9 1063.6L1400.3 986.9C1395.7 988.4 1380.8 991.5 1369.5 987.1Z" fill="#FFF3F3"/>
<path d="M1397.8 880.1C1402.6 885.6 1416.8 896.8 1435.2 898" stroke="black" stroke-width="5" stroke-linecap="round"/>
<path d="M1325.1 853.2C1329.9 858.7 1344.1 869.9 1362.5 871.1" stroke="black" stroke-width="5" stroke-linecap="round"/>
<path d="M1371.4 922.3C1371.4 922.3 1356.5 917.2 1356.5 909.6C1356.5 904.7 1373.4 878.8 1373.4 878.8" stroke="black" stroke-width="5" stroke-linecap="round"/>
<path d="M1474.7 940.6C1467.4 950 1444.9 971.9 1413.7 984.7" stroke="black" stroke-width="4.4332" stroke-linecap="round"/>
<path d="M1498.4 1069.4C1463.6 1081.2 1416.7 1053.8 1409.4 1050.9C1402.1 1048 1373.8 1019.2 1323.9 1050.9C1235.5 1107 1139.7 1387.6 1139.7 1391.2C1165.5 1410.4 1240.1 1417 1240.1 1413.4C1262.5 1308.3 1315.4 1250.5 1339 1234.7C1328.9 1286.9 1309.6 1391.2 1313.2 1391.2C1429.5 1381.2 1520.2 1434.3 1550.9 1462.1C1553.9 1402.3 1561.2 1282.7 1567.1 1282.7C1588.9 1301 1626.5 1554 1651.4 1612.9L1801.1 1563.2C1798.6 1549.2 1781.2 1503.3 1713.3 1310C1645.3 1116.7 1616.5 1047.6 1535.4 1042.8C1530.9 1048.7 1517.3 1062.3 1498.4 1069.4Z" fill="#53B682"/>
<path d="M1549.1 1230.6C1555.6 1272 1561.5 1329.6 1559.4 1394.2" stroke="black" stroke-width="5" stroke-linecap="round"/>
<path d="M1361 1195C1348.7 1213.5 1333.9 1240.5 1324 1274.9" stroke="black" stroke-width="5" stroke-linecap="round"/>
<path d="M1580.9 1219.6C1575.8 1230.1 1569.7 1245.2 1566.2 1263.4" stroke="black" stroke-width="5" stroke-linecap="round"/>
<path d="M1617.9 1391.9C1614.6 1406.5 1611.3 1426.9 1611 1450.1" stroke="black" stroke-width="5" stroke-linecap="round"/>
<path d="M1773.6 1575.1C1749.5 1582.8 1718 1592.6 1687.3 1604.1" stroke="black" stroke-width="5" stroke-linecap="round"/>
<path d="M1423 1058.4C1446 1071.1 1496.9 1081.8 1533.3 1047.4" stroke="black" stroke-width="5" stroke-linecap="round"/>
<path d="M1300.8 1390.7C1319.8 1384.7 1429.4 1375.4 1519.2 1431.2" stroke="black" stroke-width="5" stroke-linecap="round"/>
<path d="M1343.8 1089.9C1353.35 1089.9 1361.1 1082.15 1361.1 1072.6C1361.1 1063.05 1353.35 1055.3 1343.8 1055.3C1334.25 1055.3 1326.5 1063.05 1326.5 1072.6C1326.5 1082.15 1334.25 1089.9 1343.8 1089.9Z" fill="white"/>
<path d="M1487.6 1219.6C1497.15 1219.6 1504.9 1211.85 1504.9 1202.3C1504.9 1192.75 1497.15 1185 1487.6 1185C1478.05 1185 1470.3 1192.75 1470.3 1202.3C1470.3 1211.85 1478.05 1219.6 1487.6 1219.6Z" fill="white"/>
<path d="M1359.4 1288.2C1368.95 1288.2 1376.7 1280.45 1376.7 1270.9C1376.7 1261.35 1368.95 1253.6 1359.4 1253.6C1349.85 1253.6 1342.1 1261.35 1342.1 1270.9C1342.1 1280.45 1349.85 1288.2 1359.4 1288.2Z" fill="white"/>
<path d="M1571.2 1124.4C1580.75 1124.4 1588.5 1116.65 1588.5 1107.1C1588.5 1097.55 1580.75 1089.8 1571.2 1089.8C1561.65 1089.8 1553.9 1097.55 1553.9 1107.1C1553.9 1116.65 1561.65 1124.4 1571.2 1124.4Z" fill="white"/>
<path d="M1247.9 1265.1C1257.45 1265.1 1265.2 1257.35 1265.2 1247.8C1265.2 1238.25 1257.45 1230.5 1247.9 1230.5C1238.35 1230.5 1230.6 1238.25 1230.6 1247.8C1230.6 1257.35 1238.35 1265.1 1247.9 1265.1Z" fill="white"/>
<path d="M1410 1381.4C1419.55 1381.4 1427.3 1373.65 1427.3 1364.1C1427.3 1354.55 1419.55 1346.8 1410 1346.8C1400.45 1346.8 1392.7 1354.55 1392.7 1364.1C1392.7 1373.65 1400.45 1381.4 1410 1381.4Z" fill="white"/>
<path d="M1528.7 1346.9C1538.25 1346.9 1546 1339.15 1546 1329.6C1546 1320.05 1538.25 1312.3 1528.7 1312.3C1519.15 1312.3 1511.4 1320.05 1511.4 1329.6C1511.4 1339.15 1519.15 1346.9 1528.7 1346.9Z" fill="white"/>
<path d="M1715.6 1557.6C1725.15 1557.6 1732.9 1549.85 1732.9 1540.3C1732.9 1530.75 1725.15 1523 1715.6 1523C1706.05 1523 1698.3 1530.75 1698.3 1540.3C1698.3 1549.85 1706.05 1557.6 1715.6 1557.6Z" fill="white"/>
<path d="M1681.1 1346.9C1690.65 1346.9 1698.4 1339.15 1698.4 1329.6C1698.4 1320.05 1690.65 1312.3 1681.1 1312.3C1671.55 1312.3 1663.8 1320.05 1663.8 1329.6C1663.8 1339.15 1671.55 1346.9 1681.1 1346.9Z" fill="white"/>
<path d="M1213.3 1394.2C1222.85 1394.2 1230.6 1386.45 1230.6 1376.9C1230.6 1367.35 1222.85 1359.6 1213.3 1359.6C1203.75 1359.6 1196 1367.35 1196 1376.9C1196 1386.45 1203.75 1394.2 1213.3 1394.2Z" fill="white"/>
<path d="M768.9 2302.3C802.1 2261 830.5 2178.4 837.6 2150L667.7 1970.5C665.3 1972.9 659.1 1981.6 648 1986.7C623.4 1998 580.7 2000 491.2 1991.8C419.6 1985.2 353.4 2015.2 328.5 2032.4C476.7 2117.9 768.9 2302.3 768.9 2302.3Z" fill="black"/>
<path d="M1319 1705.1C1515.8 1692.5 1547.4 1540.6 1551.1 1461.9C1466 1385 1356.2 1386.1 1310.3 1394.4C1310.3 1414.6 1327.2 1461 1292.4 1487.3C1257.6 1513.6 1048.5 1536.7 984.1 1554.8C932.6 1569.3 886.3 1642.8 869.1 1673.7C812.6 1777 746.1 1902.5 661.1 1969.4L872.4 2189.9C905.1 2112.7 952.1 1998 984.1 1936.6C1031.7 1845.2 1073 1720.8 1319 1705.1Z" fill="#F4A031"/>
<path d="M1506.8 1567.7C1469 1528.7 1448.2 1445.2 1453.2 1417.7C1444.9 1433.2 1434.7 1488.8 1447.7 1529.1C1458.5 1562.8 1484.3 1573.7 1506.8 1567.7Z" fill="#FF7D05"/>
<path d="M1284.1 1495.3C1301.5 1490.2 1377.2 1438.6 1386.6 1395.4C1354 1389 1379.1 1395.4 1302.9 1395.4C1144.7 1373.6 940.7 1304.9 900 1302.5C836.5 1298.7 800.7 1282.4 741 1384.4C693.2 1466 724.6 1760.4 740.6 1885.5L773.7 1842.3L912.5 1609.8C910.9 1563.2 899.9 1536.5 899.9 1536.5C899.9 1536.5 993.8 1547.8 1061.3 1547.8C1115.8 1540.1 1264.2 1501.1 1284.1 1495.3Z" fill="#F4A031"/>
<path d="M739.9 1882.7C803.1 1785.8 908.2 1613.9 912.8 1607.2C907.9 1570.5 898.6 1535.3 898.6 1535.3C898.6 1535.3 983 1572.3 1256 1500.1C1011.2 1526.5 872.8 1456.2 868.1 1448.5C856.7 1429.6 863.6 1570.1 801.8 1632.5C749.3 1685.6 735.5 1793.5 739.9 1882.7Z" fill="#FF7D05"/>
<path d="M881.2 1483.7C892.2 1502.9 905.9 1530.2 917 1562.4" stroke="black" stroke-width="5" stroke-linecap="round"/>
<path d="M1057.7 1802.4C1074.6 1779.7 1100.5 1767.5 1139.7 1774.1" stroke="black" stroke-width="5" stroke-linecap="round"/>
<path d="M1039.6 1927.6L1019.4 1867.1C1014.8 1875 1005.1 1891.8 1003 1895.8C1001 1899.8 974.1 1955.5 961 1982.8L1039.6 1927.6Z" fill="black"/>
<path d="M712 1904.9C767.2 1858.7 843.9 1709.6 864.7 1678.6C907.7 1614.6 935.3 1556.8 1052.2 1542.3C1120.4 1530 1261.1 1503.6 1278.7 1496.5" stroke="black" stroke-width="5" stroke-linecap="round"/>
<path d="M730.7 1449.1C730.8 1394.8 749.1 1287.3 842.1 1284" stroke="black" stroke-width="5" stroke-linecap="round"/>
<path d="M864.7 1810.1L918.5 1821.9" stroke="black" stroke-width="5" stroke-linecap="round"/>
<path d="M1451.4 1420.5C1425 1523.8 1470.3 1566.5 1470.3 1566.5" stroke="black" stroke-width="5" stroke-linecap="round"/>
<path d="M1325.5 1460.3L1375.8 1437.9" stroke="black" stroke-width="5" stroke-linecap="round"/>
<path d="M918.4 1445.2L968.7 1422.8" stroke="black" stroke-width="5" stroke-linecap="round"/>
<path d="M1135.5 1476.3L1143.7 1421.9" stroke="black" stroke-width="5" stroke-linecap="round"/>
<path d="M821.7 1499.4L778.1 1465.9" stroke="black" stroke-width="5" stroke-linecap="round"/>
<path d="M867.3 1610.4L823.7 1576.9" stroke="black" stroke-width="5" stroke-linecap="round"/>
<path d="M797.7 1617.8L758.5 1656.4" stroke="black" stroke-width="5" stroke-linecap="round"/>
<path d="M1301.6 1581.6L1262.4 1620.2" stroke="black" stroke-width="5" stroke-linecap="round"/>
<path d="M1083.8 1655.7L1044.6 1694.3" stroke="black" stroke-width="5" stroke-linecap="round"/>
<path d="M986.4 1612.5L935.5 1633.4" stroke="black" stroke-width="5" stroke-linecap="round"/>
<path d="M870.9 1982.8L820 2003.8" stroke="black" stroke-width="5" stroke-linecap="round"/>
<path d="M714 1953.1C730.7 1962.5 839.2 2071.9 900.4 2140.7" stroke="black" stroke-width="5" stroke-linecap="round"/>
<path d="M648.9 1999.4C653.9 1949.8 655.2 1852.4 620.7 1859.5C586.3 1866.6 625.2 1955.7 648.9 1999.4Z" stroke="black" stroke-width="5"/>
<path d="M654 2002.6C637.2 1954.4 596.6 1863.1 569.1 1883.8C541.5 1904.4 614.2 1971.6 654 2002.6Z" stroke="black" stroke-width="5"/>
</svg>
