<svg width="3001" height="3000" viewBox="0 0 3001 3000" fill="none" xmlns="http://www.w3.org/2000/svg">
<path d="M419.2 1299.9L1239.1 2231.4L2641 771.9" stroke="#53B682" stroke-width="106" stroke-linecap="round"/>
<path d="M502.5 734.9L665.8 864.8L905.3 607.7" stroke="#53B682" stroke-width="60" stroke-linecap="round"/>
<path d="M2212.4 1885.7L2441.3 2061.4L2766.2 1700.1" stroke="#53B682" stroke-width="72" stroke-linecap="round"/>
<path d="M349.1 1991.9C330.9 1946.5 309.2 1816.9 457.7 1840.8C579.7 1860.4 581.7 1745.2 566.4 1686.4" stroke="black" stroke-width="5" stroke-linecap="round"/>
<path d="M2269.2 869.8C2258.4 842 2246 762.9 2336.4 778.4C2410.6 791.2 2412.6 721 2403.6 685.1" stroke="black" stroke-width="4.7644" stroke-linecap="round"/>
<path d="M1400.7 618C1395.3 604.2 1389.2 564.9 1434.1 572.6C1471 578.9 1472 544.1 1467.5 526.2" stroke="black" stroke-width="4.7644" stroke-linecap="round"/>
<path d="M1648.2 782.4C1643.8 771.1 1638.8 739 1675.5 745.3C1705.7 750.5 1706.5 722 1702.8 707.4" stroke="black" stroke-width="4.7644" stroke-linecap="round"/>
<path d="M269.6 2351.7C265.2 2340.4 260.2 2308.3 296.9 2314.6C327.1 2319.8 327.9 2291.3 324.2 2276.7" stroke="black" stroke-width="4.7644" stroke-linecap="round"/>
<path d="M2213.4 2009.1C2209 1997.8 2204 1965.7 2240.7 1972C2270.9 1977.2 2271.7 1948.7 2268 1934.1" stroke="black" stroke-width="4.7644" stroke-linecap="round"/>
<path d="M2022.4 1741.8C2013.4 1723.4 2000.4 1670.1 2063 1675.5C2114.4 1679.9 2111.8 1631.9 2103.6 1607.9" stroke="black" stroke-width="4.7644" stroke-linecap="round"/>
<path d="M2142.3 2518.1C2134.1 2501.4 2122.3 2453 2179.2 2457.9C2225.9 2461.9 2223.4 2418.3 2216 2396.5" stroke="black" stroke-width="5" stroke-linecap="round"/>
<path d="M577.8 1187.3C569.8 1171.2 556.4 1127.2 603.5 1145.1C642.2 1159.8 636.8 1122.1 629 1101.8" stroke="black" stroke-width="4.7644" stroke-linecap="round"/>
<path d="M790.8 2518.1C781.8 2495.4 771.2 2430.7 845.5 2442.3C906.5 2451.8 907.8 2394.3 900.2 2364.9" stroke="black" stroke-width="4.7644" stroke-linecap="round"/>
<path d="M2243.4 2160L2020.2 2427.9" stroke="black" stroke-width="4.7644" stroke-linecap="round"/>
<path d="M1370.3 2275L1084.8 2618" stroke="black" stroke-width="4.7644" stroke-linecap="round"/>
<path d="M2144.1 401.3L1858.6 744.3" stroke="#7432FF" stroke-width="4.7644" stroke-linecap="round"/>
<path d="M2131.9 508.2L1846.4 851.2" stroke="#7432FF" stroke-width="4.7644" stroke-linecap="round"/>
<path d="M1250.7 1343.2L965.2 1686.2" stroke="black" stroke-width="4.7644" stroke-linecap="round"/>
<path d="M349.2 1556.2L63.7 1899.2" stroke="black" stroke-width="4.7644" stroke-linecap="round"/>
<path d="M1242.4 2520.7L1084.8 2715.3" stroke="black" stroke-width="4.7644" stroke-linecap="round"/>
<path d="M506.7 812.4L374.6 970.9L242.5 1129.4" stroke="black" stroke-width="4.7644" stroke-linecap="round"/>
<path d="M844.6 495.5L349.3 1088.4" stroke="black" stroke-width="5" stroke-linecap="round"/>
<path d="M748 688.8L339.8 1187.4" stroke="black" stroke-width="4.7644" stroke-linecap="round"/>
<path d="M2933.9 1670.3L2499.4 2196.1" stroke="black" stroke-width="5" stroke-linecap="round"/>
<path d="M2874.9 1839.5L2489.2 2304.7" stroke="black" stroke-width="4.7644" stroke-linecap="round"/>
<path d="M280.2 739.6C296.051 739.6 308.9 726.751 308.9 710.9C308.9 695.049 296.051 682.2 280.2 682.2C264.349 682.2 251.5 695.049 251.5 710.9C251.5 726.751 264.349 739.6 280.2 739.6Z" stroke="black" stroke-width="18"/>
<path d="M2289.6 2102.9C2297.44 2102.9 2303.8 2096.54 2303.8 2088.7C2303.8 2080.86 2297.44 2074.5 2289.6 2074.5C2281.76 2074.5 2275.4 2080.86 2275.4 2088.7C2275.4 2096.54 2281.76 2102.9 2289.6 2102.9Z" stroke="black" stroke-width="14.2933"/>
<path d="M743.6 2180C751.442 2180 757.8 2173.64 757.8 2165.8C757.8 2157.96 751.442 2151.6 743.6 2151.6C735.758 2151.6 729.4 2157.96 729.4 2165.8C729.4 2173.64 735.758 2180 743.6 2180Z" stroke="black" stroke-width="14.2933"/>
<path d="M1760.2 924.6C1768.04 924.6 1774.4 918.242 1774.4 910.4C1774.4 902.558 1768.04 896.2 1760.2 896.2C1752.36 896.2 1746 902.558 1746 910.4C1746 918.242 1752.36 924.6 1760.2 924.6Z" stroke="black" stroke-width="14.2933"/>
<path d="M1604.6 436.7C1622.99 436.7 1637.9 421.791 1637.9 403.4C1637.9 385.009 1622.99 370.1 1604.6 370.1C1586.21 370.1 1571.3 385.009 1571.3 403.4C1571.3 421.791 1586.21 436.7 1604.6 436.7Z" stroke="black" stroke-width="6"/>
<path d="M1717.9 2065.1C1776.5 2065.1 1824 2017.6 1824 1959C1824 1900.4 1776.5 1852.9 1717.9 1852.9C1659.3 1852.9 1611.8 1900.4 1611.8 1959C1611.8 2017.6 1659.3 2065.1 1717.9 2065.1Z" stroke="black" stroke-width="5"/>
<path d="M2467.2 1251C2480.12 1251 2490.6 1240.52 2490.6 1227.6C2490.6 1214.68 2480.12 1204.2 2467.2 1204.2C2454.28 1204.2 2443.8 1214.68 2443.8 1227.6C2443.8 1240.52 2454.28 1251 2467.2 1251Z" stroke="black" stroke-width="11"/>
<path d="M946.1 1387.2C978.409 1387.2 1004.6 1361.01 1004.6 1328.7C1004.6 1296.39 978.409 1270.2 946.1 1270.2C913.791 1270.2 887.6 1296.39 887.6 1328.7C887.6 1361.01 913.791 1387.2 946.1 1387.2Z" stroke="black" stroke-width="6"/>
<path d="M2568.8 1714.1C2656.01 1714.1 2726.7 1643.41 2726.7 1556.2C2726.7 1468.99 2656.01 1398.3 2568.8 1398.3C2481.59 1398.3 2410.9 1468.99 2410.9 1556.2C2410.9 1643.41 2481.59 1714.1 2568.8 1714.1Z" stroke="#E1245A" stroke-width="34"/>
<path d="M935.6 925.7C990.773 925.7 1035.5 880.973 1035.5 825.8C1035.5 770.627 990.773 725.9 935.6 725.9C880.427 725.9 835.7 770.627 835.7 825.8C835.7 880.973 880.427 925.7 935.6 925.7Z" stroke="#E1245A" stroke-width="8"/>
<path d="M2073.7 902.8C2101.65 902.8 2124.3 880.146 2124.3 852.2C2124.3 824.254 2101.65 801.6 2073.7 801.6C2045.75 801.6 2023.1 824.254 2023.1 852.2C2023.1 880.146 2045.75 902.8 2073.7 902.8Z" stroke="#E1245A" stroke-width="15"/>
<path d="M701.4 1978.6C717.251 1978.6 730.1 1965.75 730.1 1949.9C730.1 1934.05 717.251 1921.2 701.4 1921.2C685.549 1921.2 672.7 1934.05 672.7 1949.9C672.7 1965.75 685.549 1978.6 701.4 1978.6Z" stroke="#E1245A" stroke-width="27"/>
<path d="M1688.6 865.7C1802.3 781.1 1747.4 705 1721.5 680.3C1712 661.3 1703.5 646.7 1669.4 634.9C1545.1 591.9 1508 712.2 1501.6 728.4C1481.5 780 1318.9 693 1269 801.4C1238.5 867.7 1334.7 923.3 1386.4 914.9C1374.6 921.2 1353.7 942.2 1391.3 977.4C1479.3 1046 1635.1 1052.5 1617.2 984.5C1599.4 916.6 1684.1 864.5 1688.6 865.7Z" fill="black"/>
<path d="M1914.8 636.2C1836.6 596.4 1754.2 638.7 1722.8 664.9C1737.6 673.2 1800.2 706.3 1853.5 722.7C1929.9 746.2 2012.5 686 1914.8 636.2Z" fill="black"/>
<path d="M1742.4 658.2C1728 643.9 1711.9 656.4 1705.7 664.4C1703 674.7 1717 686.7 1722.2 688C1736.4 691.7 1760.5 676.1 1742.4 658.2Z" fill="black"/>
<path d="M1543.7 851C1489.5 831.9 1498 747.4 1523.9 714.3C1589 712.8 1626.2 668.2 1625.2 672.1C1597.7 776.7 1664.9 803.7 1663.7 808.2C1690.3 890.2 1749.4 956 1747.7 962.5C1715.4 1026.7 1649.9 1004.7 1621.2 985.7L1573.6 850C1569.1 851.5 1554.8 854.9 1543.7 851Z" fill="#FFF3F3"/>
<path d="M1538.1 777.5C1538.1 777.5 1525.5 769.4 1527.2 762.3C1528.3 757.8 1549.9 737.7 1549.9 737.7" stroke="black" stroke-width="5" stroke-linecap="round"/>
<path d="M1572.9 850.7C1598.2 845.4 1626.3 821.3 1637.2 809.9L1595.3 912.5L1572.9 850.7Z" fill="#F4A031"/>
<path d="M1570.7 745.9C1577.5 767 1607.9 766.5 1607.9 766.5" stroke="black" stroke-width="5" stroke-linecap="round"/>
<path d="M1505.6 737C1508.2 737.5 1516 737.7 1526.2 734.1" stroke="black" stroke-width="5" stroke-linecap="round"/>
<path d="M1639.2 807.3C1632.2 815.8 1610.7 835.5 1581.4 846.5" stroke="black" stroke-width="5" stroke-linecap="round"/>
<path d="M1572 802.7C1579.68 802.7 1585.9 796.477 1585.9 788.8C1585.9 781.123 1579.68 774.9 1572 774.9C1564.32 774.9 1558.1 781.123 1558.1 788.8C1558.1 796.477 1564.32 802.7 1572 802.7Z" fill="#FFF3F3"/>
<path d="M1519.2 767.5C1518.2 775.1 1511.1 780.5 1503.5 779.5C1503.5 779.5 1503.6 773.1 1504.8 765.5C1505.8 757.9 1507.7 751.9 1507.7 751.9C1515.3 752.9 1520.2 759.9 1519.2 767.5Z" fill="#F4A031"/>
<path d="M1340.3 726.6C1299.7 737 1224.9 773.9 1250.5 837.9" stroke="black" stroke-width="4.7644" stroke-linecap="round"/>
<path d="M1088 1063.1C1105 1104.5 1148.6 1133.9 1169.2 1148.8L1145.9 1264C1125.4 1253.6 1022.4 1148 993.7 1117.9C964.1 1086.8 938.6 1056 938.6 1056.7C938.6 1057.4 937.6 1059.7 933.5 1063.1C929.4 1066.5 923.7 1066 921.3 1065.4C918.7 1074.3 911.2 1090.9 902.3 1086.8C893.4 1082.7 897.3 1055.4 900.4 1042.3C900.4 1042.3 908 1035.3 909.4 1038.2C910.5 1031.1 918.6 994.5 925.4 990.5C929.9 987.8 932.3 989.4 933.2 991.1C933.9 989.2 935.5 985.5 938.7 978.9C945.8 964.3 951.4 966.2 953.4 968.9C941.8 952 916.6 915 910.2 897.6C906.9 888.7 921.2 884.1 935.8 899.3C952.2 916.5 1021.1 990.1 1031.7 986.5C1042.3 983 1045.2 907.7 1058.2 918.2C1070.9 928.9 1066.8 1011.3 1088 1063.1Z" fill="#FF6B6B"/>
<path d="M2175.9 1567.4C2164.2 1571.5 2205.4 1645.4 2186.9 1647.6C2181.1 1648.3 2105.8 1553.8 2056 1483.6L1928.9 1377.6C1923.6 1373.9 1920.6 1371.6 1920.6 1370.7L2018.2 1283.1C2030.2 1299.4 2098.1 1385.9 2175.9 1433.4C2253.7 1480.8 2330.6 1511.3 2327.3 1521.8C2324 1532.3 2287.5 1519.4 2269.3 1511.3C2292.5 1522.2 2338.3 1546.6 2336.4 1556.7C2334.5 1566.8 2284.6 1548.4 2259.9 1537.9C2283.8 1549.5 2333.2 1574.2 2340.1 1580.2L2340.3 1580.4C2348.6 1587.7 2351.5 1590.3 2345.1 1596.5C2340 1601.6 2282 1576.8 2253.7 1563.8C2268.9 1575.5 2300.7 1601.2 2306.1 1610.8C2311.6 1620.3 2300.3 1621.4 2293.9 1620.8C2258.5 1601.7 2185.3 1564.1 2175.9 1567.4Z" fill="#FF6B6B"/>
<path d="M2243.5 1497.5L2232.8 1491.5" stroke="black" stroke-width="5" stroke-linecap="round"/>
<path d="M2235.1 1520L2224.4 1513.9" stroke="black" stroke-width="5" stroke-linecap="round"/>
<path d="M2228.8 1541.1L2218.2 1535" stroke="black" stroke-width="5" stroke-linecap="round"/>
<path d="M1910.9 1389.2L2017.5 1301.6" stroke="black" stroke-width="5" stroke-linecap="round"/>
<path d="M1132.5 1290L1158 1154.4" stroke="black" stroke-width="5" stroke-linecap="round"/>
<path d="M1205.5 1138.2C1217.9 1148.3 1236.2 1160.9 1260 1170.4" stroke="black" stroke-width="5" stroke-linecap="round"/>
<path d="M1027.1 1003.5C1026.1 1016.6 1026.4 1035 1031.7 1055.8" stroke="black" stroke-width="5" stroke-linecap="round"/>
<path d="M938.5 995C937.5 1008.1 937.8 1026.5 943.1 1047.3" stroke="black" stroke-width="5" stroke-linecap="round"/>
<path d="M912.4 1033.3C911.7 1042.8 911.9 1056.2 915.7 1071.3" stroke="black" stroke-width="5" stroke-linecap="round"/>
<path d="M963.6 971.4C962.9 981 963.1 994.3 966.9 1009.4" stroke="black" stroke-width="5" stroke-linecap="round"/>
<path d="M1606.1 943.3C1520.9 936.6 1436.1 1000.3 1404.4 1033C1365.2 1071.3 1276.8 1158.7 1233.5 1157.7C1180.9 1156.5 1173.6 1152.1 1168.7 1148.8L1145.3 1264.1C1157.9 1272 1193.2 1287.9 1233.5 1287.9C1273.8 1287.9 1419.3 1201.1 1487 1157.6L1400.1 1363.1L1751.8 1447.4L1760.1 1147.8C1760.1 1147.8 1820.9 1288.2 1921.2 1371.9L2022.3 1288.2C1921.2 1160.5 1907.3 1049 1861.5 1001.5C1801.8 939.6 1732.2 939.3 1732.2 939.3C1680.9 982.4 1624.8 954 1606.1 943.3Z" fill="#F4A031"/>
<path d="M1756.9 1124.5C1757.4 1223.8 1757.1 1427.4 1751.7 1448.2C1751.8 1448.3 1751.8 1448.3 1751.7 1448.3V1448.2C1747.5 1445 1569.8 1382.3 1527.9 1380.2C1547.4 1363.9 1570.1 1333.9 1664.2 1318.7C1726.5 1308.6 1752 1185 1756.9 1124.5Z" fill="#FF7A00"/>
<path d="M1484 1161.4L1523.8 1087.5C1500.8 1101.9 1450.8 1136.9 1435.2 1161.4C1419.6 1186 1305 1254.4 1249.6 1285.6C1280.8 1282.2 1418.8 1201.4 1484 1161.4Z" fill="#FF7A00"/>
<path d="M1466.4 1361.2C1571 1379.4 1697.4 1407.6 1787.6 1457.4" stroke="black" stroke-width="5" stroke-linecap="round"/>
<path d="M1775.5 1317C1775.3 1247.7 1771.2 1163.2 1749.2 1099.6" stroke="black" stroke-width="5" stroke-linecap="round"/>
<path d="M1420.9 1281C1449.5 1220 1486.3 1145.9 1523 1090.9" stroke="black" stroke-width="5" stroke-linecap="round"/>
<path d="M1475.1 1142.7C1477.9 1120.9 1483 1094.9 1494.8 1077.6" stroke="black" stroke-width="5" stroke-linecap="round"/>
<path d="M1614.8 951C1630.3 957.5 1684.3 978.2 1731.2 942.3" stroke="black" stroke-width="5" stroke-linecap="round"/>
<path d="M1493.2 1036.5C1505.68 1036.5 1515.8 1026.38 1515.8 1013.9C1515.8 1001.42 1505.68 991.3 1493.2 991.3C1480.72 991.3 1470.6 1001.42 1470.6 1013.9C1470.6 1026.38 1480.72 1036.5 1493.2 1036.5Z" fill="black"/>
<path d="M1559.2 1230.9C1571.68 1230.9 1581.8 1220.78 1581.8 1208.3C1581.8 1195.82 1571.68 1185.7 1559.2 1185.7C1546.72 1185.7 1536.6 1195.82 1536.6 1208.3C1536.6 1220.78 1546.72 1230.9 1559.2 1230.9Z" fill="black"/>
<path d="M1704.3 1066.7C1716.78 1066.7 1726.9 1056.58 1726.9 1044.1C1726.9 1031.62 1716.78 1021.5 1704.3 1021.5C1691.82 1021.5 1681.7 1031.62 1681.7 1044.1C1681.7 1056.58 1691.82 1066.7 1704.3 1066.7Z" fill="black"/>
<path d="M1692.8 1388.5C1705.28 1388.5 1715.4 1378.38 1715.4 1365.9C1715.4 1353.42 1705.28 1343.3 1692.8 1343.3C1680.32 1343.3 1670.2 1353.42 1670.2 1365.9C1670.2 1378.38 1680.32 1388.5 1692.8 1388.5Z" fill="black"/>
<path d="M1881.9 1299.5C1889.9 1309.1 1888.6 1323.4 1879 1331.4C1865.1 1315.8 1860.4 1311.3 1850 1296.6C1859.7 1288.6 1873.9 1289.9 1881.9 1299.5Z" fill="black"/>
<path d="M1869 1112.9C1881.48 1112.9 1891.6 1102.78 1891.6 1090.3C1891.6 1077.82 1881.48 1067.7 1869 1067.7C1856.52 1067.7 1846.4 1077.82 1846.4 1090.3C1846.4 1102.78 1856.52 1112.9 1869 1112.9Z" fill="black"/>
<path d="M1311.6 1244.1C1324.08 1244.1 1334.2 1233.98 1334.2 1221.5C1334.2 1209.02 1324.08 1198.9 1311.6 1198.9C1299.12 1198.9 1289 1209.02 1289 1221.5C1289 1233.98 1299.12 1244.1 1311.6 1244.1Z" fill="black"/>
<path d="M1231 1157.4C1230.3 1169.9 1219.8 1178.7 1207.3 1178.1C1194.8 1177.4 1185.2 1166.8 1185.9 1154.3C1185.9 1154.3 1202.8 1157.4 1231 1157.4Z" fill="black"/>
<path d="M1251.5 1958.3C1232.9 1879.8 1276.1 1767.8 1301.1 1719.3L1653.4 1853.9L1677.4 2071.5C1526.8 2104.9 1272.5 2047.3 1251.5 1958.3Z" fill="#FF6B6B"/>
<path d="M1467.3 1784.2L1293.9 1736.1C1310.4 1747.1 1356.8 1769.9 1375.5 1801.3C1407.8 1855.2 1435.8 1931.4 1448.9 1977.4C1441.4 1932.9 1457.4 1828.1 1467.3 1784.2Z" fill="#E34545"/>
<path d="M1616.5 1927.1L1650.9 2126.9C1686 2119.5 1746.7 2109.1 1767.2 2109.1C1778.1 2109.1 1845.7 2130.2 1908.5 2185.1C1958.7 2229 2005.8 2229.2 2023 2223.7L1925 1921.7C1889.2 1913.9 1872 1899.9 1860.3 1881.4L1910.1 1864.6L1894.5 1814C1805.3 1825.8 1677.3 1884.9 1616.5 1927.1Z" fill="black"/>
<path d="M1443.1 2000C1418.6 1916.6 1439.4 1772.2 1452.9 1710.4L1637 1768.1C1625.5 1804.1 1612.2 1894.7 1650.5 1969.3C1688.8 2043.9 1741.7 2102.6 1763.4 2122.7L1526.6 2181.6C1509.9 2152.2 1464 2048.3 1443.1 2000Z" fill="#FF6B6B"/>
<path d="M1455.3 1863.6C1448.4 1906.7 1442 2016 1472 2108.1" stroke="black" stroke-width="5" stroke-linecap="round"/>
<path d="M1209.5 1885.5C1214 1941.1 1250.9 2045.4 1362.5 2017.1" stroke="black" stroke-width="5" stroke-linecap="round"/>
<path d="M1788.5 2165.8L1543.3 2236.4C1557.5 2279.3 1578.9 2353.7 1581.7 2379.4C1583.2 2393.1 1566.2 2480.5 1506.3 2566.6C1458.4 2635.5 1464.7 2694.4 1473.8 2715.2L1837.9 2550.7C1842.7 2504.9 1857.9 2481.4 1879.3 2464.2L1907.2 2524.2L1968.3 2497.7C1941.4 2387.9 1849.7 2236 1788.5 2165.8Z" fill="black"/>
<path d="M1705.4 1853.4L1751.7 1447.3C1751.7 1447.3 1662.7 1414.5 1585.7 1394.7C1476.5 1366.6 1401.6 1358.9 1401.6 1358.9L1198.8 1709.3L1705.4 1853.4Z" fill="#E1245A"/>
<path d="M1695.9 1571.5C1716 1489.7 1665 1429.3 1637 1409.4L1750.9 1446.1L1705.6 1852.3L1462.4 1783.8C1462.4 1777 1474.9 1752.9 1525.1 1710.5C1587.8 1657.4 1670.8 1673.8 1695.9 1571.5Z" fill="#E1245A"/>
<path d="M1765 1458.1L1718.8 1865.8L1263.8 1739.7" stroke="black" stroke-width="5" stroke-linecap="round"/>
<path d="M1595.9 1438.9C1605.6 1463 1636 1516.8 1680.5 1539.1C1725 1561.4 1638.2 1710.9 1589.2 1783" stroke="black" stroke-width="5" stroke-linecap="round"/>
</svg>
