<svg width="1279" height="620" viewBox="0 0 1279 620" fill="none" xmlns="http://www.w3.org/2000/svg">
<g clip-path="url(#clip0)">
<rect width="1279" height="620" fill="white"/>
<g opacity="0.2">
<path d="M223.446 132.466L221.969 137.466L202.467 149.376L202.344 149.433L184.502 138.983L181.487 132.466C181.795 132.185 181.979 131.848 182.287 131.623L200.744 120.387C201.174 120.05 201.852 119.938 202.467 119.938C203.082 119.938 203.759 120.05 204.189 120.387L222.646 131.623C222.954 131.848 223.139 132.185 223.446 132.466Z" fill="#F2F2F2"/>
<path d="M192.479 81.5282L191.003 86.5283L171.5 98.4389L171.377 98.4951L153.535 88.0454L150.521 81.5282C150.828 81.2473 151.012 80.9102 151.32 80.6853L169.777 69.4491C170.208 69.1122 170.885 69 171.5 69C172.115 69 172.792 69.1122 173.223 69.4493L191.68 80.6855C191.987 80.9104 192.172 81.2475 192.479 81.5282Z" fill="#F2F2F2"/>
<path d="M161.512 132.466L160.036 137.466L140.533 149.376L140.41 149.433L122.568 138.983L119.554 132.466C119.861 132.185 120.046 131.848 120.353 131.623L138.81 120.387C139.241 120.05 139.918 119.938 140.533 119.938C141.148 119.938 141.825 120.05 142.256 120.387L160.713 131.623C161.021 131.848 161.205 132.185 161.512 132.466Z" fill="#F2F2F2"/>
<path d="M210.137 105.312L174.576 126.942V150.651C174.576 152.224 173.223 153.46 171.5 153.46C169.777 153.46 168.424 152.224 168.424 150.651V126.942L132.863 105.312C131.448 104.413 131.079 102.672 132.002 101.38C132.986 100.088 134.893 99.7506 136.308 100.593L171.5 122.055L206.691 100.593C208.106 99.7504 210.014 100.088 210.998 101.38C211.921 102.672 211.552 104.413 210.137 105.312Z" fill="white"/>
<path d="M162.066 133.984V150.838C162.066 151.793 161.574 152.636 160.713 153.198L142.256 164.434H142.071C142.071 164.49 142.01 164.547 142.01 164.547C141.517 164.771 141.026 164.884 140.533 164.884C140.041 164.884 139.549 164.771 139.057 164.547C139.057 164.547 138.995 164.491 138.995 164.434H138.81L120.353 153.198C119.492 152.636 119 151.793 119 150.838V133.984C119 133.478 119.185 132.804 119.554 132.467L140.533 145.22L161.512 132.467C161.882 132.804 162.066 133.478 162.066 133.984Z" fill="white"/>
<path d="M161.512 132.466L160.036 137.466L140.533 149.376V119.938C141.148 119.938 141.825 120.05 142.256 120.387L160.713 131.623C161.021 131.848 161.205 132.185 161.512 132.466Z" fill="white"/>
<path d="M162.066 133.984V150.838C162.066 151.793 161.574 152.636 160.713 153.198L142.256 164.434H142.071C142.071 164.49 142.01 164.547 142.01 164.547C141.517 164.771 141.026 164.884 140.533 164.884V145.22L161.512 132.467C161.882 132.804 162.066 133.478 162.066 133.984Z" fill="#EBEBEB"/>
<path d="M224 133.984V150.838C224 151.793 223.508 152.636 222.647 153.198L204.19 164.434H204.005C204.005 164.49 203.943 164.546 203.943 164.546C203.451 164.771 202.959 164.883 202.467 164.883C201.974 164.883 201.483 164.771 200.99 164.546C200.99 164.546 200.929 164.49 200.929 164.434H200.744L182.287 153.198C181.426 152.636 180.934 151.793 180.934 150.838V133.984C180.934 133.478 181.118 132.804 181.488 132.467L202.467 145.22L223.446 132.467C223.815 132.804 224 133.478 224 133.984Z" fill="white"/>
<path d="M223.446 132.466L221.969 137.466L202.467 149.376V119.938C203.082 119.938 203.759 120.05 204.19 120.387L222.647 131.623C222.954 131.848 223.139 132.185 223.446 132.466Z" fill="white"/>
<path d="M224 133.984V150.838C224 151.793 223.508 152.636 222.647 153.198L204.19 164.434H204.005C204.005 164.49 203.943 164.547 203.943 164.547C203.451 164.771 202.959 164.884 202.467 164.884V145.22L223.446 132.467C223.815 132.804 224 133.478 224 133.984Z" fill="#EBEBEB"/>
<path d="M193.033 83.0454V99.8996C193.033 100.855 192.541 101.697 191.68 102.259L173.223 113.495H173.038C173.038 113.551 172.977 113.608 172.977 113.608C172.484 113.832 171.992 113.945 171.5 113.945C171.008 113.945 170.516 113.832 170.023 113.608C170.023 113.608 169.962 113.552 169.962 113.495H169.777L151.32 102.259C150.459 101.697 149.967 100.855 149.967 99.8996V83.0454C149.967 82.5396 150.152 81.8654 150.521 81.5283L171.5 94.2815L192.479 81.5283C192.848 81.8654 193.033 82.5396 193.033 83.0454Z" fill="white"/>
<path d="M192.479 81.5284L191.003 86.5286L171.5 98.4395V69C172.115 69 172.792 69.1122 173.223 69.4493L191.68 80.6857C191.987 80.9106 192.172 81.2477 192.479 81.5284Z" fill="white"/>
<path d="M193.033 83.0454V99.8996C193.033 100.855 192.541 101.697 191.68 102.259L173.223 113.495H173.038C173.038 113.551 172.977 113.608 172.977 113.608C172.484 113.832 171.992 113.945 171.5 113.945V94.2815L192.479 81.5283C192.848 81.8654 193.033 82.5396 193.033 83.0454Z" fill="#EBEBEB"/>
<path d="M210.137 105.312L174.576 126.942V150.651C174.576 152.224 173.223 153.46 171.5 153.46V122.055L206.691 100.593C208.106 99.7504 210.014 100.088 210.998 101.38C211.921 102.672 211.552 104.413 210.137 105.312Z" fill="white"/>
<path d="M223.446 221.044L221.969 226.044L202.467 237.955L202.344 238.011L184.502 227.561L181.487 221.044C181.795 220.763 181.979 220.426 182.287 220.201L200.744 208.965C201.174 208.628 201.852 208.516 202.467 208.516C203.082 208.516 203.759 208.628 204.189 208.965L222.646 220.201C222.954 220.426 223.139 220.763 223.446 221.044Z" fill="#F2F2F2"/>
<path d="M192.479 170.106L191.003 175.106L171.5 187.017L171.377 187.073L153.535 176.623L150.521 170.106C150.828 169.825 151.012 169.488 151.32 169.263L169.777 158.026C170.208 157.689 170.885 157.577 171.5 157.577C172.115 157.577 172.792 157.689 173.223 158.026L191.68 169.263C191.987 169.488 192.172 169.825 192.479 170.106Z" fill="#F2F2F2"/>
<path d="M161.512 221.044L160.036 226.044L140.533 237.955L140.41 238.011L122.568 227.561L119.554 221.044C119.861 220.763 120.046 220.426 120.353 220.201L138.81 208.965C139.241 208.628 139.918 208.516 140.533 208.516C141.148 208.516 141.825 208.628 142.256 208.965L160.713 220.201C161.021 220.426 161.205 220.763 161.512 221.044Z" fill="#F2F2F2"/>
<path d="M210.137 193.89L174.576 215.52V239.229C174.576 240.801 173.223 242.038 171.5 242.038C169.777 242.038 168.424 240.801 168.424 239.229V215.52L132.863 193.89C131.448 192.991 131.079 191.25 132.002 189.958C132.986 188.666 134.893 188.329 136.308 189.171L171.5 210.632L206.691 189.171C208.106 188.329 210.014 188.666 210.998 189.958C211.921 191.25 211.552 192.991 210.137 193.89Z" fill="white"/>
<path d="M162.066 222.562V239.417C162.066 240.371 161.574 241.214 160.713 241.776L142.256 253.012H142.071C142.071 253.068 142.01 253.125 142.01 253.125C141.517 253.349 141.026 253.462 140.533 253.462C140.041 253.462 139.549 253.349 139.057 253.125C139.057 253.125 138.995 253.069 138.995 253.012H138.81L120.353 241.776C119.492 241.214 119 240.371 119 239.417V222.562C119 222.056 119.185 221.382 119.554 221.045L140.533 233.798L161.512 221.045C161.882 221.382 162.066 222.056 162.066 222.562Z" fill="white"/>
<path d="M161.512 221.044L160.036 226.044L140.533 237.955V208.516C141.148 208.516 141.825 208.628 142.256 208.965L160.713 220.201C161.021 220.426 161.205 220.763 161.512 221.044Z" fill="white"/>
<path d="M162.066 222.562V239.417C162.066 240.371 161.574 241.214 160.713 241.776L142.256 253.012H142.071C142.071 253.068 142.01 253.125 142.01 253.125C141.517 253.349 141.026 253.462 140.533 253.462V233.798L161.512 221.045C161.882 221.382 162.066 222.056 162.066 222.562Z" fill="#EBEBEB"/>
<path d="M224 222.562V239.417C224 240.371 223.508 241.214 222.647 241.776L204.19 253.012H204.005C204.005 253.068 203.943 253.125 203.943 253.125C203.451 253.349 202.959 253.462 202.467 253.462C201.974 253.462 201.483 253.349 200.99 253.125C200.99 253.125 200.929 253.069 200.929 253.012H200.744L182.287 241.776C181.426 241.214 180.934 240.371 180.934 239.417V222.562C180.934 222.056 181.118 221.382 181.488 221.045L202.467 233.798L223.446 221.045C223.815 221.382 224 222.056 224 222.562Z" fill="white"/>
<path d="M223.446 221.044L221.969 226.044L202.467 237.955V208.516C203.082 208.516 203.759 208.628 204.19 208.965L222.647 220.201C222.954 220.426 223.139 220.763 223.446 221.044Z" fill="white"/>
<path d="M224 222.562V239.417C224 240.371 223.508 241.214 222.647 241.776L204.19 253.012H204.005C204.005 253.068 203.943 253.125 203.943 253.125C203.451 253.349 202.959 253.462 202.467 253.462V233.798L223.446 221.045C223.815 221.382 224 222.056 224 222.562Z" fill="#EBEBEB"/>
<path d="M193.033 171.623V188.477C193.033 189.432 192.541 190.275 191.68 190.837L173.223 202.073H173.038C173.038 202.129 172.977 202.186 172.977 202.186C172.484 202.41 171.992 202.523 171.5 202.523C171.008 202.523 170.516 202.41 170.023 202.186C170.023 202.186 169.962 202.13 169.962 202.073H169.777L151.32 190.837C150.459 190.275 149.967 189.432 149.967 188.477V171.623C149.967 171.117 150.152 170.443 150.521 170.105L171.5 182.859L192.479 170.105C192.848 170.443 193.033 171.117 193.033 171.623Z" fill="white"/>
<path d="M192.479 170.106L191.003 175.106L171.5 187.017V157.577C172.115 157.577 172.792 157.689 173.223 158.026L191.68 169.263C191.987 169.488 192.172 169.825 192.479 170.106Z" fill="white"/>
<path d="M193.033 171.623V188.477C193.033 189.432 192.541 190.275 191.68 190.837L173.223 202.073H173.038C173.038 202.129 172.977 202.186 172.977 202.186C172.484 202.41 171.992 202.523 171.5 202.523V182.859L192.479 170.105C192.848 170.443 193.033 171.117 193.033 171.623Z" fill="#EBEBEB"/>
<path d="M210.137 193.89L174.576 215.52V239.229C174.576 240.801 173.223 242.038 171.5 242.038V210.632L206.691 189.171C208.106 188.329 210.014 188.666 210.998 189.958C211.921 191.25 211.552 192.991 210.137 193.89Z" fill="white"/>
</g>
<g opacity="0.2">
<path d="M143.993 506.941L139.912 510.186L117.106 508.735L116.973 508.711L108.369 489.909L109.644 482.843C110.057 482.79 110.402 482.62 110.783 482.612L132.345 484.014C132.891 483.985 133.51 484.283 134.014 484.636C134.517 484.989 135.007 485.47 135.166 485.993L143.822 505.792C143.945 506.153 143.902 506.534 143.993 506.941Z" fill="#F2F2F2"/>
<path d="M147.897 447.457L143.817 450.703L121.011 449.252L120.878 449.227L112.273 430.426L113.548 423.359C113.962 423.306 114.306 423.136 114.687 423.129L136.25 424.531C136.796 424.502 137.415 424.799 137.918 425.152C138.422 425.506 138.911 425.986 139.07 426.51L147.727 446.308C147.849 446.669 147.807 447.051 147.897 447.457Z" fill="#F2F2F2"/>
<path d="M93.2921 471.371L89.2117 474.617L66.4057 473.166L66.2725 473.141L57.6683 454.34L58.9434 447.274C59.3565 447.22 59.7011 447.05 60.0819 447.043L81.6445 448.445C82.1907 448.416 82.8094 448.713 83.3129 449.066C83.8164 449.42 84.3063 449.9 84.4653 450.424L93.1216 470.222C93.2443 470.583 93.2016 470.965 93.2921 471.371Z" fill="#F2F2F2"/>
<path d="M148.693 477.068L107.159 474.352L93.5425 493.761C92.6391 495.048 90.8213 495.283 89.4109 494.294C88.0005 493.304 87.6026 491.515 88.506 490.227L102.123 470.818L85.434 432.688C84.7921 431.14 85.4902 429.502 86.9877 428.974C88.5354 428.482 90.2903 429.301 90.965 430.804L107.448 468.584L148.582 471.226C150.225 471.349 151.593 472.72 151.656 474.343C151.67 475.931 150.367 477.145 148.693 477.068Z" fill="white"/>
<path d="M92.8739 472.931L83.194 486.729C82.6456 487.51 81.7584 487.918 80.7311 487.883L59.1683 486.481L59.0171 486.375C58.9848 486.421 58.9021 486.432 58.9021 486.432C58.37 486.333 57.9028 486.142 57.4997 485.86C57.0966 485.577 56.7587 485.202 56.4845 484.736C56.4845 484.736 56.4664 484.654 56.4988 484.608L56.3476 484.502L47.6913 464.703C47.3091 463.749 47.3901 462.776 47.9386 461.995L57.6184 448.197C57.909 447.783 58.4474 447.337 58.9432 447.273L68.7929 469.762L93.2917 471.371C93.4003 471.859 93.1644 472.517 92.8739 472.931Z" fill="white"/>
<path d="M93.292 471.371L89.2116 474.616L66.4056 473.166L83.313 449.066C83.8165 449.42 84.3064 449.9 84.4654 450.424L93.1216 470.222C93.2442 470.583 93.2016 470.965 93.292 471.371Z" fill="white"/>
<path d="M92.8741 472.931L83.1942 486.729C82.6458 487.51 81.7586 487.918 80.7313 487.883L59.1685 486.481L59.0173 486.375C58.985 486.421 58.9023 486.432 58.9023 486.432C58.3702 486.333 57.903 486.143 57.4999 485.86L68.7931 469.763L93.2919 471.371C93.4005 471.859 93.1646 472.517 92.8741 472.931Z" fill="#EBEBEB"/>
<path d="M143.575 508.501L133.895 522.299C133.346 523.08 132.459 523.488 131.432 523.453L109.869 522.051L109.718 521.945C109.686 521.991 109.603 522.002 109.603 522.002C109.071 521.903 108.604 521.712 108.201 521.429C107.798 521.147 107.46 520.772 107.185 520.306C107.185 520.306 107.167 520.224 107.2 520.178L107.049 520.072L98.3922 500.273C98.01 499.319 98.091 498.346 98.6394 497.565L108.319 483.767C108.61 483.353 109.148 482.907 109.644 482.844L119.494 505.333L143.992 506.941C144.101 507.429 143.865 508.087 143.575 508.501Z" fill="white"/>
<path d="M143.993 506.941L139.913 510.186L117.107 508.735L134.014 484.636C134.518 484.989 135.008 485.47 135.167 485.993L143.823 505.792C143.945 506.152 143.903 506.534 143.993 506.941Z" fill="white"/>
<path d="M143.575 508.501L133.895 522.299C133.346 523.081 132.459 523.488 131.432 523.453L109.869 522.051L109.718 521.945C109.686 521.991 109.603 522.002 109.603 522.002C109.071 521.903 108.604 521.713 108.201 521.43L119.494 505.333L143.993 506.941C144.101 507.429 143.865 508.087 143.575 508.501Z" fill="#EBEBEB"/>
<path d="M147.479 449.017L137.8 462.814C137.251 463.596 136.364 464.003 135.337 463.969L113.774 462.567L113.623 462.46C113.591 462.506 113.508 462.517 113.508 462.517C112.976 462.418 112.509 462.228 112.105 461.945C111.702 461.662 111.364 461.288 111.09 460.821C111.09 460.821 111.072 460.74 111.105 460.694L110.953 460.588L102.297 440.789C101.915 439.835 101.996 438.862 102.544 438.08L112.224 424.283C112.514 423.869 113.053 423.423 113.549 423.359L123.398 445.848L147.897 447.457C148.006 447.945 147.77 448.603 147.479 449.017Z" fill="white"/>
<path d="M147.897 447.457L143.817 450.703L121.011 449.252L137.918 425.152C138.422 425.506 138.912 425.986 139.071 426.51L147.727 446.308C147.85 446.669 147.807 447.051 147.897 447.457Z" fill="white"/>
<path d="M147.479 449.017L137.799 462.814C137.251 463.596 136.364 464.003 135.336 463.969L113.774 462.567L113.623 462.461C113.59 462.507 113.508 462.517 113.508 462.517C112.975 462.418 112.508 462.228 112.105 461.945L123.398 445.848L147.897 447.457C148.006 447.945 147.77 448.603 147.479 449.017Z" fill="#EBEBEB"/>
<path d="M148.693 477.068L107.159 474.351L93.5423 493.76C92.639 495.048 90.8211 495.282 89.4107 494.293L107.448 468.583L148.582 471.225C150.225 471.348 151.592 472.72 151.656 474.342C151.67 475.93 150.367 477.144 148.693 477.068Z" fill="white"/>
<path d="M93.1206 579.454L89.0401 582.699L66.234 581.249L66.1009 581.224L57.4968 562.422L58.7719 555.356C59.185 555.303 59.5296 555.132 59.9104 555.125L81.4731 556.527C82.0193 556.498 82.6381 556.795 83.1415 557.148C83.645 557.502 84.1349 557.982 84.2939 558.506L92.9501 578.304C93.0728 578.665 93.0301 579.047 93.1206 579.454Z" fill="#F2F2F2"/>
<path d="M97.0253 519.969L92.9448 523.215L70.1385 521.765L70.0054 521.74L61.4014 502.938L62.6766 495.872C63.0898 495.818 63.4343 495.648 63.8151 495.641L85.378 497.042C85.9242 497.014 86.543 497.311 87.0465 497.664C87.55 498.017 88.0399 498.498 88.1988 499.021L96.8549 518.82C96.9775 519.181 96.9349 519.563 97.0253 519.969Z" fill="#F2F2F2"/>
<path d="M42.4199 543.884L38.3394 547.13L15.5333 545.679L15.4002 545.654L6.79607 526.853L8.0712 519.787C8.48436 519.733 8.82888 519.563 9.20971 519.556L30.7724 520.957C31.3186 520.929 31.9374 521.226 32.4409 521.579C32.9443 521.932 33.4343 522.413 33.5932 522.936L42.2494 542.735C42.3721 543.096 42.3295 543.478 42.4199 543.884Z" fill="#F2F2F2"/>
<path d="M97.8207 549.58L56.2873 546.863L42.671 566.272C41.7676 567.559 39.9498 567.794 38.5394 566.805C37.129 565.815 36.7311 564.026 37.6345 562.738L51.2508 543.33L34.562 505.2C33.9201 503.651 34.6181 502.014 36.1156 501.486C37.6633 500.994 39.4182 501.813 40.0929 503.315L56.5762 541.095L97.7104 543.738C99.3528 543.861 100.721 545.232 100.784 546.855C100.798 548.443 99.4953 549.656 97.8207 549.58Z" fill="white"/>
<path d="M42.0018 545.444L32.3219 559.241C31.7735 560.023 30.8863 560.43 29.859 560.396L8.29626 558.994L8.14499 558.888C8.11273 558.934 8.02999 558.944 8.02999 558.944C7.49794 558.845 7.03072 558.655 6.62763 558.372C6.22454 558.089 5.8866 557.715 5.61247 557.248C5.61247 557.248 5.59437 557.167 5.62675 557.121L5.47548 557.015L-3.18073 537.216C-3.56295 536.262 -3.48194 535.289 -2.93352 534.507L6.74638 520.71C7.03688 520.296 7.57534 519.85 8.07113 519.786L17.9208 542.275L42.4197 543.884C42.5283 544.372 42.2923 545.03 42.0018 545.444Z" fill="white"/>
<path d="M42.4199 543.883L38.3395 547.128L15.5335 545.678L32.4409 521.578C32.9444 521.931 33.4343 522.412 33.5933 522.935L42.2495 542.734C42.3722 543.095 42.3295 543.477 42.4199 543.883Z" fill="white"/>
<path d="M42.002 545.444L32.3221 559.241C31.7737 560.023 30.8865 560.43 29.8592 560.396L8.29646 558.994L8.1452 558.888C8.11293 558.934 8.03019 558.945 8.03019 558.945C7.49814 558.846 7.03092 558.655 6.62783 558.372L17.921 542.275L42.4199 543.884C42.5285 544.372 42.2925 545.03 42.002 545.444Z" fill="#EBEBEB"/>
<path d="M92.7025 581.014L83.0226 594.812C82.4742 595.593 81.587 596.001 80.5597 595.966L58.9969 594.564L58.8457 594.458C58.8134 594.504 58.7307 594.515 58.7307 594.515C58.1986 594.416 57.7314 594.225 57.3283 593.943C56.9252 593.66 56.5873 593.285 56.3132 592.819C56.3132 592.819 56.2951 592.737 56.3274 592.691L56.1762 592.585L47.5199 572.786C47.1377 571.832 47.2187 570.859 47.7672 570.078L57.4471 556.28C57.7376 555.866 58.276 555.42 58.7718 555.356L68.6215 577.845L93.1204 579.454C93.229 579.942 92.993 580.6 92.7025 581.014Z" fill="white"/>
<path d="M93.1211 579.453L89.0407 582.698L66.2347 581.248L83.1421 557.148C83.6456 557.502 84.1355 557.982 84.2945 558.506L92.9507 578.304C93.0733 578.665 93.0307 579.047 93.1211 579.453Z" fill="white"/>
<path d="M92.7027 581.013L83.0228 594.811C82.4744 595.593 81.5872 596 80.5599 595.965L58.9971 594.563L58.8459 594.457C58.8136 594.503 58.7309 594.514 58.7309 594.514C58.1988 594.415 57.7316 594.225 57.3285 593.942L68.6217 577.845L93.1206 579.453C93.2292 579.941 92.9932 580.599 92.7027 581.013Z" fill="#EBEBEB"/>
<path d="M96.6073 521.53L86.9272 535.327C86.3788 536.109 85.4916 536.516 84.4643 536.482L62.9014 535.08L62.7502 534.974C62.7179 535.02 62.6352 535.031 62.6352 535.031C62.1031 534.932 61.6359 534.741 61.2328 534.459C60.8297 534.176 60.4918 533.801 60.2177 533.335C60.2177 533.335 60.1996 533.253 60.2319 533.207L60.0807 533.101L51.4246 513.302C51.0423 512.348 51.1234 511.375 51.6718 510.593L61.3518 496.796C61.6423 496.382 62.1808 495.936 62.6766 495.872L72.5262 518.361L97.0251 519.97C97.1337 520.458 96.8978 521.116 96.6073 521.53Z" fill="white"/>
<path d="M97.0258 519.969L92.9453 523.214L70.1392 521.764L87.0469 497.664C87.5504 498.017 88.0403 498.498 88.1992 499.021L96.8554 518.82C96.978 519.181 96.9353 519.563 97.0258 519.969Z" fill="white"/>
<path d="M96.6075 521.529L86.9274 535.327C86.379 536.108 85.4918 536.516 84.4645 536.481L62.9017 535.079L62.7504 534.973C62.7181 535.019 62.6354 535.03 62.6354 535.03C62.1033 534.931 61.6361 534.741 61.233 534.458L72.5264 518.36L97.0253 519.969C97.1339 520.457 96.898 521.115 96.6075 521.529Z" fill="#EBEBEB"/>
<path d="M97.8205 549.58L56.2871 546.863L42.6708 566.272C41.7674 567.56 39.9496 567.794 38.5392 566.805L56.576 541.095L97.7102 543.738C99.3526 543.861 100.72 545.232 100.784 546.855C100.798 548.443 99.4951 549.657 97.8205 549.58Z" fill="white"/>
</g>
<g opacity="0.2">
<path d="M1156.45 401.466L1154.97 406.466L1135.47 418.376L1135.34 418.433L1117.5 407.983L1114.49 401.466C1114.79 401.185 1114.98 400.848 1115.29 400.623L1133.74 389.387C1134.17 389.05 1134.85 388.938 1135.47 388.938C1136.08 388.938 1136.76 389.05 1137.19 389.387L1155.65 400.623C1155.95 400.848 1156.14 401.185 1156.45 401.466Z" fill="#F2F2F2"/>
<path d="M1125.48 350.528L1124 355.528L1104.5 367.439L1104.38 367.495L1086.54 357.045L1083.52 350.528C1083.83 350.247 1084.01 349.91 1084.32 349.685L1102.78 338.449C1103.21 338.112 1103.88 338 1104.5 338C1105.12 338 1105.79 338.112 1106.22 338.449L1124.68 349.685C1124.99 349.91 1125.17 350.247 1125.48 350.528Z" fill="#F2F2F2"/>
<path d="M1094.51 401.466L1093.04 406.466L1073.53 418.376L1073.41 418.433L1055.57 407.983L1052.55 401.466C1052.86 401.185 1053.05 400.848 1053.35 400.623L1071.81 389.387C1072.24 389.05 1072.92 388.938 1073.53 388.938C1074.15 388.938 1074.83 389.05 1075.26 389.387L1093.71 400.623C1094.02 400.848 1094.21 401.185 1094.51 401.466Z" fill="#F2F2F2"/>
<path d="M1143.14 374.312L1107.58 395.942V419.651C1107.58 421.224 1106.22 422.46 1104.5 422.46C1102.78 422.46 1101.42 421.224 1101.42 419.651V395.942L1065.86 374.312C1064.45 373.413 1064.08 371.672 1065 370.38C1065.99 369.088 1067.89 368.751 1069.31 369.593L1104.5 391.055L1139.69 369.593C1141.11 368.75 1143.01 369.088 1144 370.38C1144.92 371.672 1144.55 373.413 1143.14 374.312Z" fill="white"/>
<path d="M1095.07 402.984V419.838C1095.07 420.793 1094.57 421.636 1093.71 422.198L1075.26 433.434H1075.07C1075.07 433.49 1075.01 433.547 1075.01 433.547C1074.52 433.771 1074.03 433.884 1073.53 433.884C1073.04 433.884 1072.55 433.771 1072.06 433.547C1072.06 433.547 1072 433.491 1072 433.434H1071.81L1053.35 422.198C1052.49 421.636 1052 420.793 1052 419.838V402.984C1052 402.478 1052.18 401.804 1052.55 401.467L1073.53 414.22L1094.51 401.467C1094.88 401.804 1095.07 402.478 1095.07 402.984Z" fill="white"/>
<path d="M1094.51 401.466L1093.04 406.466L1073.53 418.376V388.938C1074.15 388.938 1074.83 389.05 1075.26 389.387L1093.71 400.623C1094.02 400.848 1094.21 401.185 1094.51 401.466Z" fill="white"/>
<path d="M1095.07 402.984V419.838C1095.07 420.793 1094.57 421.636 1093.71 422.198L1075.26 433.434H1075.07C1075.07 433.49 1075.01 433.547 1075.01 433.547C1074.52 433.771 1074.03 433.884 1073.53 433.884V414.22L1094.51 401.467C1094.88 401.804 1095.07 402.478 1095.07 402.984Z" fill="#EBEBEB"/>
<path d="M1157 402.984V419.838C1157 420.793 1156.51 421.636 1155.65 422.198L1137.19 433.434H1137C1137 433.49 1136.94 433.546 1136.94 433.546C1136.45 433.771 1135.96 433.883 1135.47 433.883C1134.97 433.883 1134.48 433.771 1133.99 433.546C1133.99 433.546 1133.93 433.49 1133.93 433.434H1133.74L1115.29 422.198C1114.43 421.636 1113.93 420.793 1113.93 419.838V402.984C1113.93 402.478 1114.12 401.804 1114.49 401.467L1135.47 414.22L1156.45 401.467C1156.82 401.804 1157 402.478 1157 402.984Z" fill="white"/>
<path d="M1156.45 401.466L1154.97 406.466L1135.47 418.376V388.938C1136.08 388.938 1136.76 389.05 1137.19 389.387L1155.65 400.623C1155.95 400.848 1156.14 401.185 1156.45 401.466Z" fill="white"/>
<path d="M1157 402.984V419.838C1157 420.793 1156.51 421.636 1155.65 422.198L1137.19 433.434H1137C1137 433.49 1136.94 433.547 1136.94 433.547C1136.45 433.771 1135.96 433.884 1135.47 433.884V414.22L1156.45 401.467C1156.82 401.804 1157 402.478 1157 402.984Z" fill="#EBEBEB"/>
<path d="M1126.03 352.045V368.9C1126.03 369.855 1125.54 370.697 1124.68 371.259L1106.22 382.495H1106.04C1106.04 382.551 1105.98 382.608 1105.98 382.608C1105.48 382.832 1104.99 382.945 1104.5 382.945C1104.01 382.945 1103.52 382.832 1103.02 382.608C1103.02 382.608 1102.96 382.552 1102.96 382.495H1102.78L1084.32 371.259C1083.46 370.697 1082.97 369.855 1082.97 368.9V352.045C1082.97 351.54 1083.15 350.865 1083.52 350.528L1104.5 363.282L1125.48 350.528C1125.85 350.865 1126.03 351.54 1126.03 352.045Z" fill="white"/>
<path d="M1125.48 350.528L1124 355.529L1104.5 367.439V338C1105.12 338 1105.79 338.112 1106.22 338.449L1124.68 349.686C1124.99 349.911 1125.17 350.248 1125.48 350.528Z" fill="white"/>
<path d="M1126.03 352.045V368.9C1126.03 369.855 1125.54 370.697 1124.68 371.259L1106.22 382.495H1106.04C1106.04 382.551 1105.98 382.608 1105.98 382.608C1105.48 382.832 1104.99 382.945 1104.5 382.945V363.282L1125.48 350.528C1125.85 350.865 1126.03 351.54 1126.03 352.045Z" fill="#EBEBEB"/>
<path d="M1143.14 374.312L1107.58 395.942V419.651C1107.58 421.224 1106.22 422.46 1104.5 422.46V391.055L1139.69 369.593C1141.11 368.75 1143.01 369.088 1144 370.38C1144.92 371.672 1144.55 373.413 1143.14 374.312Z" fill="white"/>
<path d="M1156.45 490.044L1154.97 495.044L1135.47 506.955L1135.34 507.011L1117.5 496.561L1114.49 490.044C1114.79 489.763 1114.98 489.426 1115.29 489.201L1133.74 477.965C1134.17 477.628 1134.85 477.516 1135.47 477.516C1136.08 477.516 1136.76 477.628 1137.19 477.965L1155.65 489.201C1155.95 489.426 1156.14 489.763 1156.45 490.044Z" fill="#F2F2F2"/>
<path d="M1125.48 439.106L1124 444.106L1104.5 456.017L1104.38 456.073L1086.54 445.623L1083.52 439.106C1083.83 438.825 1084.01 438.488 1084.32 438.263L1102.78 427.026C1103.21 426.689 1103.88 426.577 1104.5 426.577C1105.12 426.577 1105.79 426.689 1106.22 427.026L1124.68 438.263C1124.99 438.488 1125.17 438.825 1125.48 439.106Z" fill="#F2F2F2"/>
<path d="M1094.51 490.044L1093.04 495.044L1073.53 506.955L1073.41 507.011L1055.57 496.561L1052.55 490.044C1052.86 489.763 1053.05 489.426 1053.35 489.201L1071.81 477.965C1072.24 477.628 1072.92 477.516 1073.53 477.516C1074.15 477.516 1074.83 477.628 1075.26 477.965L1093.71 489.201C1094.02 489.426 1094.21 489.763 1094.51 490.044Z" fill="#F2F2F2"/>
<path d="M1143.14 462.89L1107.58 484.52V508.229C1107.58 509.801 1106.22 511.038 1104.5 511.038C1102.78 511.038 1101.42 509.801 1101.42 508.229V484.52L1065.86 462.89C1064.45 461.991 1064.08 460.25 1065 458.958C1065.99 457.666 1067.89 457.329 1069.31 458.171L1104.5 479.632L1139.69 458.171C1141.11 457.329 1143.01 457.666 1144 458.958C1144.92 460.25 1144.55 461.991 1143.14 462.89Z" fill="white"/>
<path d="M1095.07 491.562V508.417C1095.07 509.371 1094.57 510.214 1093.71 510.776L1075.26 522.012H1075.07C1075.07 522.068 1075.01 522.125 1075.01 522.125C1074.52 522.349 1074.03 522.462 1073.53 522.462C1073.04 522.462 1072.55 522.349 1072.06 522.125C1072.06 522.125 1072 522.069 1072 522.012H1071.81L1053.35 510.776C1052.49 510.214 1052 509.371 1052 508.417V491.562C1052 491.056 1052.18 490.382 1052.55 490.045L1073.53 502.798L1094.51 490.045C1094.88 490.382 1095.07 491.056 1095.07 491.562Z" fill="white"/>
<path d="M1094.51 490.044L1093.04 495.044L1073.53 506.955V477.516C1074.15 477.516 1074.83 477.628 1075.26 477.965L1093.71 489.201C1094.02 489.426 1094.21 489.763 1094.51 490.044Z" fill="white"/>
<path d="M1095.07 491.562V508.417C1095.07 509.371 1094.57 510.214 1093.71 510.776L1075.26 522.012H1075.07C1075.07 522.068 1075.01 522.125 1075.01 522.125C1074.52 522.349 1074.03 522.462 1073.53 522.462V502.798L1094.51 490.045C1094.88 490.382 1095.07 491.056 1095.07 491.562Z" fill="#EBEBEB"/>
<path d="M1157 491.562V508.417C1157 509.371 1156.51 510.214 1155.65 510.776L1137.19 522.012H1137C1137 522.068 1136.94 522.125 1136.94 522.125C1136.45 522.349 1135.96 522.462 1135.47 522.462C1134.97 522.462 1134.48 522.349 1133.99 522.125C1133.99 522.125 1133.93 522.069 1133.93 522.012H1133.74L1115.29 510.776C1114.43 510.214 1113.93 509.371 1113.93 508.417V491.562C1113.93 491.056 1114.12 490.382 1114.49 490.045L1135.47 502.798L1156.45 490.045C1156.82 490.382 1157 491.056 1157 491.562Z" fill="white"/>
<path d="M1156.45 490.044L1154.97 495.044L1135.47 506.955V477.516C1136.08 477.516 1136.76 477.628 1137.19 477.965L1155.65 489.201C1155.95 489.426 1156.14 489.763 1156.45 490.044Z" fill="white"/>
<path d="M1157 491.562V508.417C1157 509.371 1156.51 510.214 1155.65 510.776L1137.19 522.012H1137C1137 522.068 1136.94 522.125 1136.94 522.125C1136.45 522.349 1135.96 522.462 1135.47 522.462V502.798L1156.45 490.045C1156.82 490.382 1157 491.056 1157 491.562Z" fill="#EBEBEB"/>
<path d="M1126.03 440.623V457.477C1126.03 458.432 1125.54 459.275 1124.68 459.837L1106.22 471.073H1106.04C1106.04 471.129 1105.98 471.186 1105.98 471.186C1105.48 471.41 1104.99 471.523 1104.5 471.523C1104.01 471.523 1103.52 471.41 1103.02 471.186C1103.02 471.186 1102.96 471.13 1102.96 471.073H1102.78L1084.32 459.837C1083.46 459.275 1082.97 458.432 1082.97 457.477V440.623C1082.97 440.117 1083.15 439.443 1083.52 439.105L1104.5 451.859L1125.48 439.105C1125.85 439.443 1126.03 440.117 1126.03 440.623Z" fill="white"/>
<path d="M1125.48 439.106L1124 444.106L1104.5 456.017V426.577C1105.12 426.577 1105.79 426.689 1106.22 427.026L1124.68 438.263C1124.99 438.488 1125.17 438.825 1125.48 439.106Z" fill="white"/>
<path d="M1126.03 440.623V457.477C1126.03 458.432 1125.54 459.275 1124.68 459.837L1106.22 471.073H1106.04C1106.04 471.129 1105.98 471.186 1105.98 471.186C1105.48 471.41 1104.99 471.523 1104.5 471.523V451.859L1125.48 439.105C1125.85 439.443 1126.03 440.117 1126.03 440.623Z" fill="#EBEBEB"/>
<path d="M1143.14 462.89L1107.58 484.52V508.229C1107.58 509.801 1106.22 511.038 1104.5 511.038V479.632L1139.69 458.171C1141.11 457.329 1143.01 457.666 1144 458.958C1144.92 460.25 1144.55 461.991 1143.14 462.89Z" fill="white"/>
</g>
<g opacity="0.2">
<path d="M696.271 312.525L691.868 315.318L669.346 311.448L669.216 311.409L662.662 291.799L664.681 284.909C665.098 284.9 665.459 284.767 665.838 284.8L687.129 288.489C687.675 288.519 688.259 288.88 688.722 289.285C689.185 289.689 689.621 290.22 689.723 290.757L696.223 311.364C696.307 311.736 696.224 312.111 696.271 312.525Z" fill="#F2F2F2"/>
<path d="M706.483 253.794L702.08 256.587L679.558 252.718L679.428 252.679L672.874 233.069L674.894 226.178C675.31 226.169 675.671 226.037 676.05 226.07L697.341 229.758C697.888 229.788 698.471 230.15 698.934 230.554C699.397 230.959 699.833 231.489 699.936 232.027L706.436 252.634C706.519 253.006 706.436 253.381 706.483 253.794Z" fill="#F2F2F2"/>
<path d="M649.643 271.761L645.24 274.554L622.718 270.685L622.589 270.646L616.034 251.036L618.054 244.145C618.47 244.136 618.831 244.004 619.211 244.037L640.502 247.725C641.048 247.755 641.631 248.116 642.094 248.521C642.557 248.926 642.993 249.456 643.096 249.993L649.596 270.6C649.679 270.973 649.596 271.348 649.643 271.761Z" fill="#F2F2F2"/>
<path d="M704.122 283.322L663.114 276.201L647.509 294.051C646.474 295.235 644.641 295.275 643.344 294.141C642.047 293.007 641.842 291.186 642.877 290.001L658.482 272.152L645.946 232.462C645.472 230.854 646.341 229.3 647.886 228.935C649.477 228.61 651.135 229.611 651.646 231.177L664.015 270.497L704.634 277.501C706.254 277.798 707.468 279.307 707.359 280.928C707.203 282.508 705.779 283.576 704.122 283.322Z" fill="white"/>
<path d="M649.061 273.269L637.968 285.958C637.34 286.677 636.414 286.987 635.396 286.844L614.105 283.155L613.966 283.033C613.929 283.076 613.846 283.078 613.846 283.078C613.327 282.922 612.883 282.684 612.512 282.359C612.141 282.035 611.845 281.627 611.622 281.134C611.622 281.134 611.613 281.051 611.65 281.009L611.511 280.887L605.011 260.28C604.732 259.29 604.916 258.331 605.545 257.613L616.638 244.923C616.971 244.543 617.554 244.157 618.054 244.146L625.454 267.556L649.643 271.762C649.699 272.259 649.394 272.888 649.061 273.269Z" fill="white"/>
<path d="M649.643 271.762L645.24 274.554L622.718 270.685L642.094 248.521C642.557 248.926 642.993 249.456 643.096 249.994L649.596 270.601C649.679 270.973 649.596 271.348 649.643 271.762Z" fill="white"/>
<path d="M649.061 273.269L637.968 285.958C637.339 286.677 636.414 286.987 635.396 286.844L614.105 283.155L613.966 283.033C613.929 283.076 613.845 283.078 613.845 283.078C613.327 282.923 612.883 282.684 612.512 282.36L625.454 267.556L649.643 271.762C649.699 272.259 649.394 272.888 649.061 273.269Z" fill="#EBEBEB"/>
<path d="M695.689 314.032L684.596 326.721C683.967 327.44 683.042 327.751 682.024 327.607L660.733 323.918L660.594 323.797C660.557 323.839 660.473 323.841 660.473 323.841C659.955 323.686 659.511 323.447 659.14 323.123C658.769 322.799 658.473 322.39 658.25 321.897C658.25 321.897 658.241 321.814 658.278 321.772L658.139 321.65L651.639 301.043C651.36 300.054 651.544 299.095 652.173 298.376L663.266 285.687C663.599 285.306 664.181 284.92 664.681 284.909L672.082 308.319L696.27 312.526C696.326 313.022 696.022 313.652 695.689 314.032Z" fill="white"/>
<path d="M696.27 312.525L691.868 315.318L669.346 311.449L688.722 289.285C689.185 289.69 689.621 290.22 689.723 290.757L696.223 311.365C696.307 311.736 696.224 312.112 696.27 312.525Z" fill="white"/>
<path d="M695.689 314.033L684.595 326.722C683.967 327.441 683.041 327.751 682.024 327.607L660.732 323.919L660.593 323.797C660.556 323.839 660.473 323.841 660.473 323.841C659.954 323.686 659.51 323.447 659.139 323.123L672.082 308.319L696.27 312.526C696.326 313.023 696.022 313.652 695.689 314.033Z" fill="#EBEBEB"/>
<path d="M705.901 255.301L694.808 267.99C694.18 268.709 693.254 269.019 692.236 268.875L670.945 265.187L670.806 265.065C670.769 265.107 670.686 265.109 670.686 265.109C670.167 264.954 669.723 264.715 669.352 264.391C668.982 264.067 668.685 263.659 668.462 263.166C668.462 263.166 668.453 263.083 668.49 263.04L668.351 262.919L661.851 242.312C661.572 241.322 661.756 240.363 662.385 239.645L673.478 226.956C673.811 226.575 674.394 226.189 674.894 226.178L682.294 249.588L706.483 253.794C706.539 254.291 706.234 254.92 705.901 255.301Z" fill="white"/>
<path d="M706.483 253.795L702.08 256.588L679.558 252.719L698.934 230.555C699.397 230.959 699.833 231.49 699.935 232.027L706.435 252.634C706.519 253.006 706.436 253.381 706.483 253.795Z" fill="white"/>
<path d="M705.901 255.301L694.808 267.99C694.179 268.709 693.254 269.019 692.236 268.876L670.945 265.187L670.806 265.065C670.769 265.108 670.686 265.11 670.686 265.11C670.167 264.955 669.723 264.716 669.352 264.391L682.294 249.588L706.483 253.794C706.539 254.291 706.234 254.92 705.901 255.301Z" fill="#EBEBEB"/>
<path d="M704.123 283.322L663.114 276.201L647.509 294.051C646.474 295.235 644.642 295.275 643.344 294.141L664.015 270.497L704.635 277.501C706.255 277.798 707.469 279.307 707.359 280.928C707.204 282.508 705.78 283.577 704.123 283.322Z" fill="white"/>
<path d="M637.971 379.213L633.568 382.005L611.046 378.136L610.916 378.097L604.362 358.487L606.381 351.596C606.798 351.587 607.159 351.455 607.538 351.488L628.829 355.176C629.375 355.206 629.959 355.567 630.422 355.972C630.885 356.377 631.321 356.907 631.423 357.444L637.923 378.052C638.007 378.424 637.924 378.799 637.971 379.213Z" fill="#F2F2F2"/>
<path d="M648.183 320.481L643.781 323.274L621.258 319.405L621.129 319.366L614.574 299.756L616.594 292.865C617.011 292.856 617.371 292.723 617.751 292.756L639.042 296.445C639.588 296.475 640.172 296.836 640.635 297.241C641.098 297.646 641.534 298.176 641.636 298.713L648.136 319.321C648.22 319.692 648.137 320.068 648.183 320.481Z" fill="#F2F2F2"/>
<path d="M591.343 338.449L586.94 341.242L564.418 337.372L564.288 337.334L557.734 317.723L559.754 310.833C560.17 310.824 560.531 310.691 560.911 310.724L582.202 314.413C582.748 314.442 583.331 314.804 583.794 315.208C584.258 315.613 584.694 316.143 584.796 316.681L591.296 337.288C591.38 337.66 591.296 338.035 591.343 338.449Z" fill="#F2F2F2"/>
<path d="M645.823 350.01L604.814 342.888L589.21 360.738C588.174 361.922 586.342 361.962 585.045 360.828C583.748 359.694 583.543 357.872 584.578 356.688L600.182 338.839L587.646 299.15C587.173 297.541 588.041 295.987 589.586 295.622C591.177 295.297 592.835 296.299 593.346 297.864L605.715 337.184L646.335 344.189C647.955 344.486 649.169 345.995 649.059 347.615C648.904 349.196 647.479 350.264 645.823 350.01Z" fill="white"/>
<path d="M590.761 339.956L579.668 352.645C579.039 353.364 578.114 353.675 577.096 353.531L555.805 349.842L555.666 349.721C555.629 349.763 555.545 349.765 555.545 349.765C555.027 349.61 554.583 349.371 554.212 349.047C553.841 348.723 553.545 348.314 553.322 347.821C553.322 347.821 553.313 347.739 553.35 347.696L553.211 347.574L546.711 326.967C546.432 325.978 546.616 325.019 547.245 324.3L558.338 311.611C558.671 311.23 559.254 310.844 559.753 310.833L567.154 334.243L591.342 338.45C591.399 338.946 591.094 339.575 590.761 339.956Z" fill="white"/>
<path d="M591.343 338.449L586.94 341.242L564.418 337.372L583.794 315.209C584.257 315.614 584.693 316.144 584.796 316.681L591.296 337.289C591.38 337.66 591.296 338.035 591.343 338.449Z" fill="white"/>
<path d="M590.761 339.956L579.668 352.646C579.04 353.364 578.114 353.675 577.096 353.531L555.805 349.843L555.666 349.721C555.629 349.763 555.546 349.765 555.546 349.765C555.027 349.61 554.583 349.371 554.212 349.047L567.154 334.243L591.343 338.45C591.399 338.946 591.094 339.576 590.761 339.956Z" fill="#EBEBEB"/>
<path d="M637.389 380.72L626.296 393.409C625.667 394.128 624.742 394.438 623.724 394.295L602.433 390.606L602.294 390.484C602.257 390.527 602.173 390.529 602.173 390.529C601.655 390.374 601.21 390.135 600.84 389.811C600.469 389.487 600.173 389.078 599.95 388.585C599.95 388.585 599.941 388.502 599.978 388.46L599.839 388.338L593.339 367.731C593.06 366.741 593.244 365.783 593.873 365.064L604.966 352.375C605.299 351.994 605.882 351.608 606.381 351.597L613.782 375.007L637.97 379.213C638.026 379.71 637.722 380.339 637.389 380.72Z" fill="white"/>
<path d="M637.971 379.213L633.568 382.005L611.046 378.136L630.422 355.973C630.885 356.377 631.321 356.908 631.423 357.445L637.923 378.052C638.007 378.424 637.924 378.799 637.971 379.213Z" fill="white"/>
<path d="M637.389 380.719L626.296 393.408C625.667 394.127 624.742 394.438 623.724 394.294L602.433 390.605L602.294 390.484C602.257 390.526 602.173 390.528 602.173 390.528C601.655 390.373 601.21 390.134 600.84 389.81L613.782 375.006L637.97 379.212C638.026 379.709 637.722 380.338 637.389 380.719Z" fill="#EBEBEB"/>
<path d="M647.602 321.989L636.508 334.678C635.88 335.397 634.954 335.707 633.937 335.563L612.645 331.875L612.506 331.753C612.469 331.796 612.386 331.798 612.386 331.798C611.867 331.643 611.423 331.404 611.052 331.08C610.682 330.755 610.385 330.347 610.163 329.854C610.163 329.854 610.153 329.771 610.19 329.729L610.051 329.607L603.551 309C603.273 308.01 603.457 307.051 604.085 306.332L615.179 293.643C615.512 293.262 616.094 292.876 616.594 292.866L623.995 316.275L648.183 320.482C648.239 320.979 647.935 321.608 647.602 321.989Z" fill="white"/>
<path d="M648.183 320.481L643.781 323.274L621.258 319.405L640.635 297.241C641.098 297.646 641.534 298.176 641.636 298.713L648.136 319.321C648.22 319.693 648.137 320.068 648.183 320.481Z" fill="white"/>
<path d="M647.602 321.989L636.508 334.678C635.88 335.397 634.954 335.707 633.936 335.564L612.645 331.875L612.506 331.754C612.469 331.796 612.386 331.798 612.386 331.798C611.867 331.643 611.423 331.404 611.052 331.08L623.995 316.276L648.183 320.482C648.239 320.979 647.935 321.608 647.602 321.989Z" fill="#EBEBEB"/>
<path d="M645.822 350.01L604.814 342.888L589.21 360.738C588.174 361.922 586.342 361.962 585.045 360.828L605.715 337.184L646.335 344.189C647.955 344.486 649.169 345.995 649.059 347.615C648.904 349.196 647.479 350.264 645.822 350.01Z" fill="white"/>
</g>
<g opacity="0.2">
<path d="M1202.32 69.5051L1197.76 72.0318L1175.5 66.835L1175.38 66.7885L1169.99 46.8246L1172.42 40.0656C1172.84 40.0813 1173.2 39.9705 1173.58 40.0259L1194.61 44.9696C1195.16 45.0316 1195.72 45.4268 1196.16 45.8583C1196.6 46.2898 1197 46.8449 1197.07 47.3872L1202.34 68.3434C1202.4 68.7198 1202.29 69.0893 1202.32 69.5051Z" fill="#F2F2F2"/>
<path d="M1215.99 11.4825L1211.43 14.0093L1189.18 8.81252L1189.05 8.76607L1183.67 -11.1979L1186.09 -17.9569C1186.51 -17.9412 1186.88 -18.052 1187.25 -17.9966L1208.29 -13.053C1208.83 -12.9907 1209.39 -12.5955 1209.83 -12.164C1210.27 -11.7325 1210.67 -11.1774 1210.74 -10.6351L1216.01 10.3212C1216.07 10.6973 1215.97 11.0668 1215.99 11.4825Z" fill="#F2F2F2"/>
<path d="M1158.19 26.05L1153.63 28.5768L1131.37 23.3799L1131.24 23.3335L1125.86 3.3695L1128.29 -3.38943C1128.7 -3.37375 1129.07 -3.48458 1129.45 -3.42915L1150.48 1.51454C1151.03 1.57652 1151.59 1.97171 1152.03 2.40323C1152.47 2.83475 1152.87 3.3898 1152.94 3.93215L1158.21 24.8884C1158.27 25.2647 1158.16 25.6343 1158.19 26.05Z" fill="#F2F2F2"/>
<path d="M1211.88 40.8182L1171.37 31.28L1154.73 48.1737C1153.63 49.2945 1151.8 49.2258 1150.57 48.017C1149.34 46.8082 1149.25 44.9778 1150.35 43.8571L1166.99 26.9634L1156.82 -13.3993C1156.45 -15.0326 1157.4 -16.5326 1158.97 -16.8057C1160.58 -17.0358 1162.17 -15.9378 1162.59 -14.3445L1172.61 25.6389L1212.74 35.0378C1214.34 35.4304 1215.46 37.0087 1215.26 38.6199C1215.01 40.1883 1213.52 41.1703 1211.88 40.8182Z" fill="white"/>
<path d="M1157.52 27.5202L1145.69 39.5298C1145.02 40.2102 1144.08 40.4653 1143.07 40.2615L1122.03 35.3179L1121.9 35.1882C1121.86 35.2283 1121.78 35.2253 1121.78 35.2253C1121.27 35.0398 1120.84 34.7749 1120.49 34.4295C1120.14 34.084 1119.87 33.6588 1119.68 33.1533C1119.68 33.1533 1119.67 33.0701 1119.71 33.0299L1119.58 32.9003L1114.31 11.9439C1114.09 10.9397 1114.33 9.99362 1115 9.31321L1126.83 -2.69635C1127.18 -3.05677 1127.79 -3.40751 1128.29 -3.3887L1134.29 20.4183L1158.19 26.0506C1158.21 26.5498 1157.87 27.1598 1157.52 27.5202Z" fill="white"/>
<path d="M1158.19 26.0498L1153.62 28.5767L1131.37 23.3799L1152.03 2.40332C1152.47 2.83484 1152.87 3.38989 1152.94 3.93224L1158.21 24.8885C1158.27 25.2646 1158.16 25.6341 1158.19 26.0498Z" fill="white"/>
<path d="M1157.52 27.5203L1145.69 39.5299C1145.02 40.2103 1144.08 40.4654 1143.07 40.2616L1122.03 35.318L1121.9 35.1884C1121.86 35.2284 1121.78 35.2254 1121.78 35.2254C1121.27 35.0399 1120.84 34.7751 1120.49 34.4296L1134.29 20.4184L1158.18 26.0507C1158.21 26.5499 1157.87 27.1599 1157.52 27.5203Z" fill="#EBEBEB"/>
<path d="M1201.65 70.9753L1189.82 82.9847C1189.15 83.6651 1188.21 83.9202 1187.2 83.7163L1166.17 78.7726L1166.03 78.643C1165.99 78.683 1165.91 78.68 1165.91 78.68C1165.4 78.4945 1164.97 78.2297 1164.62 77.8842C1164.27 77.5387 1164 77.1135 1163.81 76.608C1163.81 76.608 1163.8 76.5248 1163.84 76.4847L1163.71 76.355L1158.44 55.3988C1158.22 54.3946 1158.46 53.4485 1159.13 52.7681L1170.96 40.7587C1171.31 40.3983 1171.92 40.0476 1172.42 40.0664L1178.42 63.8733L1202.32 69.5057C1202.34 70.0049 1202 70.6149 1201.65 70.9753Z" fill="white"/>
<path d="M1202.32 69.5049L1197.76 72.0317L1175.5 66.835L1196.16 45.8584C1196.6 46.2899 1197 46.845 1197.07 47.3873L1202.34 68.3436C1202.4 68.7197 1202.29 69.0892 1202.32 69.5049Z" fill="white"/>
<path d="M1201.65 70.9744L1189.82 82.984C1189.15 83.6644 1188.21 83.9195 1187.2 83.7157L1166.17 78.7721L1166.03 78.6425C1165.99 78.6825 1165.91 78.6795 1165.91 78.6795C1165.4 78.494 1164.97 78.2292 1164.62 77.8837L1178.42 63.8725L1202.32 69.5048C1202.34 70.004 1202 70.614 1201.65 70.9744Z" fill="#EBEBEB"/>
<path d="M1215.32 12.9519L1203.5 24.9612C1202.83 25.6416 1201.88 25.8968 1200.88 25.6929L1179.84 20.7492L1179.71 20.6195C1179.67 20.6596 1179.59 20.6566 1179.59 20.6566C1179.08 20.4711 1178.65 20.2062 1178.3 19.8608C1177.95 19.5153 1177.67 19.09 1177.48 18.5846C1177.48 18.5846 1177.48 18.5014 1177.52 18.4612L1177.39 18.3316L1172.12 -2.62464C1171.9 -3.62887 1172.14 -4.57495 1172.81 -5.25534L1184.63 -17.2647C1184.99 -17.6251 1185.59 -17.9759 1186.09 -17.9571L1192.09 5.84982L1215.99 11.4822C1216.02 11.9814 1215.68 12.5914 1215.32 12.9519Z" fill="white"/>
<path d="M1215.99 11.4826L1211.43 14.0095L1189.18 8.81284L1209.83 -12.1641C1210.27 -11.7325 1210.67 -11.1775 1210.74 -10.6351L1216.01 10.3213C1216.07 10.6973 1215.97 11.0669 1215.99 11.4826Z" fill="white"/>
<path d="M1215.32 12.952L1203.49 24.9613C1202.82 25.6417 1201.88 25.8969 1200.87 25.693L1179.84 20.7493L1179.71 20.6197C1179.67 20.6597 1179.59 20.6567 1179.59 20.6567C1179.08 20.4712 1178.65 20.2063 1178.3 19.8609L1192.09 5.84993L1215.99 11.4823C1216.02 11.9815 1215.67 12.5915 1215.32 12.952Z" fill="#EBEBEB"/>
<path d="M1211.88 40.8185L1171.37 31.2803L1154.73 48.174C1153.63 49.2947 1151.8 49.2261 1150.57 48.0172L1172.61 25.6391L1212.74 35.038C1214.34 35.4306 1215.46 37.009 1215.26 38.6201C1215.01 40.1885 1213.52 41.1705 1211.88 40.8185Z" fill="white"/>
<path d="M1140.17 132.62L1135.61 135.147L1113.35 129.951L1113.23 129.904L1107.85 109.94L1110.27 103.181C1110.69 103.197 1111.05 103.086 1111.43 103.141L1132.47 108.085C1133.01 108.147 1133.57 108.542 1134.01 108.974C1134.45 109.405 1134.85 109.96 1134.92 110.502L1140.19 131.459C1140.25 131.835 1140.15 132.205 1140.17 132.62Z" fill="#F2F2F2"/>
<path d="M1153.84 74.5981L1149.28 77.125L1127.03 71.9284L1126.9 71.882L1121.52 51.9177L1123.94 45.1586C1124.36 45.1743 1124.73 45.0635 1125.11 45.1189L1146.14 50.0623C1146.68 50.1245 1147.25 50.5197 1147.68 50.9512C1148.12 51.3827 1148.53 51.9378 1148.6 52.4802L1153.86 73.4367C1153.92 73.8128 1153.82 74.1823 1153.84 74.5981Z" fill="#F2F2F2"/>
<path d="M1096.04 89.1663L1091.48 91.6932L1069.22 86.4965L1069.1 86.45L1063.71 66.4859L1066.14 59.7269C1066.56 59.7426 1066.92 59.6318 1067.3 59.6872L1088.34 64.6308C1088.88 64.6927 1089.44 65.0879 1089.88 65.5194C1090.32 65.951 1090.72 66.506 1090.79 67.0484L1096.06 88.0047C1096.12 88.3811 1096.01 88.7506 1096.04 89.1663Z" fill="#F2F2F2"/>
<path d="M1149.74 103.934L1109.22 94.3959L1092.59 111.289C1091.48 112.41 1089.65 112.341 1088.42 111.133C1087.2 109.924 1087.1 108.093 1088.2 106.973L1104.84 90.0792L1094.67 49.7168C1094.3 48.0835 1095.26 46.5836 1096.82 46.3105C1098.43 46.0804 1100.02 47.1784 1100.44 48.7717L1110.46 88.7548L1150.59 98.154C1152.19 98.5466 1153.31 100.125 1153.11 101.736C1152.86 103.304 1151.37 104.286 1149.74 103.934Z" fill="white"/>
<path d="M1095.37 90.6364L1083.54 102.646C1082.87 103.326 1081.93 103.582 1080.92 103.378L1059.89 98.4341L1059.75 98.3045C1059.72 98.3445 1059.63 98.3415 1059.63 98.3415C1059.12 98.156 1058.69 97.8912 1058.34 97.5457C1057.99 97.2002 1057.72 96.775 1057.53 96.2695C1057.53 96.2695 1057.52 96.1863 1057.56 96.1461L1057.43 96.0165L1052.16 75.0602C1051.94 74.0559 1052.18 73.1098 1052.85 72.4294L1064.68 60.4199C1065.04 60.0594 1065.64 59.7087 1066.14 59.7275L1072.14 83.5345L1096.04 89.1668C1096.06 89.666 1095.72 90.276 1095.37 90.6364Z" fill="white"/>
<path d="M1096.04 89.1661L1091.48 91.6929L1069.22 86.4961L1089.88 65.5195C1090.32 65.9511 1090.72 66.5061 1090.79 67.0485L1096.06 88.0047C1096.12 88.3808 1096.01 88.7503 1096.04 89.1661Z" fill="white"/>
<path d="M1095.37 90.6356L1083.54 102.645C1082.87 103.326 1081.93 103.581 1080.92 103.377L1059.89 98.4332L1059.75 98.3036C1059.72 98.3436 1059.63 98.3406 1059.63 98.3406C1059.12 98.1551 1058.69 97.8903 1058.34 97.5448L1072.14 83.5337L1096.04 89.1659C1096.06 89.6651 1095.72 90.2752 1095.37 90.6356Z" fill="#EBEBEB"/>
<path d="M1139.5 134.091L1127.67 146.1C1127 146.781 1126.06 147.036 1125.05 146.832L1104.02 141.888L1103.89 141.759C1103.85 141.799 1103.76 141.796 1103.76 141.796C1103.25 141.61 1102.82 141.345 1102.47 141C1102.12 140.654 1101.85 140.229 1101.66 139.724C1101.66 139.724 1101.65 139.64 1101.69 139.6L1101.56 139.471L1096.29 118.514C1096.07 117.51 1096.32 116.564 1096.98 115.884L1108.81 103.874C1109.17 103.514 1109.77 103.163 1110.27 103.182L1116.27 126.989L1140.17 132.621C1140.19 133.12 1139.85 133.73 1139.5 134.091Z" fill="white"/>
<path d="M1140.17 132.62L1135.61 135.147L1113.35 129.95L1134.01 108.974C1134.45 109.405 1134.85 109.96 1134.92 110.503L1140.19 131.459C1140.25 131.835 1140.15 132.204 1140.17 132.62Z" fill="white"/>
<path d="M1139.5 134.091L1127.67 146.1C1127 146.781 1126.06 147.036 1125.05 146.832L1104.02 141.888L1103.89 141.759C1103.85 141.799 1103.76 141.796 1103.76 141.796C1103.25 141.61 1102.82 141.345 1102.47 141L1116.27 126.989L1140.17 132.621C1140.19 133.12 1139.85 133.73 1139.5 134.091Z" fill="#EBEBEB"/>
<path d="M1153.17 76.0681L1141.35 88.0778C1140.68 88.7583 1139.73 89.0134 1138.73 88.8096L1117.69 83.8661L1117.56 83.7364C1117.52 83.7765 1117.44 83.7735 1117.44 83.7735C1116.93 83.588 1116.5 83.3231 1116.15 82.9777C1115.8 82.6322 1115.53 82.207 1115.33 81.7015C1115.33 81.7015 1115.33 81.6183 1115.37 81.5781L1115.24 81.4485L1109.97 60.492C1109.75 59.4878 1109.99 58.5417 1110.66 57.8613L1122.49 45.8515C1122.84 45.4911 1123.44 45.1403 1123.94 45.1592L1129.94 68.9663L1153.84 74.5984C1153.87 75.0976 1153.53 75.7077 1153.17 76.0681Z" fill="white"/>
<path d="M1153.84 74.5979L1149.28 77.1247L1127.03 71.9281L1147.68 50.9512C1148.12 51.3827 1148.53 51.9377 1148.6 52.4801L1153.86 73.4365C1153.92 73.8126 1153.82 74.1821 1153.84 74.5979Z" fill="white"/>
<path d="M1153.17 76.0672L1141.35 88.077C1140.68 88.7574 1139.73 89.0125 1138.73 88.8087L1117.69 83.8652L1117.56 83.7356C1117.52 83.7756 1117.44 83.7726 1117.44 83.7726C1116.93 83.5871 1116.5 83.3223 1116.15 82.9768L1129.94 68.9654L1153.84 74.5976C1153.87 75.0968 1153.53 75.7068 1153.17 76.0672Z" fill="#EBEBEB"/>
<path d="M1149.74 103.934L1109.22 94.3952L1092.59 111.289C1091.48 112.409 1089.65 112.341 1088.42 111.132L1110.46 88.7541L1150.59 98.1532C1152.19 98.5459 1153.31 100.124 1153.11 101.735C1152.86 103.304 1151.37 104.286 1149.74 103.934Z" fill="white"/>
</g>
</g>
<defs>
<clipPath id="clip0">
<rect width="1279" height="620" fill="white"/>
</clipPath>
</defs>
</svg>
