<svg width="56" height="56" viewBox="0 0 56 56" fill="none" xmlns="http://www.w3.org/2000/svg">
<g clip-path="url(#clip0)">
<path d="M28.3151 12.6362C28.926 12.6362 29.4212 12.141 29.4212 11.5301C29.4212 10.9192 28.926 10.424 28.3151 10.424C27.7042 10.424 27.209 10.9192 27.209 11.5301C27.209 12.141 27.7042 12.6362 28.3151 12.6362Z" fill="white"/>
<path d="M22.4557 32.5466C22.4557 28.8872 19.4786 25.91 15.8192 25.91C12.1598 25.91 9.18262 28.8872 9.18262 32.5466V33.6527C9.18262 34.2635 9.67792 34.7588 10.2887 34.7588H21.3496C21.9604 34.7588 22.4557 34.2635 22.4557 33.6527V32.5466ZM11.3948 32.5466C11.3948 30.107 13.3796 28.1222 15.8192 28.1222C18.2588 28.1222 20.2435 30.107 20.2435 32.5466H11.3948Z" fill="white"/>
<path d="M20.2423 21.4864C20.2423 19.0468 18.2575 17.062 15.8179 17.062C13.3783 17.062 11.3936 19.0468 11.3936 21.4864C11.3936 23.926 13.3783 25.9107 15.8179 25.9107C18.2575 25.9107 20.2423 23.926 20.2423 21.4864ZM15.8179 23.6986C14.5981 23.6986 13.6057 22.7062 13.6057 21.4864C13.6057 20.2666 14.5981 19.2742 15.8179 19.2742C17.0377 19.2742 18.0301 20.2666 18.0301 21.4864C18.0301 22.7062 17.0377 23.6986 15.8179 23.6986Z" fill="white"/>
<path d="M40.8162 25.91C37.1568 25.91 34.1797 28.8872 34.1797 32.5466V33.6527C34.1797 34.2635 34.675 34.7588 35.2858 34.7588H46.3467C46.9575 34.7588 47.4528 34.2635 47.4528 33.6527V32.5466C47.4528 28.8872 44.4756 25.91 40.8162 25.91ZM36.3919 32.5466C36.3919 30.107 38.3766 28.1222 40.8162 28.1222C43.2558 28.1222 45.2406 30.107 45.2406 32.5466H36.3919Z" fill="white"/>
<path d="M45.2384 21.4864C45.2384 19.0468 43.2536 17.062 40.814 17.062C38.3744 17.062 36.3896 19.0468 36.3896 21.4864C36.3896 23.926 38.3744 25.9107 40.814 25.9107C43.2536 25.9107 45.2384 23.926 45.2384 21.4864ZM40.814 23.6986C39.5942 23.6986 38.6018 22.7062 38.6018 21.4864C38.6018 20.2666 39.5942 19.2742 40.814 19.2742C42.0338 19.2742 43.0262 20.2666 43.0262 21.4864C43.0262 22.7062 42.0338 23.6986 40.814 23.6986Z" fill="white"/>
<path d="M28.3151 48.0316C28.926 48.0316 29.4212 47.5364 29.4212 46.9255C29.4212 46.3146 28.926 45.8194 28.3151 45.8194C27.7042 45.8194 27.209 46.3146 27.209 46.9255C27.209 47.5364 27.7042 48.0316 28.3151 48.0316Z" fill="white"/>
<path d="M55.5258 39.1077H53.3886V13.7426C53.3886 11.8715 51.8664 10.3494 49.9953 10.3494H33.796C33.2522 7.82373 31.0019 5.925 28.3159 5.925C25.63 5.925 23.3797 7.82373 22.8358 10.3494H6.63655C4.76543 10.3494 3.24327 11.8715 3.24327 13.7426V39.1077H1.10609C0.453886 39.1077 -0.075 39.6366 -0.075 40.2888C-0.075 44.5995 3.43193 48.1065 7.74264 48.1065H23.3385C23.9907 48.1065 24.5196 47.5776 24.5196 46.9254C24.5196 46.2732 23.9907 45.7443 23.3385 45.7443H7.74264C5.14014 45.7443 2.95704 43.9121 2.41597 41.4699H20.1665V42.501C20.1665 43.1532 20.6953 43.6821 21.3476 43.6821H35.2843C35.9365 43.6821 36.4654 43.1532 36.4654 42.501V41.4688H54.2159C53.6748 43.9121 51.4917 45.7443 48.8892 45.7443H33.2933C32.6411 45.7443 32.1122 46.2732 32.1122 46.9254C32.1122 47.5776 32.6411 48.1065 33.2933 48.1065H48.8892C53.1999 48.1065 56.7069 44.5995 56.7069 40.2888C56.7069 39.6366 56.178 39.1077 55.5258 39.1077ZM28.3159 8.28718C30.1042 8.28718 31.5592 9.74218 31.5592 11.5305C31.5592 13.3187 30.1042 14.7737 28.3159 14.7737C26.5277 14.7737 25.0727 13.3187 25.0727 11.5305C25.0727 9.74218 26.5277 8.28718 28.3159 8.28718ZM21.3476 39.1077H5.60545V13.7426C5.60545 13.1742 6.06807 12.7115 6.63655 12.7115H22.8358C23.2976 14.8564 24.99 16.5487 27.1348 17.0105V41.3199H22.5286V40.2888C22.5286 39.6366 21.9998 39.1077 21.3476 39.1077ZM35.2843 39.1077C34.6321 39.1077 34.1032 39.6366 34.1032 40.2888V41.3199H29.497V17.0105C31.6419 16.5487 33.3342 14.8564 33.796 12.7115H49.9953C50.5638 12.7115 51.0264 13.1742 51.0264 13.7426V39.1077H35.2843Z" fill="white" stroke="white" stroke-width="0.15"/>
</g>
<defs>
<clipPath id="clip0">
<rect width="56" height="56" fill="white"/>
</clipPath>
</defs>
</svg>
