<svg width="56" height="56" viewBox="0 0 56 56" fill="none" xmlns="http://www.w3.org/2000/svg">
<path d="M21.0003 2.33331V6.99998H35.0003V2.33331H39.667V6.99998H49.0003C49.6192 6.99998 50.2127 7.24581 50.6502 7.6834C51.0878 8.12098 51.3337 8.71447 51.3337 9.33331V46.6666C51.3337 47.2855 51.0878 47.879 50.6502 48.3166C50.2127 48.7542 49.6192 49 49.0003 49H7.00033C6.38149 49 5.78799 48.7542 5.35041 48.3166C4.91282 47.879 4.66699 47.2855 4.66699 46.6666V9.33331C4.66699 8.71447 4.91282 8.12098 5.35041 7.6834C5.78799 7.24581 6.38149 6.99998 7.00033 6.99998H16.3337V2.33331H21.0003ZM46.667 23.3333H9.33366V44.3333H46.667V23.3333ZM35.0843 25.984L38.3837 29.2833L26.8337 40.8333L18.583 32.5826L21.887 29.2833L26.836 34.2346L35.0867 25.984H35.0843ZM16.3337 11.6666H9.33366V18.6666H46.667V11.6666H39.667V14H35.0003V11.6666H21.0003V14H16.3337V11.6666Z" fill="white"/>
</svg>
