<svg width="56" height="56" viewBox="0 0 56 56" fill="none" xmlns="http://www.w3.org/2000/svg">
<path d="M4.66699 46.6667H51.3337V51.3333H4.66699V46.6667ZM9.33366 28H14.0003V44.3333H9.33366V28ZM21.0003 28H25.667V44.3333H21.0003V28ZM30.3337 28H35.0003V44.3333H30.3337V28ZM42.0003 28H46.667V44.3333H42.0003V28ZM4.66699 16.3333L28.0003 4.66667L51.3337 16.3333V25.6667H4.66699V16.3333ZM9.33366 19.2173V21H46.667V19.2173L28.0003 9.88401L9.33366 19.2173ZM28.0003 18.6667C27.3815 18.6667 26.788 18.4208 26.3504 17.9833C25.9128 17.5457 25.667 16.9522 25.667 16.3333C25.667 15.7145 25.9128 15.121 26.3504 14.6834C26.788 14.2458 27.3815 14 28.0003 14C28.6192 14 29.2127 14.2458 29.6502 14.6834C30.0878 15.121 30.3337 15.7145 30.3337 16.3333C30.3337 16.9522 30.0878 17.5457 29.6502 17.9833C29.2127 18.4208 28.6192 18.6667 28.0003 18.6667Z" fill="white"/>
</svg>
