<svg width="30" height="30" viewBox="0 0 30 30" fill="none" xmlns="http://www.w3.org/2000/svg">
<path d="M13.5554 22.7548L13.5542 22.7578V24.597H2.37158C2.1851 24.597 2.00626 24.5229 1.8744 24.3911C1.74254 24.2592 1.66846 24.0804 1.66846 23.8939V8.86108C1.66846 8.6746 1.74254 8.49576 1.8744 8.3639C2.00626 8.23204 2.1851 8.15796 2.37158 8.15796H4.03857V20.4093C4.03851 20.6492 4.08571 20.8868 4.17746 21.1084C4.26922 21.33 4.40373 21.5314 4.57333 21.7011C4.74293 21.8708 4.94429 22.0053 5.1659 22.0972C5.38752 22.189 5.62505 22.2363 5.86494 22.2363H11.8075C12.0204 22.2361 12.2316 22.2734 12.4315 22.3464L13.5554 22.7548Z" fill="#3D64FF"/>
<path d="M16.4459 22.7579V24.5972H16.406C15.4993 24.2573 14.5003 24.2573 13.5936 24.5972H13.5537V22.7579L13.5549 22.755L14.3758 23.0532C14.7788 23.2001 15.2208 23.2001 15.6238 23.0532L16.4447 22.755L16.4459 22.7579Z" fill="#604AF3"/>
<path d="M28.3317 8.86108V23.8939C28.3317 24.0804 28.2577 24.2592 28.1258 24.3911C27.9939 24.5229 27.8151 24.597 27.6286 24.597H16.446V22.7578L16.4448 22.7548L17.5687 22.3464C17.7686 22.2734 17.9798 22.2361 18.1927 22.2363H24.1353C24.3751 22.2363 24.6127 22.189 24.8343 22.0972C25.0559 22.0053 25.2573 21.8708 25.4269 21.7011C25.5965 21.5314 25.731 21.33 25.8227 21.1084C25.9145 20.8868 25.9617 20.6492 25.9616 20.4093V8.15796H27.6286C27.8151 8.15796 27.9939 8.23204 28.1258 8.3639C28.2577 8.49576 28.3317 8.6746 28.3317 8.86108Z" fill="#3D64FF"/>
<path d="M15.0001 23.1431V6.32966C15.2129 6.32954 15.4241 6.29226 15.6241 6.21951L17.5688 5.51287C17.7688 5.43981 17.98 5.40253 18.1929 5.40271H24.1354C24.3753 5.40273 24.6129 5.45 24.8345 5.54182C25.0561 5.63365 25.2575 5.76823 25.4271 5.93788C25.5967 6.10754 25.7312 6.30894 25.8229 6.53058C25.9147 6.75223 25.9619 6.98978 25.9618 7.22966V20.4092C25.9619 20.649 25.9147 20.8866 25.8229 21.1082C25.7312 21.3299 25.5967 21.5313 25.4271 21.7009C25.2575 21.8706 25.0561 22.0052 24.8345 22.097C24.6129 22.1888 24.3753 22.2361 24.1354 22.2361H18.1929C17.98 22.2359 17.7688 22.2732 17.5688 22.3463L16.445 22.7547L15.6241 23.0529C15.4239 23.1257 15.2125 23.163 14.9995 23.1631L15.0001 23.1431Z" fill="#D1D3D4"/>
<path d="M14.376 6.21973L12.4313 5.50693C12.2317 5.43191 12.0205 5.39254 11.8072 5.39062H5.86466C5.3794 5.39363 4.91513 5.58893 4.57365 5.93372C4.23216 6.2785 4.04133 6.74462 4.04298 7.22988V20.4094C4.04298 21.4184 4.85567 22.2656 5.86466 22.2656H11.8072C12.0192 22.2605 12.2305 22.2928 12.4313 22.3611L13.5551 22.7622L14.376 23.0568C14.5759 23.129 14.7869 23.1656 14.9994 23.1651L15 23.1434V6.32988C14.7872 6.32976 14.576 6.29248 14.376 6.21973Z" fill="#F4F8FC"/>
<path d="M6.77686 9.526H12.3099V12.6315H6.77686V9.526Z" fill="#0EB582"/>
<path d="M20.027 9.87793H17.6904C17.5972 9.87793 17.5078 9.84089 17.4418 9.77496C17.3759 9.70903 17.3389 9.61961 17.3389 9.52637C17.3389 9.43313 17.3759 9.34371 17.4418 9.27778C17.5078 9.21184 17.5972 9.1748 17.6904 9.1748H20.027C20.1203 9.1748 20.2097 9.21184 20.2756 9.27778C20.3416 9.34371 20.3786 9.43313 20.3786 9.52637C20.3786 9.61961 20.3416 9.70903 20.2756 9.77496C20.2097 9.84089 20.1203 9.87793 20.027 9.87793Z" fill="#B0B5CA"/>
<path d="M23.2236 12.7487H17.6904C17.5972 12.7487 17.5078 12.7116 17.4418 12.6457C17.3759 12.5798 17.3389 12.4903 17.3389 12.3971C17.3389 12.3039 17.3759 12.2144 17.4418 12.1485C17.5078 12.0826 17.5972 12.0455 17.6904 12.0455H23.2236C23.3169 12.0455 23.4063 12.0826 23.4722 12.1485C23.5381 12.2144 23.5752 12.3039 23.5752 12.3971C23.5752 12.4903 23.5381 12.5798 23.4722 12.6457C23.4063 12.7116 23.3169 12.7487 23.2236 12.7487Z" fill="#B0B5CA"/>
<path d="M23.2236 15.6197H17.6904C17.5972 15.6197 17.5078 15.5827 17.4418 15.5168C17.3759 15.4508 17.3389 15.3614 17.3389 15.2682C17.3389 15.1749 17.3759 15.0855 17.4418 15.0196C17.5078 14.9537 17.5972 14.9166 17.6904 14.9166H23.2236C23.3169 14.9166 23.4063 14.9537 23.4722 15.0196C23.5381 15.0855 23.5752 15.1749 23.5752 15.2682C23.5752 15.3614 23.5381 15.4508 23.4722 15.5168C23.4063 15.5827 23.3169 15.6197 23.2236 15.6197Z" fill="#B0B5CA"/>
<path d="M23.2236 18.4908H17.6904C17.5972 18.4908 17.5078 18.4538 17.4418 18.3879C17.3759 18.3219 17.3389 18.2325 17.3389 18.1393C17.3389 18.046 17.3759 17.9566 17.4418 17.8907C17.5078 17.8248 17.5972 17.7877 17.6904 17.7877H23.2236C23.3169 17.7877 23.4063 17.8248 23.4722 17.8907C23.5381 17.9566 23.5752 18.046 23.5752 18.1393C23.5752 18.2325 23.5381 18.3219 23.4722 18.3879C23.4063 18.4538 23.3169 18.4908 23.2236 18.4908Z" fill="#B0B5CA"/>
<path d="M12.3091 15.6197H6.77588C6.68264 15.6197 6.59322 15.5827 6.52729 15.5168C6.46136 15.4508 6.42432 15.3614 6.42432 15.2682C6.42432 15.1749 6.46136 15.0855 6.52729 15.0196C6.59322 14.9537 6.68264 14.9166 6.77588 14.9166H12.3091C12.4023 14.9166 12.4917 14.9537 12.5577 15.0196C12.6236 15.0855 12.6606 15.1749 12.6606 15.2682C12.6606 15.3614 12.6236 15.4508 12.5577 15.5168C12.4917 15.5827 12.4023 15.6197 12.3091 15.6197Z" fill="#CCD3DF"/>
<path d="M12.3091 18.4908H6.77588C6.68264 18.4908 6.59322 18.4538 6.52729 18.3879C6.46136 18.3219 6.42432 18.2325 6.42432 18.1393C6.42432 18.046 6.46136 17.9566 6.52729 17.8907C6.59322 17.8248 6.68264 17.7877 6.77588 17.7877H12.3091C12.4023 17.7877 12.4917 17.8248 12.5577 17.8907C12.6236 17.9566 12.6606 18.046 12.6606 18.1393C12.6606 18.2325 12.6236 18.3219 12.5577 18.3879C12.4917 18.4538 12.4023 18.4908 12.3091 18.4908Z" fill="#CCD3DF"/>
<path d="M5.80079 20.4094V7.22988C5.79914 6.74462 5.98997 6.2785 6.33146 5.93372C6.67295 5.58893 7.13721 5.39363 7.62247 5.39062H5.86466C5.3794 5.39363 4.91513 5.58893 4.57365 5.93372C4.23216 6.2785 4.04133 6.74462 4.04298 7.22988V20.4094C4.04298 21.4184 4.85567 22.2656 5.86466 22.2656H7.62247C6.61349 22.2656 5.80079 21.4184 5.80079 20.4094Z" fill="#CCD3DF"/>
<path d="M3.42627 23.8939V8.86108C3.42631 8.69041 3.48847 8.52558 3.60115 8.39739C3.71382 8.26919 3.86931 8.1864 4.03857 8.16446V8.15796H2.37158C2.1851 8.15796 2.00626 8.23204 1.8744 8.3639C1.74254 8.49576 1.66846 8.6746 1.66846 8.86108V23.8939C1.66846 24.0804 1.74254 24.2592 1.8744 24.3911C2.00626 24.5229 2.1851 24.597 2.37158 24.597H4.12939C3.94291 24.597 3.76407 24.5229 3.63221 24.3911C3.50035 24.2592 3.42627 24.0804 3.42627 23.8939Z" fill="#B5B2F9"/>
</svg>
