<svg width="56" height="56" viewBox="0 0 56 56" fill="none" xmlns="http://www.w3.org/2000/svg">
<path d="M39.667 6.99998H49.0003C49.6192 6.99998 50.2127 7.24581 50.6502 7.6834C51.0878 8.12098 51.3337 8.71447 51.3337 9.33331V46.6666C51.3337 47.2855 51.0878 47.879 50.6502 48.3166C50.2127 48.7542 49.6192 49 49.0003 49H7.00033C6.38149 49 5.78799 48.7542 5.35041 48.3166C4.91282 47.879 4.66699 47.2855 4.66699 46.6666V9.33331C4.66699 8.71447 4.91282 8.12098 5.35041 7.6834C5.78799 7.24581 6.38149 6.99998 7.00033 6.99998H16.3337V2.33331H21.0003V6.99998H35.0003V2.33331H39.667V6.99998ZM35.0003 11.6666H21.0003V16.3333H16.3337V11.6666H9.33366V21H46.667V11.6666H39.667V16.3333H35.0003V11.6666ZM46.667 25.6666H9.33366V44.3333H46.667V25.6666ZM14.0003 32.6666H18.667V37.3333H14.0003V32.6666ZM23.3337 32.6666H42.0003V37.3333H23.3337V32.6666Z" fill="white"/>
</svg>
