<svg width="30" height="30" viewBox="0 0 30 30" fill="none" xmlns="http://www.w3.org/2000/svg">
<g clip-path="url(#clip0)">
<path d="M0 24.7874V2.71056C0 2.37718 0.270241 2.10693 0.603622 2.10693H29.3964C29.7298 2.10693 30 2.37718 30 2.71056V24.7874C30 25.1207 29.7298 25.391 29.3964 25.391H0.603622C0.270241 25.391 0 25.1207 0 24.7874Z" fill="#FED23A"/>
<path d="M1.85156 23.5436H28.1479V3.95435H1.85156V23.5436Z" fill="#FFF9E9"/>
<path d="M25.7339 3.95435H28.1484V23.5436H25.7339V3.95435Z" fill="#FFF4D6"/>
<path d="M5.41805 8.19657H21.0245C21.2746 8.19657 21.4772 7.99388 21.4772 7.74386C21.4772 7.49383 21.2746 7.29114 21.0245 7.29114H5.41805C5.16797 7.29114 4.96533 7.49383 4.96533 7.74386C4.96533 7.99388 5.16797 8.19657 5.41805 8.19657Z" fill="#FEA116"/>
<path d="M24.5815 10.0447H5.41805C5.16797 10.0447 4.96533 10.2474 4.96533 10.4974C4.96533 10.7474 5.16797 10.9501 5.41805 10.9501H24.5815C24.8316 10.9501 25.0342 10.7474 25.0342 10.4974C25.0342 10.2474 24.8316 10.0447 24.5815 10.0447Z" fill="#FEA116"/>
<path d="M16.3058 12.7982H5.41805C5.16797 12.7982 4.96533 13.0009 4.96533 13.2509C4.96533 13.501 5.16797 13.7037 5.41805 13.7037H16.3058C16.5559 13.7037 16.7585 13.501 16.7585 13.2509C16.7585 13.0009 16.5558 12.7982 16.3058 12.7982Z" fill="#FEA116"/>
<path d="M13.1197 19.5562C12.3513 19.5583 11.5829 19.5601 10.8145 19.5614C10.5677 19.5618 10.3208 19.5621 10.074 19.5623C9.88509 19.5624 9.68125 19.5958 9.52165 19.4739C9.34304 19.3374 9.28159 19.1448 9.24072 18.9325C9.15217 18.4729 8.48915 18.5314 8.36765 18.9325C8.31386 19.1102 8.04223 19.6187 7.80495 19.5771C7.67921 19.5551 7.62428 19.3612 7.57781 19.2607C7.48732 19.0652 7.42141 18.858 7.36497 18.6503C7.12666 17.773 7.07909 16.857 6.93 15.9632C6.84356 15.4449 6.05348 15.5914 6.04074 16.0836C6.00018 17.6512 5.74388 19.1974 5.18577 20.6668C4.97867 21.212 5.85362 21.4478 6.05885 20.9075C6.27404 20.341 6.44487 19.7608 6.57742 19.1721C6.64853 19.3866 6.73334 19.597 6.83686 19.8017C7.10125 20.3242 7.64046 20.6333 8.2174 20.4009C8.4233 20.318 8.61115 20.173 8.77105 19.9965C8.79362 20.0226 8.81638 20.0483 8.84016 20.0723C9.27923 20.5155 9.85678 20.4681 10.4311 20.4674C11.3273 20.4662 12.2235 20.4641 13.1198 20.4616C13.7023 20.46 13.7034 19.5546 13.1197 19.5562Z" fill="#2F2E41"/>
<path d="M23.1434 27.893L21.8456 27.2894L20.5479 27.893V20.1063H23.1434V27.893Z" fill="#E1245A"/>
<path d="M21.843 21.6116C21.385 21.6116 21.0852 20.8321 20.6869 20.6666C20.2741 20.4951 19.5133 20.8274 19.2022 20.5157C18.8911 20.204 19.2228 19.4419 19.0516 19.0283C18.8865 18.6294 18.1084 18.329 18.1084 17.8701C18.1084 17.4114 18.8865 17.111 19.0516 16.712C19.2228 16.2984 18.8911 15.5362 19.2022 15.2246C19.5133 14.9129 20.2741 15.2452 20.6869 15.0738C21.0851 14.9083 21.385 14.1288 21.8429 14.1288C22.3009 14.1288 22.6008 14.9083 22.999 15.0738C23.4118 15.2452 24.1726 14.9129 24.4837 15.2247C24.7948 15.5363 24.4631 16.2985 24.6343 16.712C24.7995 17.111 25.5775 17.4114 25.5775 17.8702C25.5775 18.329 24.7995 18.6294 24.6343 19.0284C24.4631 19.4419 24.7948 20.2041 24.4837 20.5158C24.1726 20.8274 23.4118 20.4951 22.9991 20.6666C22.6008 20.8321 22.301 21.6116 21.843 21.6116Z" fill="#FEA116"/>
<path d="M24.6344 16.712C24.4632 16.2985 24.7949 15.5363 24.4838 15.2247C24.1727 14.913 23.4119 15.2452 22.999 15.0738C22.6008 14.9083 22.301 14.1288 21.843 14.1288C21.385 14.1288 21.0851 14.9083 20.6869 15.0738C20.6705 15.0806 20.6532 15.0864 20.6357 15.0917C21.0575 15.2195 21.7706 14.9254 22.0692 15.2247C22.3803 15.5363 22.0486 16.2985 22.2198 16.712C22.385 17.111 23.1631 17.4114 23.1631 17.8702C23.1631 18.329 22.385 18.6295 22.2198 19.0284C22.0486 19.4419 22.3803 20.2041 22.0692 20.5158C21.7706 20.815 21.0575 20.5209 20.6357 20.6488C20.6532 20.6541 20.6705 20.6599 20.6869 20.6667C21.0851 20.8321 21.385 21.6117 21.843 21.6117C22.301 21.6117 22.6008 20.8321 22.999 20.6667C23.4119 20.4952 24.1727 20.8275 24.4837 20.5158C24.7948 20.2041 24.4631 19.4419 24.6343 19.0284C24.7995 18.6295 25.5775 18.329 25.5775 17.8702C25.5776 17.4114 24.7995 17.111 24.6344 16.712Z" fill="#FEA116"/>
<path d="M21.8434 19.1858C22.5699 19.1858 23.1589 18.5968 23.1589 17.8702C23.1589 17.1437 22.5699 16.5547 21.8434 16.5547C21.1168 16.5547 20.5278 17.1437 20.5278 17.8702C20.5278 18.5968 21.1168 19.1858 21.8434 19.1858Z" fill="#E1245A"/>
</g>
<defs>
<clipPath id="clip0">
<rect width="30" height="30" fill="white"/>
</clipPath>
</defs>
</svg>
