<svg width="30" height="28" viewBox="0 0 30 28" fill="none" xmlns="http://www.w3.org/2000/svg">
<path d="M19.4404 5.32812C19.0518 5.32812 18.7373 5.11824 18.7373 4.85938V2.98438C18.7373 2.72551 19.0518 2.51562 19.4404 2.51562C19.8291 2.51562 20.1436 2.72551 20.1436 2.98438V4.85938C20.1436 5.11824 19.8291 5.32812 19.4404 5.32812Z" fill="#7E5C62"/>
<path d="M10.5342 5.32812C10.1455 5.32812 9.83105 5.11824 9.83105 4.85938V2.98438C9.83105 2.72551 10.1455 2.51562 10.5342 2.51562C10.9228 2.51562 11.2373 2.72551 11.2373 2.98438V4.85938C11.2373 5.11824 10.9228 5.32812 10.5342 5.32812Z" fill="#7E5C62"/>
<path d="M28.5938 16.5781H1.40625C1.14715 16.5781 0.9375 16.788 0.9375 17.0469V25.0156C0.9375 26.3079 1.98896 27.3594 3.28125 27.3594H26.7188C28.011 27.3594 29.0625 26.3079 29.0625 25.0156V17.0469C29.0625 16.788 28.8529 16.5781 28.5938 16.5781Z" fill="#996459"/>
<path d="M27.6562 4.85938H2.34375C1.05146 4.85938 0 5.91084 0 7.20312V15.3598C0 16.3023 0.56625 17.1526 1.44287 17.5262C5.30139 19.17 9.38326 20.091 13.5938 20.2643H16.4062C16.4126 20.2643 16.4191 20.264 16.4255 20.2638C20.6167 20.091 24.6986 19.17 28.5576 17.5261C29.4338 17.1526 30 16.3023 30 15.3598V7.20312C30 5.91084 28.9485 4.85938 27.6562 4.85938Z" fill="#BA7958"/>
<path d="M20.625 15.1719C20.625 14.138 19.7841 13.2969 18.75 13.2969H11.25C10.2159 13.2969 9.375 14.138 9.375 15.1719V19.8263C10.7646 20.0546 12.1711 20.2058 13.5938 20.2643H16.4062C16.4126 20.2643 16.4191 20.2641 16.4255 20.2638C17.8397 20.2055 19.2401 20.0548 20.625 19.827V15.1719Z" fill="#7E5C62"/>
<path d="M15.4688 21.7344H14.5312C14.0135 21.7344 13.5938 21.3147 13.5938 20.7969V18.9219C13.5938 18.4041 14.0135 17.9844 14.5312 17.9844H15.4688C15.9865 17.9844 16.4062 18.4041 16.4062 18.9219V20.7969C16.4062 21.3146 15.9865 21.7344 15.4688 21.7344Z" fill="#FEA116"/>
<path d="M20.1565 3.20387C20.0668 3.20387 19.9759 3.19103 19.8857 3.16379C18.4774 2.73969 16.7878 2.51562 14.9998 2.51562C13.2117 2.51562 11.5221 2.73969 10.1138 3.16379C9.61782 3.31396 9.09528 3.03195 8.94581 2.53642C8.79657 2.04066 9.07741 1.51766 9.57317 1.36842C11.1546 0.892402 13.0312 0.640625 14.9998 0.640625C16.9683 0.640625 18.845 0.892402 20.4263 1.36848C20.9221 1.51771 21.2029 2.04072 21.0537 2.53648C20.9315 2.94201 20.5593 3.20387 20.1565 3.20387Z" fill="#996459"/>
<path d="M15.9248 17.9844H14.0498C13.7909 17.9844 13.5811 18.1943 13.5811 18.4531V19.3906C13.5811 19.9084 14.0008 20.3281 14.5186 20.3281H15.4561C15.9738 20.3281 16.3936 19.9084 16.3936 19.3906V18.4531C16.3936 18.1943 16.1837 17.9844 15.9248 17.9844Z" fill="#FFE671"/>
</svg>
