<svg width="56" height="56" viewBox="0 0 56 56" fill="none" xmlns="http://www.w3.org/2000/svg">
<path d="M32.6663 33.2546V38.1313C30.5545 37.3847 28.2943 37.1556 26.0756 37.4635C23.8569 37.7713 21.7445 38.6071 19.9157 39.9005C18.0869 41.1939 16.5951 42.9072 15.5657 44.8966C14.5363 46.886 13.9992 49.0934 13.9997 51.3333L9.33301 51.331C9.33228 48.4817 9.98382 45.6701 11.2377 43.1116C12.4916 40.553 14.3145 38.3155 16.5668 36.5704C18.8192 34.8253 21.4411 33.619 24.2317 33.0438C27.0223 32.4687 29.9075 32.54 32.6663 33.2523V33.2546ZM27.9997 30.3333C20.2647 30.3333 13.9997 24.0683 13.9997 16.3333C13.9997 8.59831 20.2647 2.33331 27.9997 2.33331C35.7347 2.33331 41.9997 8.59831 41.9997 16.3333C41.9997 24.0683 35.7347 30.3333 27.9997 30.3333ZM27.9997 25.6666C33.1563 25.6666 37.333 21.49 37.333 16.3333C37.333 11.1766 33.1563 6.99998 27.9997 6.99998C22.843 6.99998 18.6663 11.1766 18.6663 16.3333C18.6663 21.49 22.843 25.6666 27.9997 25.6666ZM41.9997 39.6666V32.6666H46.6663V39.6666H53.6663V44.3333H46.6663V51.3333H41.9997V44.3333H34.9997V39.6666H41.9997Z" fill="white"/>
</svg>
