<svg width="56" height="56" viewBox="0 0 56 56" fill="none" xmlns="http://www.w3.org/2000/svg">
<path d="M39.6667 37.3333H44.3333V9.33333H21V14H39.6667V37.3333ZM39.6667 42V49C39.6667 50.288 38.6167 51.3333 37.317 51.3333H9.34967C9.04196 51.3352 8.73693 51.2762 8.45209 51.1598C8.16724 51.0434 7.90821 50.8718 7.68987 50.655C7.47153 50.4382 7.29818 50.1804 7.17979 49.8963C7.0614 49.6123 7.0003 49.3077 7 49L7.007 16.3333C7.007 15.0453 8.057 14 9.35667 14H16.3333V7C16.3333 6.38116 16.5792 5.78767 17.0168 5.35008C17.4543 4.9125 18.0478 4.66666 18.6667 4.66666H46.6667C47.2855 4.66666 47.879 4.9125 48.3166 5.35008C48.7542 5.78767 49 6.38116 49 7V39.6667C49 40.2855 48.7542 40.879 48.3166 41.3166C47.879 41.7542 47.2855 42 46.6667 42H39.6667ZM11.6737 18.6667L11.6667 46.6667H35V18.6667H11.6737ZM16.3333 37.3333H26.8333C27.1428 37.3333 27.4395 37.2104 27.6583 36.9916C27.8771 36.7728 28 36.4761 28 36.1667C28 35.8572 27.8771 35.5605 27.6583 35.3417C27.4395 35.1229 27.1428 35 26.8333 35H19.8333C18.2862 35 16.8025 34.3854 15.7085 33.2915C14.6146 32.1975 14 30.7138 14 29.1667C14 27.6196 14.6146 26.1358 15.7085 25.0419C16.8025 23.9479 18.2862 23.3333 19.8333 23.3333H21V21H25.6667V23.3333H30.3333V28H19.8333C19.5239 28 19.2272 28.1229 19.0084 28.3417C18.7896 28.5605 18.6667 28.8572 18.6667 29.1667C18.6667 29.4761 18.7896 29.7728 19.0084 29.9916C19.2272 30.2104 19.5239 30.3333 19.8333 30.3333H26.8333C28.3804 30.3333 29.8642 30.9479 30.9581 32.0419C32.0521 33.1358 32.6667 34.6196 32.6667 36.1667C32.6667 37.7138 32.0521 39.1975 30.9581 40.2915C29.8642 41.3854 28.3804 42 26.8333 42H25.6667V44.3333H21V42H16.3333V37.3333Z" fill="white"/>
</svg>
