<svg width="56" height="56" viewBox="0 0 56 56" fill="none" xmlns="http://www.w3.org/2000/svg">
<path d="M28.0003 51.3333C15.1133 51.3333 4.66699 40.887 4.66699 28C4.66699 15.113 15.1133 4.66666 28.0003 4.66666C40.8873 4.66666 51.3337 15.113 51.3337 28C51.3337 40.887 40.8873 51.3333 28.0003 51.3333ZM28.0003 46.6667C32.951 46.6667 37.699 44.7 41.1997 41.1993C44.7003 37.6986 46.667 32.9507 46.667 28C46.667 23.0493 44.7003 18.3013 41.1997 14.8007C37.699 11.3 32.951 9.33332 28.0003 9.33332C23.0496 9.33332 18.3017 11.3 14.801 14.8007C11.3003 18.3013 9.33366 23.0493 9.33366 28C9.33366 32.9507 11.3003 37.6986 14.801 41.1993C18.3017 44.7 23.0496 46.6667 28.0003 46.6667V46.6667ZM19.8337 32.6667H32.667C32.9764 32.6667 33.2732 32.5437 33.492 32.325C33.7107 32.1062 33.8337 31.8094 33.8337 31.5C33.8337 31.1906 33.7107 30.8938 33.492 30.675C33.2732 30.4562 32.9764 30.3333 32.667 30.3333H23.3337C21.7866 30.3333 20.3028 29.7187 19.2089 28.6248C18.1149 27.5308 17.5003 26.0471 17.5003 24.5C17.5003 22.9529 18.1149 21.4692 19.2089 20.3752C20.3028 19.2812 21.7866 18.6667 23.3337 18.6667H25.667V14H30.3337V18.6667H36.167V23.3333H23.3337C23.0242 23.3333 22.7275 23.4562 22.5087 23.675C22.2899 23.8938 22.167 24.1906 22.167 24.5C22.167 24.8094 22.2899 25.1062 22.5087 25.325C22.7275 25.5437 23.0242 25.6667 23.3337 25.6667H32.667C34.2141 25.6667 35.6978 26.2812 36.7918 27.3752C37.8857 28.4692 38.5003 29.9529 38.5003 31.5C38.5003 33.0471 37.8857 34.5308 36.7918 35.6248C35.6978 36.7187 34.2141 37.3333 32.667 37.3333H30.3337V42H25.667V37.3333H19.8337V32.6667Z" fill="white"/>
</svg>
