<svg width="56" height="56" viewBox="0 0 56 56" fill="none" xmlns="http://www.w3.org/2000/svg">
<path d="M9.33301 51.3334C9.33301 46.3827 11.2997 41.6347 14.8003 38.134C18.301 34.6334 23.049 32.6667 27.9997 32.6667C32.9504 32.6667 37.6983 34.6334 41.199 38.134C44.6997 41.6347 46.6663 46.3827 46.6663 51.3334H41.9997C41.9997 47.6203 40.5247 44.0594 37.8992 41.4339C35.2737 38.8084 31.7127 37.3334 27.9997 37.3334C24.2866 37.3334 20.7257 38.8084 18.1002 41.4339C15.4747 44.0594 13.9997 47.6203 13.9997 51.3334H9.33301ZM27.9997 30.3334C20.2647 30.3334 13.9997 24.0684 13.9997 16.3334C13.9997 8.59837 20.2647 2.33337 27.9997 2.33337C35.7347 2.33337 41.9997 8.59837 41.9997 16.3334C41.9997 24.0684 35.7347 30.3334 27.9997 30.3334ZM27.9997 25.6667C33.1563 25.6667 37.333 21.49 37.333 16.3334C37.333 11.1767 33.1563 7.00004 27.9997 7.00004C22.843 7.00004 18.6663 11.1767 18.6663 16.3334C18.6663 21.49 22.843 25.6667 27.9997 25.6667Z" fill="white"/>
</svg>
