<svg width="56" height="56" viewBox="0 0 56 56" fill="none" xmlns="http://www.w3.org/2000/svg">
<path d="M45.2087 35.2403C46.7227 31.643 47.0712 27.6617 46.2053 23.8561C45.3393 20.0504 43.3024 16.6119 40.3809 14.0239C37.4594 11.4359 33.8003 9.82862 29.918 9.42798C26.0357 9.02733 22.1255 9.8535 18.7371 11.7903L16.4224 7.73734C19.9636 5.71344 23.9735 4.65352 28.0522 4.66335C32.1309 4.67318 36.1357 5.7524 39.6671 7.79333C50.1437 13.8413 54.1571 26.7913 49.2734 37.59L52.4047 39.396L42.6864 44.562L42.3014 33.5627L45.2087 35.2403V35.2403ZM10.7921 20.7597C9.27809 24.357 8.92958 28.3383 9.79556 32.1439C10.6615 35.9496 12.6984 39.3881 15.6199 41.9761C18.5414 44.5641 22.2005 46.1714 26.0828 46.572C29.9651 46.9727 33.8753 46.1465 37.2637 44.2097L39.5784 48.2627C36.0373 50.2866 32.0273 51.3465 27.9486 51.3367C23.8699 51.3268 19.8651 50.2476 16.3337 48.2067C5.85708 42.1587 1.84375 29.2087 6.72742 18.41L3.59375 16.6063L13.3121 11.4403L13.6971 22.4397L10.7898 20.762L10.7921 20.7597ZM19.8337 32.6667H32.6671C32.9765 32.6667 33.2732 32.5438 33.492 32.325C33.7108 32.1062 33.8337 31.8094 33.8337 31.5C33.8337 31.1906 33.7108 30.8938 33.492 30.675C33.2732 30.4562 32.9765 30.3333 32.6671 30.3333H23.3337C21.7867 30.3333 20.3029 29.7188 19.209 28.6248C18.115 27.5308 17.5004 26.0471 17.5004 24.5C17.5004 22.9529 18.115 21.4692 19.209 20.3752C20.3029 19.2813 21.7867 18.6667 23.3337 18.6667H25.6671V16.3333H30.3337V18.6667H36.1671V23.3333H23.3337C23.0243 23.3333 22.7276 23.4562 22.5088 23.675C22.29 23.8938 22.1671 24.1906 22.1671 24.5C22.1671 24.8094 22.29 25.1062 22.5088 25.325C22.7276 25.5438 23.0243 25.6667 23.3337 25.6667H32.6671C34.2142 25.6667 35.6979 26.2812 36.7919 27.3752C37.8858 28.4692 38.5004 29.9529 38.5004 31.5C38.5004 33.0471 37.8858 34.5308 36.7919 35.6248C35.6979 36.7188 34.2142 37.3333 32.6671 37.3333H30.3337V39.6667H25.6671V37.3333H19.8337V32.6667Z" fill="white"/>
</svg>
