<svg width="24" height="24" viewBox="0 0 24 24" fill="none" xmlns="http://www.w3.org/2000/svg">
<g clip-path="url(#clip0)">
<path d="M20.701 12.1215L20.1639 10.5956L14.3714 16.3884C13.8054 16.9554 13.0514 17.2672 12.2504 17.2672C11.4495 17.2672 10.6955 16.9554 10.1296 16.3884L5.87975 12.1385C5.31271 11.5726 5.00071 10.8186 5.00071 10.0177C5.00071 9.21671 5.31271 8.46272 5.87975 7.89677C6.4457 7.32991 7.19969 7.01791 8.00055 7.01791C8.80159 7.01791 9.55558 7.32991 10.1215 7.89677L12.2504 10.0247L17.9542 4.3211L17.57 3.23113L17.3932 2.17321C17.2822 1.4952 16.8351 0.933284 16.2001 0.670176C15.5622 0.405237 14.8503 0.487264 14.2913 0.888243L11.5125 2.9001L8.70253 0.883116C8.1386 0.48525 7.42471 0.406153 6.79065 0.67219C6.1608 0.936214 5.71771 1.49722 5.60676 2.17119L5.06278 5.55791L1.65592 6.12386C0.979018 6.235 0.417099 6.68193 0.153075 7.31691C-0.110949 7.9539 -0.0289221 8.66779 0.372057 9.22678L2.38299 12.0056L0.366015 14.8154C-0.0309361 15.3793 -0.110949 16.0943 0.155089 16.7273C0.420028 17.3573 0.979934 17.8002 1.65391 17.9114L5.04081 18.4563L5.60676 21.862C5.7168 22.538 6.1608 23.099 6.79065 23.363C7.42563 23.6289 8.14061 23.55 8.70968 23.147L11.4885 21.1351L14.2913 23.147C14.6343 23.392 15.0332 23.5179 15.4383 23.5179C15.6951 23.5179 15.9531 23.4679 16.2001 23.365C16.8362 23.101 17.2822 22.5391 17.3932 21.864L17.9381 18.4773L21.3438 17.9114C22.0198 17.8002 22.5799 17.3573 22.8448 16.7273C23.1109 16.0943 23.0318 15.3793 22.6288 14.8084L20.701 12.1215Z" fill="#FEA116"/>
<path d="M12.2504 15.2676C11.9945 15.2676 11.7385 15.1696 11.5435 14.9746L7.29367 10.7248C6.90276 10.3339 6.90276 9.70186 7.29367 9.31095C7.68476 8.91986 8.31662 8.91986 8.70772 9.31095L12.2504 12.8537L22.2928 2.81125C22.6839 2.42034 23.3158 2.42034 23.7069 2.81125C24.0978 3.20216 24.0978 3.8342 23.7069 4.22511L12.9574 14.9746C12.7624 15.1696 12.5064 15.2676 12.2504 15.2676Z" fill="#2F2E41"/>
</g>
<defs>
<clipPath id="clip0">
<rect width="24" height="24" fill="white"/>
</clipPath>
</defs>
</svg>
