<svg width="56" height="56" viewBox="0 0 56 56" fill="none" xmlns="http://www.w3.org/2000/svg">
<path d="M9.33301 11.6667V37.3333H46.6663V11.6667H9.33301ZM4.66634 9.34967C4.66634 8.05233 5.72801 7 6.98101 7H49.0183C50.297 7 51.333 8.04767 51.333 9.34967V42H4.66634V9.34967ZM2.33301 44.3333H53.6663V49H2.33301V44.3333Z" fill="white"/>
<path d="M34.667 37.3333H32.667V35.3333C32.667 34.5376 32.3509 33.7746 31.7883 33.2119C31.2257 32.6493 30.4626 32.3333 29.667 32.3333H23.667C22.8713 32.3333 22.1083 32.6493 21.5457 33.2119C20.9831 33.7746 20.667 34.5376 20.667 35.3333V37.3333H18.667V35.3333C18.667 34.0072 19.1938 32.7354 20.1315 31.7977C21.0691 30.86 22.3409 30.3333 23.667 30.3333H29.667C30.9931 30.3333 32.2648 30.86 33.2025 31.7977C34.1402 32.7354 34.667 34.0072 34.667 35.3333V37.3333ZM26.667 28.3333C25.8791 28.3333 25.0988 28.1781 24.3709 27.8765C23.6429 27.575 22.9815 27.1331 22.4243 26.5759C21.8672 26.0187 21.4252 25.3573 21.1237 24.6294C20.8222 23.9014 20.667 23.1212 20.667 22.3333C20.667 21.5453 20.8222 20.7651 21.1237 20.0372C21.4252 19.3092 21.8672 18.6478 22.4243 18.0906C22.9815 17.5335 23.6429 17.0915 24.3709 16.79C25.0988 16.4884 25.8791 16.3333 26.667 16.3333C28.2583 16.3333 29.7844 16.9654 30.9096 18.0906C32.0348 19.2158 32.667 20.742 32.667 22.3333C32.667 23.9246 32.0348 25.4507 30.9096 26.5759C29.7844 27.7011 28.2583 28.3333 26.667 28.3333V28.3333ZM26.667 26.3333C27.7279 26.3333 28.7453 25.9118 29.4954 25.1617C30.2456 24.4115 30.667 23.3941 30.667 22.3333C30.667 21.2724 30.2456 20.255 29.4954 19.5048C28.7453 18.7547 27.7279 18.3333 26.667 18.3333C25.6061 18.3333 24.5887 18.7547 23.8386 19.5048C23.0884 20.255 22.667 21.2724 22.667 22.3333C22.667 23.3941 23.0884 24.4115 23.8386 25.1617C24.5887 25.9118 25.6061 26.3333 26.667 26.3333V26.3333Z" fill="white"/>
</svg>
